/* XPM */
static char *_7owr20nnvl511718380408[] = {
/* columns rows colors chars-per-pixel */
"64 64 254 2 ",
"   c #0D040C",
".  c #0B0207",
"X  c #140003",
"o  c #1B0004",
"O  c #12040C",
"+  c #1B040C",
"@  c #17090E",
"#  c #0C0611",
"$  c #0D0A14",
"%  c #130611",
"&  c #140A14",
"*  c #1A0C15",
"=  c #150C1A",
"-  c #190D1A",
";  c #1B0513",
":  c #1B121A",
">  c #171118",
",  c #220103",
"<  c #23050A",
"1  c #28070B",
"2  c #230C13",
"3  c #290A15",
"4  c #2A1318",
"5  c #36161A",
"6  c #350E11",
"7  c #1D1724",
"8  c #1A0F20",
"9  c #231C2B",
"0  c #221A27",
"q  c #381D22",
"w  c #271528",
"e  c #27212C",
"r  c #35232A",
"t  c #461B1B",
"y  c #51211E",
"u  c #492528",
"i  c #542422",
"p  c #592A29",
"a  c #4D2B32",
"s  c #4E3335",
"d  c #583638",
"f  c #563132",
"g  c #632D29",
"h  c #65312E",
"j  c #643532",
"k  c #6A3533",
"l  c #6B3936",
"z  c #633B3B",
"x  c #6B3D3B",
"c  c #633738",
"v  c #713E3B",
"b  c #753A35",
"n  c #70332E",
"m  c #481E20",
"M  c #76423E",
"N  c #6E413E",
"B  c #58443D",
"V  c #5B3D44",
"C  c #4B3342",
"Z  c #653D48",
"A  c #5A464B",
"S  c #6B4243",
"D  c #6C464A",
"F  c #674749",
"G  c #744443",
"H  c #7B4A46",
"J  c #734B4C",
"K  c #7C4E4A",
"L  c #784644",
"P  c #7B524D",
"I  c #6B4954",
"U  c #754C54",
"Y  c #695857",
"T  c #7B5354",
"R  c #795658",
"E  c #64514D",
"W  c #785D67",
"Q  c #7A666D",
"!  c #796157",
"~  c #82433C",
"^  c #824E4A",
"/  c #844846",
"(  c #83524D",
")  c #8A534E",
"_  c #845552",
"`  c #8B5651",
"'  c #855954",
"]  c #8A5A55",
"[  c #845B5A",
"{  c #8B5D5A",
"}  c #85575A",
"|  c #925E5A",
" . c #955B55",
".. c #955148",
"X. c #8C635C",
"o. c #83655A",
"O. c #92625D",
"+. c #9B645D",
"@. c #875E62",
"#. c #935E64",
"$. c #8C6364",
"%. c #8A6768",
"&. c #946562",
"*. c #9C6563",
"=. c #946A64",
"-. c #9A6A65",
";. c #9C6D6A",
":. c #94696C",
">. c #9C726B",
",. c #94736A",
"<. c #886A74",
"1. c #926B74",
"2. c #867875",
"3. c #9C7273",
"4. c #987979",
"5. c #897168",
"6. c #A36B65",
"7. c #A36D6A",
"8. c #A56A67",
"9. c #A3726D",
"0. c #AA736C",
"q. c #A57571",
"w. c #AA7573",
"e. c #A47A73",
"r. c #AB7A76",
"t. c #AD7C7A",
"y. c #A6777A",
"u. c #B37D7B",
"i. c #B57976",
"p. c #B4756C",
"a. c #A2675F",
"s. c #97817B",
"d. c #AB827B",
"f. c #B3827D",
"g. c #BB827D",
"h. c #C3867D",
"j. c #997A85",
"k. c #A97D85",
"l. c #B47E84",
"z. c #C17F83",
"x. c #978B89",
"c. c #A88589",
"v. c #B48482",
"b. c #BB8583",
"n. c #BB8B85",
"m. c #BC8C8B",
"M. c #B58789",
"N. c #BE918C",
"B. c #B1958A",
"V. c #B78D94",
"C. c #A69998",
"Z. c #B99599",
"A. c #AA908D",
"S. c #BAA299",
"D. c #BB9CA3",
"F. c #AD93A2",
"G. c #B9A7A7",
"H. c #B8ADA8",
"J. c #C38E8A",
"K. c #C78A84",
"L. c #C3928D",
"P. c #CC938C",
"I. c #CB988E",
"U. c #C78D92",
"Y. c #C39493",
"T. c #CA9492",
"R. c #CD9994",
"E. c #C4969B",
"W. c #C59B9D",
"Q. c #CB9B9C",
"!. c #C99799",
"~. c #D39C94",
"^. c #D39D9B",
"/. c #D79996",
"(. c #D3948B",
"). c #C8A59B",
"_. c #D4A39B",
"`. c #DBA49B",
"'. c #DBAA9E",
"]. c #D3A497",
"[. c #C49CA2",
"{. c #CA9EA2",
"}. c #D49EA2",
"|. c #CBA2A4",
" X c #CCA5AA",
".X c #C8A7A8",
"XX c #D3A3A3",
"oX c #DCABA2",
"OX c #D4AAAD",
"+X c #D8A6A6",
"@X c #D9B4A9",
"#X c #CAABB5",
"$X c #D7ADB2",
"%X c #CABAB8",
"&X c #DCB4BB",
"*X c #D8B6B7",
"=X c #C6B5AC",
"-X c #E3ABA4",
";X c #E4ACAA",
":X c #E5A8A7",
">X c #E5B5AB",
",X c #E6B7AA",
"<X c #E6B8B6",
"1X c #E7B0B2",
"2X c #E0A39E",
"3X c #D7C4BD",
"4X c #D6D2BE",
"5X c #CCC0BE",
"6X c #E8C3B9",
"7X c #F2C3BC",
"8X c #D9BBC6",
"9X c #CFB5C0",
"0X c #E3BBC3",
"qX c #E8BEC8",
"wX c #DBCDC5",
"eX c #D8C8C5",
"rX c #D9D1C5",
"tX c #DDD4CB",
"yX c #D6D4C8",
"uX c #DED5D2",
"iX c #DEDAD5",
"pX c #CDC5C2",
"aX c #ECC2C5",
"sX c #E7C7C9",
"dX c #F3C9C7",
"fX c #E3D5CD",
"gX c #E2D8CF",
"hX c #EBD4CE",
"jX c #EDC9D4",
"kX c #F6CBD4",
"lX c #E3D6D2",
"zX c #EAD5D3",
"xX c #E4DAD4",
"cX c #EBDAD5",
"vX c #E5DCD9",
"bX c #EBDDDA",
"nX c #EAD4D8",
"mX c #FBD4DD",
"MX c #F2DDDC",
"NX c #FADBDD",
"BX c #F4D5D8",
"VX c #E6E2DD",
"CX c #EBE1DD",
"ZX c #E8E8DE",
"AX c #F6E2DD",
"SX c #FCDCE5",
"DX c #FADAE3",
"FX c #FFDEF0",
"GX c #ECE4E2",
"HX c #EFEBEA",
"JX c #F3E4E3",
"KX c #FCE2E4",
"LX c #F9E8E8",
"PX c #FFF3F4",
/* pixels */
"fXfXfXtXyXyXyXyXtXtXfX4XrXyXyXiXpXQ C.pXpXiXtXyXrXrX4X4X4X4X4X4XtXyXyXyXeXyXrXwXtXrXfXfXwXwXrXtXrXrXrXrXrXrXrXrXrXrXrXrXtX4XC.s.",
"fXhXgXtXgXtXiXtXgXgXgXgXtXrXyXyXuXC.x.5XGXyXpXtXrXrXrXrX4XrX4XrXtXyXyXyXrXtXyXeX3XwX3XrXwXrXrXtXrXrXrXrXrXrXrXyXtXyXtXrXtXrXH.x.",
"hXxXgXxXiXtXgXfXtXgXhXhXgXtXyXyXuXpXQ C.ZXyXpXxXtXtXrXrXrX4XrXrXyXrXrXrXtXtXtXwXtXrXrXwXrXrXrXrXrXtXrXtXrXrXtXrXgXgXrXrXgXgX4X=X",
"hXhXfXgXuXxXtXfXcXcXhXhXhXcXgXuXwXbXx.2.5XuXwXlXgXfXfXtXfXfXrXrXtXtXtXfXhXzXhXzXsXfXhXrXfXrXfXwXtXtXtXtXtXgXtXtXrXgXtXrXgXiXyX4X",
"zXfXfXtXuXtXwXeXcXBXBXNXNXAXBXcXlXnX%XC.%XJXnXbXbXcXcXzXzXzXxXzXcXMXJXJXMXzXsXeX*X3X3XeX4XgXgXrXtXtXtXtXgXtXtXgXyXtXgXgXyXgXgXtX",
"MXcXxXxXxXxXtXeX*X*XaXkXNXKXAXAXKXnXLXBXnXLXDXLXJXDXJXDXDXbXDXbXDXSXKXNXjX*X.XG.%X3XwXsXhXgXhXgXrXtXtXtXtXtXfXtXrXtXtXgXgXyXgXgX",
"AXMXbXbXCXcXhXhXZ.|.[. X<XdXmXmXSXBXKXPXKXKXFXKXKXKXKXKXKXKXSXSXSXNXjX&X.XZ.V.A.*XfXcXhXhXgXgXfXtXtXtXtXgXgXgXfXgXgXgXgXgXgXgXgX",
"cXcXcXcXCXbXgXsX.XZ.M.k.V.Q.&X6XBXKXBXNXDXBXFXjXSXSXSXSXKXSXSXFXSXjX#XF.k.c.V.Z.OXaXcXhXgXcXhXfXgXgXxXxXxXxXxXVXZXxXxXxXxXgXgXxX",
"cXvXvXxXbXxX9X.XZ.M.y.#.#.l.{. XjXjXFXDXDXmXmXmXDXmXmXDXSXSXSXFXDXkX0Xj.W j.j.l.8X9X8XjXcXgXfXVXxXgXxXxXxXxXxXvXgXgXgXxXVXcXxXgX",
"MXbXzXbXbXxXeX%X$XZ.k.:.#.l.0XqXmXmXmXFXDXmXDXFXmXmXDXSXDXDXSXSXSXDXqXV.W j.k.D.9X8XjXnXhXhXgXgXxXxXxXxXxXxXxXxXxXgXxXgXgXVXVXxX",
"bXbXvXvXvXvXfXsX.XV.k.l.U.0XkXmXmXFXFXmXkXDXmXqXjXmXmXmXmXmXmXmXjXDXFXjX#XF.F.F.%X8XnXnXgXgXgXVXVXcXVXgXxXxXxXxXxXgXgXgXhXVXxXxX",
"zXxXxXxXvXbXbXMX.X[.$XqXqXmXkXqX&X8XqXqXqXqXqX0XjXqXkXkXmXqXjXsX8X8XjXqX8X8X#XF.8XnXnXnXgXgXgXgXVXgXxXgXVXxXxXxXgXgXiXgXgXgXVXxX",
"bXbXvXvXvXvXGXMXqXqXqXqXkXqX0X{.k.j.j.z.[.D.[.$X0X0X0X0X<X*X$X X#Xk.j.Q j.9X8X8XjXbXbXfXtXlXgXtXgXxXxXxXxXxXiXxXuXxXuXxXxXxXVXxX",
"GXGXvXvXiXvXvXnXSXkXqX0XqXqX{.j.U U Z Z <.k.Z.[. X#XOXOX XW.Z.A.j.<.W C I F.9X8XDXMXlXuXuXlXgXiXbXxXxXvXxXuXxXuXxXuXuXuXxXxXxXxX",
"GXGXGXVXZXVXbXnXDXjX9X X9XqX{.<.Z I Z C Z k.D.V.{. X{. X).Z.M.c.A A A C W F.9X9XnXnXnXnXvXxXuXgXxXbXxXxXxXxXxXuXxXuXuXxXuXxXtXuX",
"GXVXVXGXGXGXCXnXnXDXjX$XE. X Xk.I f a Z } j.c.[.[.{. X X|.Y.A.c.W C C C W F.9XjXnXuXvXbXvXtXtXVXVXVXxXVXvXvXiXvXvXuXuXuXxXuXuXtX",
"CXJXHXJXVXvXVXCXbXbXzX$XW.|.}.E.k.@.R @.1.3.V.{. XOX*X*X X|.V.A.j.Q <.F.D.D.D.[.SXxXtXvXZXiXiXZXgXxXVXbXvXiXiXuXuXvXvXiXiXuXuXnX",
"LXJXGXGXHXHXGXvXCXJXNXsX[.W.}.V.E.V.M.V.[.[.{. XOX*X<X*X.X|.[.G.F.D.F.F.F.k.j.Z c.sXPXxX3XVXZXuXVXcXxXtXiXVXHXHXiXiXnXiXnXiXuXuX",
"JXvXvXVXCXHXGXJXcXNXDXaX|.E.U.M.k.V.[.E.{.$X&X$X&XaXdXqX*XOX$X*X8X&X#Xk.l.D.j.Z d R Z.AXLXgXfXJXgXgXxXbXVXvXuXyXGXGXuXuXuXuXuXjX",
"GXPXPXPXDXwX8XeX3XaXsX<X|.Y.N.M.k.l.U.Z.{.<XaXqXaXaXkXkX0X*X&XaX0X XF.k.z.#X1X$XN.%.P ,.*XAXAXsXAXCXxXfXuXiXVXGXiXiXGXGXGXGXiXeX",
"GXiX%XC.2.<.c.Z.$XOX$XOXQ.Y.m.v.l.l.m.E.{.OX<XqXaXaXaXaXaX&X&X<X$X{.V.M.z.}.:XqX$X0X}.w.;.W.kXAXhXhXcXcXCXVXGXGXZXiX%XH.F.x.x.2.",
"iXH.Q A E <.Z.8XOX}.}.XXQ.Y.m.d.k.y.l.V.{.{.}.;XqX1X1X&X$X+X X+XE.!.U.t.k.z.z.z.2X}.2X1X1X+X>XdXhXcXAXVXfX%XH.C.x.2.2.j.j.x.G.H.",
"Q Y A Y j.V.Q.XX^.U.R.+X^.Y.N.f.l.t.l.U.Q.{.{.{.OX!.M.M.M.M.M.Z.M.v.l.l.l.8.8.i.z.U.2X:X:X;X>XoX,X=XA.s.5.2.2.2.x.H.%XuXnXGXVXVX",
"Y A E <.Z.{.E.U.l.z.U.XX^.R.L.m.v.l.l.l.m.m.m.M.m.y.&.@.{ &.3.t.k.3.v._.z. ./  .i.z.z.z./.:X;X-X@X).A.A.).4XgXCXHXGXGXvXvXvXvXVX",
"A Q x.#X{.E.z.U.l.z.:X2XQ.R.R.N.J.M.u.t.t.l.t.t.l.y.*._ { >.>.&.$.>.d.d.n.g.6.)  .8.i.K.(.2X-XoX@X3X3XhXAXcXzXAXiXuXvXbXxXvXCXzX",
"Q C..X#XE.}.l.l.z.}.:X}.T.L.B.d.v.l.t.w.w.q.3.7.3.;.#.} ' O.&.[ =.,.d.d.d.f.i.0. .8.p.z.(./.'.>X6X).@X6X6XcXAX3XVXvXvXvXuXvXbXuX",
"Z.<XsXOX}.}.w.i./.2X:X}.R.Y.N.d.v.t.w.w.q.9.-.O.&.| ] ' ] X.] ' o.,.s.>.d.d.f.g.i.g.K.K.K.~.'.oX'.@X@X@X).=XhXAXuXnXbXbXbXxXfXVX",
"aX6X<XXXU.l.*.U.:X:X:X}._.).Y.N.n.v.u.l.r.9.-.O.O.] ' X.X.' ' o.o.5.d.d.9.9.r.g.J.I.R.I.~.].'.oX'.6X@X@X.Xd.B.MXMXGXnXuXCXxXfXCX",
"7X@X2XP.b.6.*.:X:X:X+X}.}.}.W.Y.J.m.n.d.d.w.9.-.&.' ' X.X.' ' X.o.5.s.d.>.=.6.f.n.P.I.~.].'.'.,X,X,X].'.3XB.o.s.fXAXbXwXvXCXcXfX",
"<X;X/.h.w.` w.;XqX1X1XOX X{.W.E.L.m.f.d.d.e.9.>.=.X.' X.X.' X.5.,.,.d.d.9.=.a.f.g.P.~.`.].@X'.'.,X].].@X@X).A.Y 5.3XPXCXtXbXVXuX",
"1X:X/.h.8.L K.oX1X0X:X$X X{.W.W.N.n.n.f.f.f.d.e.>.=.X.X.X.O.X.=.s.=.>.d.9.O.+.d.h.(.`.'.'.'.].].'.].'.'.).@X@XA.s 2.5XCXcXgXcXCX",
":X:X(.h.8.n b.;X:X}.}.}.}.E.W.W.Y.N.n.n.n.f.d.e.9.>.O.X.O.,.>.=.=.5.>.d.d.+.X.+.h.h.~.`.'.-X@X].].'.].].@X@X).=X,.B Y =XAXxXfXVX",
"2X`.(.P.i.*.0.^.^.{.}.^.{.{.W.W.).Y.N.Y.N.N.v.t.e.q.>.-.-.-.;.-.>.,.d.a.d.s...+.i.J.].`.`.2X-X-X-X'.'.@X'.'.@X).S.! s ! H.gXZXxX",
"/././.P.h.8.p.^.^.^._.}.Q.W.E.E.L.N.Y.Y.Y.N.n.v.e.0.>.;.,.;.;.,.>.>.d.>.s.a.o.a.f.L.`.-X-X-X:X>X>X-X>X@X,X@X@X@X6XS.! s Y H.VXgX",
"2X~.P.(.h.0.p.R./.Q.Q.Q.Q.E.E.Y.Y.N.L.L.Y.N.n.d.e.q.>.;.;.;.-.-.=.,.s.,.a.s.o.a.r.g.~.`.:X;X1X:X,X,X,X,X,X,X,X,X].@XS.! s A C.AX",
"/.~.(.K.g.8.8.g.P.T.U.T.Y.Y.U.Y.Y.N.N.N.n.B.d.r.q.>.;.=.=.=.=.&.X.X.+.=.d.d.X.) -.q.g.L.~.-X:X>X,X,X,X,X,X,X,X,X6X@X3X@Xs.E E s.",
"/.(.h.h.i.6.6.i.b.b.b.n.n.m.m.m.N.N.N.n.v.f.r.q.>.;.-.&.+.O.X.X.X.X.X.=.6.0.+.M ] -.0.u.J.~.`.+X;X;X,X,X,X,X7X6X7X,X3X6X6XG.5.E ",
"(.h.h.h.p.a. .w.r.w.t.i.u.f.v.b.f.f.f.f.t.r.q.q.;.*.&.O.] { ] _ ] X.' X.,.d.d.P ( { -.9.t.b.U.T.].].'.oX,X,X,X,X,X6X6X6X6X6X*XS.",
"h.h.h.p.8. .` -.0.7.7.0.0.q.0.r.r.r.e.e.9.;.-.-.O.O.] } P ( H H M o.X.d.>.0.d.M l L ] O.*.9.l.l.n.L.P.~.2X-X,X,X7X7X,X,X6X7X7XhX",
"h.h.g.6.+.^ / { ;.8.;.8.7.6.6.6.9.q.0.;.=.+.{ { ] ] ( K H H M l N ) a.f.d.d.d.M i j L _ } #.;.7.r.i.f.L.~.`.`.-X'.,X,X6X6X6X7X7X",
"h.h.a.+.+.( M X.w.;.&.+.&.+.+.+.O.| | +.{ ] _ ` ^ { ^ K ( j p l M X.d.g.9.t.t.g u i p S } _ } ;.&.q.v.b.g.P.~.].`.`.'.oX@X>X6X7X",
"a.p.a. .X.M M +.3.w.7.| _ ^ ) ) O.O.| { _ K L ( H ( L M k i i v ) d.0.d.m.7.( x p p m p c Z U :.:.;.q.q.f.n.K.n.I.(.].].].'.>X>X",
"a.a. .) K j B X.$.3.y.>.+.| ` ) ( ( _ ` ^ L K ^ L L L l p i n ( 6.d.d.f.r.{ ( Z c j f f j c c c T T ' X.-.e.f.u.h.L.I.I.R.R.XX+X",
"+. ...( N y m H %.3.d.t.r.t.6.` L M v v v v v G v k v j p k ( 9.w.f.g.r.#.^ K l x Z J J Z Z f 5 a d J T T X.-.q.f.g.g.N.L.L.R.R.",
"| ` P G p 6 6 u %.3.y.y.d.f.i.-.] ^ l p y i g g k i k g h ^ | r.f.R.n.r.v.| p Z Z L U T U U I a 5 u d F G J ' X.>.0.d.f.f.n.n.L.",
") H G c m 1 , 6 a J %.y.r.r.0.0.w.+.L i t y g g b p k g L #.&.r.R.i.t.R.+Xt.G J } T R @.U @.U d < 1 q a B S P P { +.9.t.f.n.n.N.",
"H N l p 5 1 < , , 5 S $.;.-.;.0.r.w.| M g h k v v l v j ` 0.&.r.R._ r.;X}.M.y.q.y.@.$.1.W R I a o X + 3 t a d S P ' -.q.t.f.n.N.",
"M l p t 6 3 1 < 1 3 5 c K ` +.0.0.r.w.] v h k l L v G k | r.| i.g.6.u.U.U.n.t.Q.V.:.$.%.U Z Z a + + + + X , q d N J [ ;.r.d.f.n.",
"h N f 6 1 1 o o , 6 f p p ( +.0.f.r.;.| ] ( L h v l p H &.&.*.^ / ` p.6. .0.u.b.y.>.:.R D I d + O O   % O O + + r d U T | r.u.i.",
"d j p 1 o , 2 4 o 1 f u y M ] 6.6.9.9.-.-.+.] ^ h i k ` -.*.` v b n ~ b M *.-.+.r.=.[ J F s 4 X O # O #   $ O @ O 5 V T } } 8.i.",
"N y 6 1 1 2 < o @ 5 d S h h M M | &.-.-.-.-.O.] g t L | &.=.L v n h v b v  ._ L =.$.P A a 4 o O O     O @     @ . + 5 f Z _ @.#.",
"i t , 1 1 1 + X X 1 s D B g g N _ { +.O.{ ' ] ] k t j _ _ [ G M g k ^ | ` ^ K K { ,.R u 2 o X ; O   O # $     O * @ X < p U @.^ ",
"g i p u 1 o 2 5 3 3 u I P N N N G P { X.{ [ _ _ H p y S J N D x y m k #.' G J [ 1.,.A 3 O X . O O O   O     @     ; + o 3 a U @.",
"].I.!.l.G 6 o X 1 1 5 S P S H l g l H ' X.' [ _ { J m c J c S d u 6 6 Z J Z D P %.F 4 X ; O . O O . O       $     O + + + , u I ",
"(.h.P._.Y.M.3.J < , , f G L ' P G N G P { } [ [ } D u u S z f d m 6 , u d s V d s 2 X X % & % $ . X . O $   $   :   O ; ; O + q ",
"/.h.K.P.L.^.|.n.=.P p f j Z ;.7.;.[ K K _ } [ $.S s 5 1 s A q d ; 1 o 5 u u s 5 X X ; % . % = . O .       @   $   % % O O ; ; + ",
"h.p.p.K.P.g.f.L.Y.m.n.d.9.=.&.*.=.@.&.>.[ S J R P a o X 2 q 5 2 + O X + 4 q q w X . @ > &   # #     $ & $ $ # # $ % # % = ; % O ",
"...... .a.a.-.9.m.m.n.f.r.e.w.q.>.$.:.y.3.R d 5 u 5 X . o 2 @ . O X . . + * 2 2 . @ * : : = = $ @ @ @ & = = = = = = % = = = % % ",
"n b ~ ~ M ) ] ) -.O.O.O.>.9.e.0.>.%.:.e.,.R u X + X X X X X . . .   % O . O @ * $ @ > 0 7 7 8 7 > > > > 8 : 8 = = = = = - - % % ",
"n ~ ` ^ H ( { ' K K P o.X.$.=.=.=.=.:.%.R J s 4 X X + @ @   . . . # % % O @ > 4 @ @ @ : 9 0 7 7 > > : : : 8 8 = = = = = - - & & ",
"g h Z k d f c d E P R ! R ! [ $.[ X.%.R U R R F X X O O . . # # . $ $ $ & * : : > @ > : e 7 e 7 : 0 0 0 w w 8 8 - = ; = - - > * ",
"6 1 3 6 3 3 1 5 q u s d d d d A N J U J P ! W E + O O . # . # # $ $ $ > > : : * : > > : e e e 7 e e e e e 9 9 9 8 8 = = - - * > ",
"3 3 3 3 2 3 2 * + X @ 2 2 2 4 4 5 t u u s B d r + @ O   # # $ $ > > > : : : 4 : : : > e e e e 7 e e e e e 9 9 9 w 8 - - * : * : ",
"8 w ; = ; 2 * O 4 2 O + + + X X o , , , o 1 2 X X . @ @ # . # $ $ $ > > : : : : 7 : > 7 7 7 7 e 7 7 0 e 9 9 w w 9 w 8 - * * : : "
};
