/* XPM */
static char *cf7d0b7595cf4bc4923416804cb004e6NOedgFDBHfQDhk3g[] = {
/* columns rows colors chars-per-pixel */
"64 64 219 2 ",
"   c #0E0A0A",
".  c #070908",
"X  c #130E0C",
"o  c #190808",
"O  c #17160A",
"+  c #091918",
"@  c #081917",
"#  c #171919",
"$  c #181818",
"%  c #181917",
"&  c #090F10",
"*  c #172919",
"=  c #182918",
"-  c #172A16",
";  c #273318",
":  c #081827",
">  c #081828",
",  c #071939",
"<  c #09183A",
"1  c #0B173A",
"2  c #16162B",
"3  c #182827",
"4  c #172828",
"5  c #17293A",
"6  c #182839",
"7  c #192839",
"8  c #0F302F",
"9  c #273826",
"0  c #293727",
"q  c #2C2D34",
"w  c #2B1822",
"e  c #41261D",
"r  c #772719",
"t  c #154D28",
"y  c #284929",
"u  c #284928",
"i  c #285B28",
"p  c #345630",
"a  c #386D32",
"s  c #366D33",
"d  c #386D2E",
"f  c #1C571D",
"g  c #475535",
"h  c #4C7531",
"j  c #4C752E",
"k  c #515D14",
"l  c #08184E",
"z  c #06194D",
"x  c #081850",
"c  c #082846",
"v  c #082748",
"b  c #072848",
"n  c #072946",
"m  c #192747",
"M  c #182749",
"N  c #162849",
"B  c #0A275A",
"V  c #092859",
"C  c #082858",
"Z  c #192759",
"A  c #182858",
"S  c #123851",
"D  c #29334E",
"F  c #071869",
"G  c #072868",
"H  c #082767",
"J  c #183969",
"K  c #173A67",
"L  c #073878",
"P  c #093878",
"I  c #0E2F73",
"U  c #293A69",
"Y  c #2C4855",
"T  c #2E4755",
"R  c #394840",
"E  c #375366",
"W  c #1F555E",
"Q  c #68734E",
"!  c #596968",
"~  c #576A68",
"^  c #4A6F74",
"/  c #787B66",
"(  c #6B746F",
")  c #535C52",
"_  c #9E280A",
"`  c #D71E08",
"'  c #D91C09",
"]  c #EF1707",
"[  c #EE1806",
"{  c #EC180A",
"}  c #F11709",
"|  c #E52D10",
" . c #F75707",
".. c #F75707",
"X. c #F86807",
"o. c #F86808",
"O. c #F97908",
"+. c #D0530B",
"@. c #A06D2A",
"#. c #58890D",
"$. c #568A0E",
"%. c #6D980C",
"&. c #598838",
"*. c #588938",
"=. c #528D2E",
"-. c #699838",
";. c #699837",
":. c #6F9231",
">. c #58A839",
",. c #75A837",
"<. c #76A738",
"1. c #76A827",
"2. c #7FA810",
"3. c #569049",
"4. c #4D9445",
"5. c #71944D",
"6. c #77A84F",
"7. c #79A84E",
"8. c #77A851",
"9. c #788877",
"0. c #68A758",
"q. c #378940",
"w. c #8E8236",
"e. c #AD9D37",
"r. c #90A926",
"t. c #8FAC30",
"y. c #B1BC27",
"u. c #81A710",
"i. c #BDC438",
"p. c #F2D608",
"a. c #F7EA09",
"s. c #F9E908",
"d. c #F9E906",
"f. c #F8F90A",
"g. c #F8F908",
"h. c #EDE80F",
"j. c #ECE22E",
"k. c #88964D",
"l. c #88A842",
"z. c #87A842",
"x. c #88B742",
"c. c #90AC58",
"v. c #A6B851",
"b. c #8D8F76",
"n. c #8E8F78",
"m. c #8C9075",
"M. c #A9B769",
"N. c #A29F6F",
"B. c #B0C867",
"V. c #DBD94D",
"C. c #F0EB54",
"Z. c #D9D772",
"A. c #F0AC61",
"S. c #0A388A",
"D. c #0B378A",
"F. c #094892",
"G. c #0A4892",
"H. c #1C4787",
"J. c #175BA9",
"K. c #4476B6",
"L. c #77898A",
"P. c #5488BE",
"I. c #5488C1",
"U. c #6499CF",
"Y. c #919589",
"T. c #919687",
"R. c #889998",
"E. c #99A891",
"W. c #97A991",
"Q. c #9AA88F",
"!. c #A8B898",
"~. c #A8B897",
"^. c #B9B999",
"/. c #B8BA98",
"(. c #AAAB8D",
"). c #97AAA8",
"_. c #B1B8AA",
"`. c #B3B7AB",
"'. c #A9AAA8",
"]. c #B8C8AE",
"[. c #B9C8AE",
"{. c #B9C7B0",
"}. c #BDC09F",
"|. c #C8C9A9",
" X c #C7C9A8",
".X c #D7D8B8",
"XX c #D7D8B8",
"oX c #CDD1B3",
"OX c #EAD9B5",
"+X c #E9E9B5",
"@X c #DAD99D",
"#X c #83B1D8",
"$X c #B7C9CA",
"%X c #A8CFE8",
"&X c #BADDE9",
"*X c #D3D9CA",
"=X c #D5D9C9",
"-X c #DADCD0",
";X c #D9E9CD",
":X c #D7EACD",
">X c #E6E9C6",
",X c #E7E8C8",
"<X c #E9E8CA",
"1X c #E8E8DA",
"2X c #E9E8DA",
"3X c #F8F8D8",
"4X c #F7F9D6",
"5X c #EEF2D6",
"6X c #D4E7EE",
"7X c #D2E8EA",
"8X c #D2E9E6",
"9X c #CFEAEA",
"0X c #EFF1E3",
"qX c #EDF8E0",
"wX c #F5F5E7",
"eX c #F4F9EA",
"rX c #F4F8F0",
"tX c #E9D8CA",
"yX c #CBB498",
/* pixels */
"X X         X X X X X X X X X X X X X X X X X X X X X X X X X X X X X X X X X X X X X X X X X X X X X X X X X X X X X X X X X X ",
"X Z Z Z C A U Z 1 I Z Z D Z N U M M c Z Z v v M M A D Z S U N U S M D D q q q D D q 6 q 3 q q q q M E U E E E E E E Y D D S Y X ",
"X x x Z Z N D Z Z J Z S Z U S A S A b M v M v Z M A v M M D Z M 6 S 7 q q D 6 D D q q ] ] q q 3 q M T Y Y Y E Y Y Y Y Y S S Y X ",
"X l Z Z Z Z D S Z D D Z Z S Z < V G V V M G Z Z v S v S M b M S D S 6 6 6 q 6 D D m D ] | q q q 6 M D Y Y q Y S Y Y S Y Y D S X ",
"X Z Z S M A Z Z J Z Z Z J A Z l Z J V V V V V l Z Z , v M M S M 6 D D 6 6 q 6 6 D ] ] h.h.q 6 3 6 S D D S S 8 6 S S S S D S T X ",
"  Z J Z D Z Z Z D D I J J J K B Z U A V Z V N l V l m V ] { 6 < M 7 6 q 2 D 6 D q ] ] s.s.3 6 D 6 N M M 5 D b c c S n S S b S X ",
"  Z N A U S K J J Z J Z Z J J J Z V V V V G V l V z B M { ] M D M m 6 6 q D D 6 q .. .f.s.6 6 6 6 6 6 1 < m < M 5 c S 6 5 S M X ",
"  B Z Z Z G J I P G I P I J J J J G G G G C G V G B J ] s.f.6 6 M 1 D 2 ] ] D q q .. .f.s.2 S 5 6 6 6 6 < 6 : M c M M v M < v X ",
"X U B H J I P P J I I I L L P I G G G V G B G B V V J O.s.s.6 6 M 6 D D ] ] M 2 M .. .s.j.6 5 S 6 6 2 6 < 5 < < < b b b < < v X ",
"X B G J P P P I L L I I L L L I P P G G G H B G V C A X.s.s.1 D 1 e ] ] ] ] D M D .. .s.j.S D M m 1 D 6 b 8 M < c C b b v b N   ",
"X J H G L L L L P J I I P L S.L S.L L I I G H H L B S o.s.p.6 7 7 w ] [ s.s.q S M f.a.eXeXX...S S ] ] } v v c v v b C b < C B X ",
"X G I G I G.I L P I P P P S.S.S.S.S.I L G G G B V G J s.eX4XX.2 < 2 X.X.s.s.S q q h.f.4XeXf.f.S 6 ] ] | M M v b < B B < v x b X ",
"X P P I L I S.S.P P S.L L F.L L F.S.S.I I G G G V S D s.3X3XX.1 , D X.X.s.s.XX .+.a.g.eXeXa.p.q D ] | ] , v c b v v l V V B S X ",
"X G I G L I L F.G.S.G.F.G.F.F.F.S.F.S.I I G G G V o.X.s.eXeXs.6 M ^ O.X.s.s.;X/.e.4XeXeXeXf.{ ] } s.s.C.c v v v n v v S S b b X ",
"X G P I L S.H.F.I.K.&X%X7X9X7X%XF.S.D.I I G G G l X...h.eXeXa.S _..Xo.o.s.s._.'.!.;XeX3XeXg.] ] ] h.s.C.S c v v n S G S S S S X ",
"X I I L L I S.F.I.K.7X%XeX7X$X%XF.S.I S.I I G V V s.C.wXeXeXh..X;X@XO.O.s.s.R.(.1X5X2X<XV.O.| | | s.s.C.< S v v V S G S S S S X ",
"X H I L S.P S.F.U.U.7X7XeX7X$X&XF.F.S.S.I I G B B o.X.f.eXV.*X;X,X+Xh.s.3XeXX.X.eX1X1X1X;X<XX.o. .a.s.s.S n v v V b S S S v b X ",
"X H G I I S.S.F.U.U.7X&X%X&X&XeXF.F.S.S.I I V F l o.O.s.Z.oX*X*X2X+Xs.s.eXeX....oX>X1X>X>X<XX.o. .s.s.s.S c v v v S , c c B C X ",
"X P I I L S.H.F.K.P.6X&X%X&X8X1XF.F.S.S.I H F z l l , M $X*X2X@X....h.h.eX3Xf.f.$X3X<X;X<X*XX. . .s.s.s.~.W n S v v v v v < v X ",
"X H G L P L S.F.K.#X&X&X#XeX7X%XF.S.S.S.S.G H B l l z _.$X1X1XOX....h.h.eXeXf.f.$X4X<X3X.X@XX.X.X.f.a.a.).~.S 5 b v v < < < , X ",
"X I H I L S.S.S.K.U.%X%X%X#X7X&XJ.S.S.I L G C F B l e oX;X3X4X+XC.j.eXeX3XeXf.f.oX3X1XOX<X.XoXX.X.f.s.s.L.Y.R.S b < b b v S < X ",
"X H L G D.S.S.S.K.P.#XU.I.U.K.#XJ.F.S.S.L G B l G C '.*X;X3XeX1Xs.@XeXeX3X4Xf.f.<X5X>X<X<X:XXXh.h.eX5X5XX...X.J > 1 , V v n v X ",
"X Z G G L I P L J.I.I.I.U.U.U.P.F.F.I I I G F b ` ` $X<X<X>XeX5XX...f.f.f.j.o.X.1X3X<X<X<X<XoX@XC.eXeXeXX.X.X.( v < b < < < b X ",
"X B G V G G G L F.F.F.J.F.F.F.F.F.S.S.L I G H l ` ` =X1X5XqX4XtX....f.f.f.j.O.X.1X1XeX4X5X+XXX@XC.eXeXeX . .o.( v < < l v < < X ",
"X V J J S v < < B J G F.F.F.V L F.S.S.I G G G V X.X.;X1X3XqX1X3X3X`.)._._.].=X3XqXeX<X<X+X.X.XoXC.eXeXeXs.f.s.( V b , b b B v X ",
"X J Z S & : 2 : : , v L H.L C < L L I L G F F V X.X.*X1X3XeX5XeXeX_.1X3X4X4X4X<X>X3X+X.XXX+XXXoXj.eXeXeXs.a.s.( S < < b b S v X ",
"X I S < : > : + < < > : 1 K 1 8 < G K G F C F B X.X._.5X<X<X<XeXrX4XqX2X4X>X4X3XqX<X<X+XOX;XtXoX}.eXeXeXa.s.s.! S < c l b C b X ",
"X m M 2 & : 6 5 < : : : + : : : : 8 J G G G B l X.X.^.;X1XXX.X<XqX1XqX5X5X<X<XOXOX+X@X<XOXXXoX|.].eXeXeXj.h.a.! S < < v z B b X ",
"X 2 2 2 > $ : : + : $ : : + : > & & , l G F V l s.h.~.5X<XXXoX*X<X>X3X3X5X>XOXXXOX;X*X.X<X X^.~.1XeXeXeXs.h.a.! b n v v S C v X ",
"X 2 : : + + # + 2 2 + + 2 + + + + > : b l B Z A s.h. X>X.X.XoX(.^.+XXX@XoX|.(.(. X(.oX*XoX.X{.Y.;XeXeXeXj.j.s.! n < l , c c , X ",
"X + + $ $ $ + $ @ + + $ + + : : > : : v l V X. .j.@X<X X) ) ) m.(.^.@X@X(.Y.(.) q q q k (.{.~._.V.f.s.s.....X.) S l c l l l V X ",
"X + 2 2 $ & $ + $ & 2 + 8 8 2 : + & : 1 l B X. .V.@X/.) R q / 0 ( (.*X@Xb.(.) q q q q +.+._ .X_.r.s.s.s.X.o.X.! v v v < l l l X ",
"X + 2 + + # & 2 $ + $ & : : + + 3 : : : l l s.s.qXXX) q ) e.r.q $ ~.2X;X^.9.) p q $ & o.X.X.w.yX).a.f.s.o...X.^ v < < < < b z X ",
"X # $ + $ # + 2 $ & @ 2 + + + + + & : : < z h.h.0XoXm.E._.f.s.& 0 m.2X5X{.(./ ) q 3 X q ! ! E.oX~.( ~ ! ! ( ! E v < , 5 x z C X ",
"X & # $ & $ + + $ @ + $ > + + $ $ + : : : l X.X.s.Z.M.@X XX.X.) q '.eX.X].{.) n.g p & q ^.'.].oX^.~ ! ! ( ! ( ^ < < < 1 < v b X ",
"X $ + $ $ + $ + + 2 + + & + + + + + 3 : : ,  . .p.XXoX].A.X.o.R. X!.5X1XoXXXY./ Q ) D b..XoX_.=X^.( ! ( 9.9.L.^ < < : : 2 6 5 X ",
"X + $ * + + + $ & + : & + + 8 + + + + + : : 8 8 S oXOX X].oXoX(._.>X-X XXX_..Xb.m.m./ (. X X(.*X~.( r ( ( L.( S < 8 1 2 2 : < X ",
"X # $ & $ $ - & + $ @ 3 + + @ - + & 2 + & + + + v ].@X^. X(.Q..X_.=X$ # *XoXoX,X].m.Y.Y.^./.>X.X^./ w.9.L.( ( 6 < 6 > : 5 8 8 X ",
"X - - - - * $ $ + O o & + O $ + + + - @ + + + 2 Y _.@X^.^..X Xb.~.R.q 0 w oXoX/.<X<X.X(.(.*X<X{.oX_.e._.'.! E 6 v 1 : : : 8 : X ",
"X # $ $ $ + + + $ & + + + * & $ + + - 3 + : - 3 ( E._._.]._.^.(.*X) w Q 2 q {._. X[..XoXXXXXoX@X)._.oX].Y.( 8 5 5 1 2 2 2 4 : X ",
"X # $ $ $ & . & & O = O + * + O - + $ + * 8 4 8 q E.b.( / ( E.(.^.q q Q.! D ].(.E.c.9.E.'._. XoX_.{.~.! ! 8 3 2 6 4 2 3 : 2 8 X ",
"X * . $ . * $ # # & # O & & O $ - & 8 8 * 8 3 3 * Q.b.T.W.( ! (.@X! q T.) ) _._.( ) 9.( E.T.]. X~.(.~ ( ( 8 6 6 4 : 8 3 7 8 6 X ",
"X - # - ; ; 0 - = - - 0 + @ $ X + * O + - + 8 $ # ^ `.E.(.(.( (..X) ~ ) ) )  X/.E.E.E.(.Y.Q.~.~.Y.( w.9.E 8 3 3 6 3 2 2 : 8 8 X ",
"X 9 = q * ; = u O ; ; - - 8 ; 3 $ 9 = $ 8 8 8 8 & 8 ) L.R.W.~.(.(.*Xw =X9.4 XX~. XT.(.E.L.L.( E ! ~.'._ _ 5 3 3 3 3 , 3 + 2 3 X ",
"X 9 9 9 ; 0 * * - ; = 9 0 - 0 ; = 0 8 8 = u 8 9 & y 8 p ! ! '.` ` / =X^.-X-X XoX_.~.R.( 3 0 L.( ( ).(._ _ 8 8 $ 3 $ $ $ * $ 2 X ",
"X y u 9 = O # * 8 y 9 = u f - 9 9 ; f 8 u = ; 3 9 9 u u p u u ` ` @.(.oX.X.X|. X/.Y.9.q : e 9.( ( (.M.e.j.8 8 3 $ 3 8 $ # 2 2 X ",
"X ; $ o 3 - * * = 0 - 3 * $ = = = 0 u 0 u i u u u u u 8 p ` ` a.a./ oX X{.~.^._.m.T.! R l ~ (.E.9.~.(.i.h.4 2 3 8 3 8 6 3 2 * X ",
"X - 9 9 9 9 3 9 u 0 9 9 8 ; 8 8 u 8 u u p i i u u 8 y y u ` ` h.h.( oX^._._.(.].b.L.) v ! ^.~.Y.b.eXeXs.V.q 8 3 8 8 8 3 $ 3 8 X ",
"X p p p y 9 u u 9 u 0 u 9 u u p p u u p p a i p u p p p i  . .s.h.b.b.9.( 9.( b.( Q / ! L.*X(.Y.e.h.C. . .p 8 u 9 u u p y i i X ",
"X <.<.,.-.:.=.=.=.=.=.=.*.;.;.-.*.&.*.=.3.*.=.j p k d =.,... .s.h.Y.{.].Y..X! $X! Q ( Q.]..XE.n.p.h.C. . .t 9 i u y u u i i p X ",
"X s h a a *.*.&.h &.:.#.=.#.%.#.=.,.<.*.-.;.h =.=.j =.*.=. . .a.h./ =XoXY..X!  X) / N.Y.;X].b./ 9.Q a a a p i a p i p p p i a X ",
"X :.:.:.a a i i a ) h h j *.=.*.&.&.&.h &.>.>.>.>.*.>.=.=. .X.h.s.b.oXN.(.*XY.*Xm.( (. X.X)./ ( ( p i g h ) s p p p p p p p k X ",
"X h &.3.:.5.*.3.=.=.*.:.=.:.#.#.#.#.#.#.=.h &.&.3.=.*.=.=.s.h.eXeXo. .oXoX^.( {.T.^.(. X*X/ ( ( t f t t a s a a p p p i p Q *.X ",
"X e.c.c.c.c.c.5.-.8.,.l.x.;.:.:.-.-.-.-.,.,.<.,.;.,.=.:.&.s.h.eXeXo.X.~.~.*X(.(.oX/.(.^./.9.) h h a s a a i i u u u u p -.<.z.X ",
"X 6.5.8.c.:.-.-.<.,.1.1.%.:.:.:.-.-.-.,.u.,.1.-.-.;.w. . .h.s.eXeXC.h.L.L.oXN.!.Q. X/.^.(./ i h d d p p a p i y i u *.=.*.,.<.X ",
"X 3.3.( =.$.$.$.#.%.#.%.%.%.:.:.%.$.u.%.%.%.%.%.%.2.,.X. .s.h.eXeXf.f./ / _.(.Y._.^./.(.) u t i a a a a a *.8.,.r.r.1.1.r.y.:.X ",
"X -.*.-.,.z.l.x.l.l.;.;.=.=.=.=.=.=.=.&.:.=.j :.h :.z.a.p.eXeXeXeXf.s.L.L.oXoX*XQ /.~.Q t t t t a q.4.6.,.,.,.,.x.r.l.u.y.y.r.X ",
"X ,.*.=.=.=.=.:.;.:.:.;.=.-.=.=.=.<.,.x.l.t.-.<.:.:.z.h.p.eXeXeXeXf.s.R.R.*X2X{.}.(.Y.g p g g Q Q :.;.,.,.,.,.,.l.6.7.l.c.6.6.X ",
"X :.Q =.=.h =.=.-.-.-.-.>.*.=.=.l.x.<.,.z.x.x.l.v.l.c.j.p.eXeXeXeXf.j.9.9.oX@X/.(.c.p g Q Q 5.Q Q :.1.r.,.,.,.,.,.<.l.z.k.c.c.X ",
"X 7.6.6.5.8.c.l.-.:.:.=.&.:.:.=.;.*.:.-.-.:.-.:.k.k.k. . .h.s.h.h... .k k 5.c.k.c.c.B.v.v.c.c.k.l.c.,.6.,.l.,.,.,.:.,.5.5.5.5.X ",
"X c.c.c.6.c.8.-.-.:.:.;.*.=.:.:.:.&.=.-.:.;.-.:.k.5.k. . .s.j.C.C. . .c.B.B.M.B.M.M.c.M.M.c.c.c.c.v.l.-.6.6.l.:.l.l.c.6.5.5.5.X ",
"X 5.7.7.:.5.*.*.*.3.*.-.*.*.=.c.7.c.6.:.8.c.6.x.:.:.:.:.1.1.t.:.k.v.c.v.c.c.v.v.c.c.c.v.i.v.l.y.r.y.y.v.-.5.&.-.=.&.&.&.=.r.:.X ",
"X k p h s &.3.>.3.3.4.3.q.*.6.0.0.5.8.c.l.l.x.:.-.1.1.1.1.:.1.1.,.c.c.c.c.c.l.v.c.c.c.v.y.i.j.y.y.y.y.r.-.j *.*.h h =.j =.;.1.X ",
"X X         X X X X X X X X X X X X X X X X X X X X X X X X X X X X X X X X X X X X X X X X X X X X X X X X X X X X X   X X X X "
};
