/* XPM */
static char *_d119604bfac47e4aad9a3d107649088ta4QCAk2gytaFg15[] = {
/* columns rows colors chars-per-pixel */
"64 64 226 2 ",
"   c #010000",
".  c #0B0201",
"X  c #0D0906",
"o  c #0B0A09",
"O  c #120401",
"+  c #140904",
"@  c #1B0C04",
"#  c #130D0A",
"$  c #1A0E0B",
"%  c #1D120D",
"&  c #17120F",
"*  c #1B1411",
"=  c #1E1916",
"-  c #23130C",
";  c #28150F",
":  c #211613",
">  c #231915",
",  c #2B1C16",
"<  c #241D1A",
"1  c #2B1D1A",
"2  c #291712",
"3  c #2A1710",
"4  c #2C221D",
"5  c #26211E",
"6  c #33241D",
"7  c #38241E",
"8  c #2C2522",
"9  c #2E2A27",
"0  c #332622",
"q  c #332925",
"w  c #3B2B25",
"e  c #342C2A",
"r  c #3A2E2A",
"t  c #3C312D",
"y  c #3A352F",
"u  c #3D3431",
"i  c #3E3935",
"p  c #43342D",
"a  c #42362A",
"s  c #433633",
"d  c #443934",
"f  c #4B3B35",
"g  c #463C3A",
"h  c #4A3D3B",
"j  c #493730",
"k  c #49352D",
"l  c #4D403C",
"z  c #46413C",
"x  c #52433D",
"c  c #55463D",
"v  c #4D4440",
"b  c #4A4945",
"n  c #524643",
"m  c #554945",
"M  c #5B4B45",
"N  c #554C49",
"B  c #5C4D49",
"V  c #5D524C",
"C  c #57544F",
"Z  c #5E5552",
"A  c #5D5855",
"S  c #614E47",
"D  c #63534C",
"F  c #69574D",
"G  c #645552",
"H  c #695751",
"J  c #655A54",
"K  c #6B5B54",
"L  c #665C59",
"P  c #6B5D5A",
"I  c #715E56",
"U  c #725F58",
"Y  c #6E625C",
"T  c #736256",
"R  c #73635C",
"E  c #78665D",
"W  c #7B695C",
"Q  c #77685C",
"!  c #6C6461",
"~  c #676765",
"^  c #726562",
"/  c #7A6760",
"(  c #756964",
")  c #7C6B63",
"_  c #746C69",
"`  c #7B6F6B",
"'  c #7D716B",
"]  c #7E7771",
"[  c #816F65",
"{  c #826F69",
"}  c #837266",
"|  c #84736B",
" . c #8A766C",
".. c #8A7A6E",
"X. c #877A6F",
"o. c #837671",
"O. c #8A7671",
"+. c #857973",
"@. c #8C7C74",
"#. c #877C79",
"$. c #8C7E7A",
"%. c #917F76",
"&. c #917F78",
"*. c #907D6F",
"=. c #8D817B",
"-. c #898077",
";. c #938276",
":. c #94837C",
">. c #99857C",
",. c #96887F",
"<. c #9C8A7E",
"1. c #8C8681",
"2. c #938682",
"3. c #998781",
"4. c #958A83",
"5. c #9C8B83",
"6. c #9B8E89",
"7. c #9C918C",
"8. c #9A9086",
"9. c #9D9592",
"0. c #9E9D9B",
"q. c #A08D85",
"w. c #A28F88",
"e. c #A49286",
"r. c #A4938C",
"t. c #A9968C",
"y. c #A6988F",
"u. c #AB998E",
"i. c #A49691",
"p. c #A99790",
"a. c #A69993",
"s. c #AC9C94",
"d. c #AB9E99",
"f. c #A69D9A",
"g. c #B19E94",
"h. c #B39F99",
"j. c #ACA29C",
"k. c #AAA098",
"l. c #B3A196",
"z. c #B4A49B",
"x. c #B8A69D",
"c. c #B6A89F",
"v. c #BCAA9E",
"b. c #AEA5A1",
"n. c #ADA9A4",
"m. c #B2A7A1",
"M. c #BAA7A1",
"N. c #B5AAA4",
"B. c #BBABA3",
"V. c #B5ADAA",
"C. c #BBADA9",
"Z. c #BFB1A6",
"A. c #B5B2AE",
"S. c #BCB2AB",
"D. c #BCB6B2",
"F. c #BEBBB5",
"G. c #BFBEB9",
"H. c #B7B5B3",
"J. c #C1AB9E",
"K. c #C1AEA4",
"L. c #C3B2A5",
"P. c #C3B3AB",
"I. c #C8B6AC",
"U. c #C6B8AD",
"Y. c #CABAAD",
"T. c #C3B6B1",
"R. c #C8B7B0",
"E. c #C1BCB6",
"W. c #CCBCB3",
"Q. c #C2BEB9",
"!. c #CABFBA",
"~. c #D1BFB4",
"^. c #D0BFBA",
"/. c #C3C0B7",
"(. c #CEC1B5",
"). c #C4C2BB",
"_. c #CAC3BD",
"`. c #D2C1B5",
"'. c #D3C4BB",
"]. c #D9C7BC",
"[. c #D5C9BD",
"{. c #DACABE",
"}. c #D8C5B7",
"|. c #C6C4C1",
" X c #CBC6C1",
".X c #CCC9C2",
"XX c #D4C5C0",
"oX c #D4CBC4",
"OX c #DBCCC3",
"+X c #DACECA",
"@X c #D8C8C2",
"#X c #DED1C6",
"$X c #DDD3CB",
"%X c #D7D0C6",
"&X c #DFD8D2",
"*X c #E0CEC5",
"=X c #E2CFC9",
"-X c #E2D2C6",
";X c #E3D5CB",
":X c #E5D9CD",
">X c #E9DACE",
",X c #E8D6CD",
"<X c #E2D7D1",
"1X c #E5DBD3",
"2X c #EADDD3",
"3X c #E8DAD6",
"4X c #F1DED5",
"5X c #EDE1D6",
"6X c #ECE3DB",
"7X c #E4E0DC",
"8X c #F2E5DC",
"9X c #F4E8DE",
"0X c #F0E3D5",
"qX c #ECE7E1",
"wX c #F1E7E0",
"eX c #F4EBE3",
"rX c #F9EDE4",
"tX c #F8EFE8",
"yX c #F6EFE9",
"uX c #FBF0E6",
"iX c #F7F3EB",
"pX c #FCF3EC",
"aX c #FDF8EF",
"sX c #F4F0E7",
"dX c #FEFBF3",
"fX c #FAF7F2",
/* pixels */
"E.E.E.F.F.F.F.F.E.Q.9.` V F 4.;.@.;.e.L.L.L.{.`.;X-X#XU.OX;X2XuXrXrX5X1X5X5X2X>X>X[.-X`.~.`.~.u.;.e.e.@.{ 2.G _._.).).|./.).)./.",
"E.E.E.F.F.F.F.F.D.V.Z P x ' ,.@.<...Y.v.L.L.,X#XU.5XY.5X0X>XuXuXaXyXrXaX$X[.U.#X'.0XI.l.-XL.I.I.q.e.5.>.I x p.m.|. XE.).)./.). X",
"E.E.F.F.F.F.F.F.Q.f.L t n ) @.5.g.5.L.s.z.W.;XW.:X5X#X:X:X1X5XuXeXyXeX6X5X%X2XW.>X>XOX,X*XY.L.x.K.:.g.W | D J P _.).).)..X).).E.",
"E.E.F.F.F.F.F.F.D.N v x D |  .d.t.:.s.L.].`.OX;X5XrX1X6X2X9X6XuXeXrXrXqX2X9X8X2X2X:X{.W.-X~.g.Y.l.g.t.5.K I l J S.E..X|./.).)./.",
"F.F.F.F.F.F.F.F.V.v v V D H | u.5.t.z.W.W.Z.e.'.$X5X$X6XrX6XpXuXpXeXrXyXrXuX2XrX9X8X;X2X].W.K.v.<.>.B.<.@.H ) ^ i.).E. X).).E..X",
"F.F.F.F.F.F.E.F.L g B f B ;.;.e.e.u.e.;.].[.-X5X9X6XeXeXdX6XyXyXeXuXeXuX9XrX;X5X;X-X;X].OXI.Y.e.l.s.I.s.| H G l h oX.X).).). XE.",
"F.F.F.F.F.F.E.E.u g n s c F t.%.<.z.l.e.I.z.L.U.[.:X1XuXuXaXiXpXuX$X5XoXrXaXrXrX#X5X-XB.x.z.l.Y.I.B.v. .O.E B n ^ oXQ.)..X).)._.",
"F.F.F.F.F.F.E.E.r u e B M 5.5.t.u.u.l.<.K.].*X{.8X9X5X%X_.6XwXuXrXuXaX5X5XeXuX1XrX>X;X#X`.`.L.x.B.v.e.t.) | G t 8 7. X X).).).).",
"F.F.F.F.F.F.).D.q J e G B U p.s.t.t.J.Y.g.t.L.L.-X-XOX;X2X5X1X).1XrXrX6X7X_.T.2XOXR.L.U.Y.Y.(.I.x.I.g.t.O.@.h M h f. X).).)._._.",
"F.E.E.E./.D.F.n.y l s x K | 3.) J.<.W Q x W e.t.f } z.;X6X1X1XaXpXuX1X&XS.' 2X1X5X+XOXU.;.z.I.}.W.g.<.u.@.I H x h m _..X_. X).).",
"F.E./.F.D.).E.#.< s d h l ,.{ I.;.L.l.Y.;.}.].{.-X].0X[.8.oXoXrX7X6XS.#X$XqX1XT.rXuX5X-X`.Y.}.l.W.}.q.l./ H P J d J .XQ.).E._. X",
"F.E.F.F./.E./.4.= y n g n R W.].I.}.B.e.5.`.].}.2X>X9X5XuX[.$X%X1XwXyX5XyXeXeX6XaX!.Y.P.Y.W.;X>X].I.z.<.O.H P d g ! ). X_. X).).",
"F.F.E.E.D./.E.C 8 8 n t Y :.z.W.~.I.Y.OXt.>X*X;X2X2X9XuX5XuXdXeXdXaXiXiXuX1XeX9X2X+X5.2X;X>X0X-X#X#XW.;./ / G r N _ .X X/._.)._.",
"E.E.F.E./.F.E.~ e < g q n o.5.D M ,.r.W.Z.#X2XOX2X2XeXaXwXuXaXsXpXpX6X7XdXiXpXrX5X1X#X;X:XOX}.{.U.B.W.l.O.D f x r d  X X X)._.).",
"/.F.E.E.D./.).z # < g Z n 7.n c d d ' V P =.4.5.OX<XeXuXdXiXdXyX6X6XyXdXuX6XrXaX6X5X2X(.P.W.U.T ;.| B.g.Q Q B l V 8 E..X)..X).).",
"F.F.E.E.G././.g < * q N 2.a.K O 4 : s w @.Q p R @.j.+XrXtXwXrX$XeXoX1X1X8X9X_.@X'.3.M.Y K a Q  .a ) W.u.M | d d h L n.). X).).).",
"F.E.F.).F./.Q.8 * & q i t t O O + p ) / H ) B 3.z.z.].;X9X2X].#XC.;XOX0XrX:XOXOXI.Y o.c d.a.| p @ @ R 5.K B h : u 8 7..X.XE..X/.",
"E.).).F.E./.i N # X q * > $ o.)  .;.s.d.5.@.' =.5.B.K.`.OX-XOX`.*X>X{.:X4XOX'.Y.v.e.' R Y p @ - O j F j K P d t 8 < g E.E..XF..X",
"D.F.D.E.).E.8 5 . e + . P 2.Z.R.'.+X2X;X:X:X6.=.| 4.M.W.W.~.B.{.`.OX~.OXL.Y.'.W.s.B.t.5.0X;X2X'.`.5.P.=.` ) G g n ^ ! _  X.X/./.",
"/.E./.E.E..X  * 5 8 N . 4 r.:.R._.'.Z.@XZ.;X2XC.D | 5.d.r.K.L.L.W.M.u.s.B.s.B.@.3.t.rXrX2XrXeX2X;X+XP.e.R f G m q G g 5  X).).).",
"F.D.E. XG.).# 8 = e ! 8 > B ( | D g n G Y ' !.Z.M.f j F / ) e.W.2X;XOX5.:.r.,.K d.+X1X$X1X_.1XoXXX`.d.N.5.1 n ^ #.. # ! _..X).).",
"E.).).E.).).# 9 > * g % t w f t m ] j.N.!.pXG q 6.@.x , 7 j H <.OXOX/ H I K.x N.XX4.0 ( o.o.l d J ;.o.3.:.G o.D G N . b..XE._..X",
"F./.D._.F.E.# u y 8 n . f O , l 4 . V $ q * e j.K p 5.F w ; @ H 4X[.M f - p ,.5.% ' oX8 # e n N.a.; l @.:.M i.B u + s b. X.X_.F.",
"E.S.)./.).E.# X # 4 h Y N.V x , r N f.h . + e ' l =.| 5.D ) I D `.OX4.S h O. .P j.+ 0 i V < _ 4 d / K z.5.^ 2.w e + L V.oXE._.).",
"E.F./.E.).).e   . N . s $.` O z.i.T.+Xg g m l &X=.% x ].aXg.e.B.;X#XW.W.I.@XP.,.R 6XV _ v N oX#.M @.z.Z.eX2.g 1 . 1 l j.oX).).).",
"F.E.F.).E.).9.    d #.d.+X!.f y.a.+.N.Y b.6X$X6XaX5XaX#XW.s.>.I.OX5XOXC.OXrX2XOXOX+XT.J Q._.f.oXP.W.c.[.:.0 4 s . N ( T.)._._.).",
"E././.).).E.|.  .   : =.R.P.M.z.T.!.7.N.D.pXeX6Xj.s.W.2X{.[  .I.k.>X;XO.,X;XW.2XrX$X1XoXb._.3X_.[.OXOX'.W.s.$.m $ ` d.oX_._.)._.",
"F.F./.E.|.Q.F.  . . : V ;.U.Y.,XO f R 2.' o.o.N 2.6X2XOXz.| g.~.{.#Xd.z.v.*XR.].+Xm.<X6Xk._.3X;XU.M M.U.R.P d @ h d.Q.Q.oX).).).",
"F.E.F.E.).).Q.  .   . 5.5.X.x.5.OX) w x V K #.-.%X1X-XW.%.) W Y.0X>Xz. . .<.2X2XJ ' Y c J n n - 2X`.z.'.) &.O O G $XQ..X_._.).).",
"/.E./.F.).Q.|.8 .   l ( z.B.<.Y.OX`.OX;XrX$XoXeX2X1X'.5.| } ;.Y.#X>X2Xa.) u.].OX2X5X7.6 q M._.uX5.I.~.K.d.p r r a.C.S..X).)..X).",
"F.S.).F.|.).Q.A   . P o.z.z.;.s.Y.>X:X2X9X:XrXeX9XN.P.:.[ T *.L.>X9X[.c.R | P.[.5X8X'.9XOXrXeX'.(.z.| W.p.:., 1 z.$X+._._.).E.).",
"E.E.E.).G.Q.).A   # r o.s.5.5.e.OX{.;X2XaX8XrX8XZ.'.L.z.>.W >.v.;XpX$XI.| q.z.`.2X2X#X5X2X@X8X+X].v.4.I.R.5.B O Y oXT._._.)..X).",
"F./.F.E.).E.|.e . r x | 4.[ e.L.v.(.W.2XrX2X9X5XP.z.y.}  .} ;.Y.#X5X2X'.a.;.Q OX2XpX8XrX5XuXuX$XW.K.5.M.z.g.o.. m m _..X)._._.).",
"F.D.)./.E.).E.< . t R ( D 5.B.g.I.{.{.{.>X(.OXC.,.3. . .D <.} L.1XeXaX+XB.X.D U.>X8XeX_.rXrX<XoX+Xs.K.@.P.W.5.- G s Q._._._.).).",
"E.E.E.D.).|._.i   r ` c Q %.t.K.Y.~.~.].`.Z.c.| z.| L.P.S t.Y.].eXwXdX+XP.@.P.`.} a.Z.].2X8X$X`.OXW.v.3.h.s.3.0 +.1._..X_.E..XE.",
"E.D.E.).G.F..Xe . Z d.f ) 3.g.v.g.W.~.'.z.U.y. .z./ z.t.| K.~.OX9XpXdX#XM.;.I.U.s./ Q 5.'.W.<XOXP.L.v.v.5.r.3.- M.=._._./..X). X",
"S.)./.F.E._.E.4 . m s.D M &.q.B.I.L.W.W.u.R L.W.B.x X.H Q z.OX9XuXpXpXU.R.@.z.v.W.OXs.p p.z.R.M.I.Y.d.z.3.q.{ 2 b.z Q._._.F.E.).",
"E.).F.F..XF._._.d N R S D / t.v.v.s.h.F 7 ].].;XC.O 2 d f r.^.XX5XeXuX_.B.o.` H -X:X2X:X, @.p.`.P.v.g.p.t.F K O r .X X)..X.X_.).",
"E.F.E.E.Q.)._.Q._.g M F S I @.q.e.<.Q @ z.].{.W.OXd . . O n T._.+X_.<XN.s.D O . W.2X,X@XP.. ) t.t.g.w.,.&.H G 6 _._._._./.E.E..X",
"F.).F.E.E.E.Q.Q.!.m n 5.x c U | S 7 3 M.P.B.u.I.7.B.6 . . O P 2.T.N.a.d.V . O &.`.*X@XB.M.@.O 6 K Q | %.E j G p _._.).).). X_.).",
"E.E.E.E.E.E.Q.Q._.m f 5.p F K f 6 O M 5.q.h.z.M.P.M.r.6 . . . n =.L ` 0 @ . n p.s.P.B.r.6.s.+.. - 7 R R K r P s _._._.).).).).).",
"E.E.E.E.E.E.Q.).Q.q e 2.c U  .R ; 6 j R z.,.q.M.P.P.j.P . . . . * % + . . % 6.s.M.s.z.r.s.O.H 3 . w c D B l f +._.).).).).).).).",
"E.E.E.E.E.).).).Q.$ 4 4.R M./ s.p 7 O w h R @.4.z.Z.N.6.N .       .     > ^ 2.z.r.s.w.) :.D 6 f O M R e.2.r d _._.).).).).).).).",
"E.E.E.E.E.).).).Q.# % =.R s.^.OXP.t.M , ; w D R 7.C.j.N.7.G 8 . .   . y N $.6.d.r.6.o.M r 6 w P Q 5.z.,.M x d _._.).).).).).).).",
"F.F.F.G.E.).).).).v + ! 4 e.R.`.[.C.XXQ , O . $ d L +.N.m.E.4.L m N G +.#.=.b.2.J t 1 , O w :.N.M.!.5.5.n R > _._.).)./.)./.Q.E.",
"F.F.F.G.G.E.).).E.E.. u r K M.`.5X!.C.z.N.G O . . . : . > q V =._ Y L v : . + > + . . 0 ` p.'.P.'.R.M.M $ V . _.).)./././.E.E.E.",
"F.F.F.F.G.G.E.E.E.F.. y 4.- 4._.OX5XZ.P.a.XX$.. + 8 9.l k.> d y < > N e g S.j.9.0 O e 2.'.R.C.'.`.z.z.w J K S._.)./././.E.E.E.E.",
"F.F.F.F.G.G.G.E.E.).E.% ' . n P.1X2Xz.OXP.7.$X6.0 h V.D.pXV.6XiXA.&XfX7XqXrXqX' l o.C.+XC.R.s.W.W.d.+.O =.+ Q.E.E.E.F.F.E.E.E.E.",
"E.E.E.E.F.F.F.F.F.E.E.> m Y . | R.0XW.P.W.t.P.N.t.K D u 6XeXtXfXdXfXdXiXiX6X7.j.=._.P.I.P.z.P.OX_.@.t o.' n.D.F.F.G.)./.F.F.).F.",
"E.E.E.E.F.F.G././.D.F.E.# =.% , M.'.OXz.z.M.,.@.C.P.].!.N.d !.7X7XiXqX.X=.N.j._.s.5.z.z.I.OXOXW.d.J . j.. S.F.D.G.G.F.D./.E.F.F.",
"E.E.E.E.G.G.G./.F.).E.S.E.m 7.. Q _.OXM.e.z.;.%.M.Z.B.P.E.n j.i.N.] 4.oXj.rXN.P.@.,. .x.P.*XW.P.:.. T.d L A.F.F.G.G. X/./.F.E.F.",
"E.E.E.E.G.G././.F.F.D.V.S.# 6.s + k.W._.z.4.5.O.) ;.z._.R.R.XX!.!.M.s.z.B.r.z.c.e.O.d.z.z.1XI.P.r Y _     1.A.F.F.).F.F.E.E.F./.",
"E.E.F.F.E.E./././.F./.F.V.V.< 2.. V W.e.`.e.:.| | R ;.d.y.$X5X0X8X=XOX;XW.s.:.5.M | z.e.'.R.d.' . N.*   .     0.H.G. X/.G.F.).F.",
"E.E.F.F.E./././.G.).A.H.A.1.  ' 4.O z.W.O.M.<.e.T c ) E | O.t.s.g.M.p.@. .:.I H H t.l.P.$Xa.z.s 9.J               ~ H.|.E.F.F.).",
"E.E.G.E.E./././.F.|.F.F.X   . . 6.t m r.s.I.) E @.D T K F K [ I ) ) R H R  .F f e.I.-Xk.Z.'.#.0 9.  .                   n.F. X/.",
"E.E.G.E.E./././.).A.o           L #.. =.'./ e.l.u.@.W T W ) <.} / [ [ <.%.| R 5.K.Y.Z.B.'.Z.q 1.i             X             N D.",
"E.F.).G.D.).k.X                 . ( 4 o.a.o.L.I.'.I.5.e.T 5.g.@.Z.d.:.@.s.L.l.u.].`.Z.y.'.6.% !                                 ",
"E.G.F.                            > l * +.:.2.d.W.].z.L.*X{.B.Y.P.B.Z.Y.'.`.L.W.;Xz.M.5.( v 9.X                                 ",
"A.b                                 i > v ( o.=.z.B.;X].'.;XOX{.;XoX;X;XOXW.`.2X#XB.7.Y (   g                                   ",
"    X                                 < > Z ` $.r.W.C.B.'.g.,X-X8X;X$X'.B.L.I.:XM.j.6.v e i .                                   ",
"      X                           X       = B K ` t.p.d.z.W.W.:X2X2X8Xz.Z.z.W.z.N.r.V u X                                       ",
"            X                           . . y h P +.d.t.z.B.*XrX9X2X;Xz.s.z.M.d.@.=.e q                                         ",
"        X                         o           y D p ;.s.N.M.z.OXR.^.p.W.v.<.e.;.| n .                                           ",
"                                      X         0 h M Q 5.d.t.t.z.M.s.5.{ s.|  .) % .                                           "
};
