/* XPM */
static char *_32a966cd8904d22da2b847fdae03eb3A85nKFjbf1gOMSTu[] = {
/* columns rows colors chars-per-pixel */
"64 64 256 2 ",
"   c #030403",
".  c #0C0C09",
"X  c #0A0804",
"o  c #150B06",
"O  c #0C1406",
"+  c #151607",
"@  c #141413",
"#  c #1D1C1B",
"$  c #191916",
"%  c #0D0E11",
"&  c #291808",
"*  c #2D150D",
"=  c #1A2505",
"-  c #1E3602",
";  c #1E2219",
":  c #252A06",
">  c #273705",
",  c #383508",
"<  c #23231D",
"1  c #282819",
"2  c #2B3813",
"3  c #362611",
"4  c #1E1D21",
"5  c #211F21",
"6  c #242323",
"7  c #2C2B2C",
"8  c #292826",
"9  c #352C29",
"0  c #2E2D32",
"q  c #322F35",
"w  c #343234",
"e  c #35343A",
"r  c #3A3638",
"t  c #34322C",
"y  c #481608",
"u  c #47270A",
"i  c #473A0B",
"p  c #57370C",
"a  c #522F14",
"s  c #652B07",
"d  c #673717",
"f  c #753717",
"g  c #6B330F",
"h  c #473329",
"j  c #573627",
"k  c #44302B",
"l  c #633927",
"z  c #723C27",
"x  c #2B4506",
"c  c #334B0B",
"v  c #324806",
"b  c #395507",
"n  c #354916",
"m  c #3D551A",
"M  c #2F4612",
"N  c #3E6202",
"B  c #3E5427",
"V  c #3C4925",
"C  c #444A08",
"Z  c #435C0B",
"A  c #425A1A",
"S  c #504B14",
"D  c #6B4219",
"F  c #7B481B",
"G  c #725217",
"H  c #44630B",
"J  c #486907",
"K  c #57790A",
"L  c #496918",
"P  c #526C18",
"I  c #4D7118",
"U  c #5B7C14",
"Y  c #5B7C1C",
"T  c #547618",
"R  c #50720A",
"E  c #617D1B",
"W  c #73691C",
"Q  c #445C24",
"!  c #465A2B",
"~  c #4B5B33",
"^  c #5A4833",
"/  c #784627",
"(  c #724A2E",
")  c #4B6424",
"_  c #4C642C",
"`  c #4B6827",
"'  c #516C2D",
"]  c #506C24",
"[  c #547424",
"{  c #5B7D24",
"}  c #55732C",
"|  c #597927",
" . c #4D6632",
".. c #536C33",
"X. c #536737",
"o. c #557232",
"O. c #5A7434",
"+. c #5B7839",
"@. c #4F7220",
"#. c #627A23",
"$. c #617C37",
"%. c #756F2A",
"&. c #3A3842",
"*. c #443C43",
"=. c #4E4648",
"-. c #73564F",
";. c #5B7142",
":. c #657944",
">. c #8A3D17",
",. c #923B2C",
"<. c #864A19",
"1. c #91491C",
"2. c #874825",
"3. c #954C27",
"4. c #895429",
"5. c #985629",
"6. c #9A5837",
"7. c #8A4E35",
"8. c #A65829",
"9. c #A45838",
"0. c #AC552B",
"q. c #956A31",
"w. c #B76939",
"e. c #AE6536",
"r. c #8F5A49",
"t. c #94664A",
"y. c #A96547",
"u. c #B56A4A",
"i. c #BB7148",
"p. c #B76D57",
"a. c #BC7458",
"s. c #AA7057",
"d. c #B77567",
"f. c #A3615B",
"g. c #C6764A",
"h. c #C77856",
"j. c #CB7550",
"k. c #CC7767",
"l. c #C9733A",
"z. c #5D840C",
"x. c #5D821C",
"c. c #5D8315",
"v. c #63851C",
"b. c #658A1C",
"n. c #648817",
"m. c #6C911D",
"M. c #6C9216",
"N. c #5D8323",
"B. c #5C8228",
"V. c #5F8031",
"C. c #628523",
"Z. c #658A23",
"A. c #6A8D24",
"S. c #63852A",
"D. c #658A2A",
"F. c #6A8D2B",
"G. c #6C8628",
"H. c #6C9225",
"J. c #6D932B",
"K. c #679227",
"L. c #719524",
"P. c #72962C",
"I. c #749A2D",
"U. c #7A9D2D",
"Y. c #779929",
"T. c #6B8D33",
"R. c #688838",
"E. c #758D38",
"W. c #6E9333",
"Q. c #6D9933",
"!. c #729533",
"~. c #759B32",
"^. c #7A9D33",
"/. c #73933B",
"(. c #759A39",
"). c #7A9C3B",
"_. c #7A9537",
"`. c #728D27",
"'. c #73A22E",
"]. c #7BA22C",
"[. c #7AA62C",
"{. c #76A432",
"}. c #7BA433",
"|. c #7AA935",
" X c #7CA33A",
".X c #78A637",
"XX c #79A01F",
"oX c #6B8546",
"OX c #799746",
"+X c #768B4D",
"@X c #7EA240",
"#X c #829E37",
"$X c #819933",
"%X c #82A92B",
"&X c #84A434",
"*X c #8AA535",
"=X c #83A935",
"-X c #8BAB35",
";X c #84A43B",
":X c #8AA63A",
">X c #84AC3B",
",X c #8CAC3B",
"<X c #92AD35",
"1X c #91AD3B",
"2X c #9AAF38",
"3X c #8CB13D",
"4X c #8BB338",
"5X c #94B23C",
"6X c #9BB53C",
"7X c #96B63A",
"8X c #8EB12F",
"9X c #A0B93F",
"0X c #839D47",
"qX c #849B55",
"wX c #8DAC43",
"eX c #87A647",
"rX c #93AD46",
"tX c #8CB241",
"yX c #8FB048",
"uX c #94B342",
"iX c #9AB643",
"pX c #9DBA44",
"aX c #99B848",
"sX c #89A558",
"dX c #93B155",
"fX c #A3BA44",
"gX c #A5BC4A",
"hX c #A4BA48",
"jX c #A7BB53",
"kX c #96AD67",
"lX c #A8BA6D",
"zX c #A39163",
"xX c #D9865A",
"cX c #CE835B",
"vX c #D78864",
"bX c #D38B69",
"nX c #E59668",
"mX c #E89C77",
"MX c #E18D67",
"NX c #EDA379",
"BX c #E5945F",
"VX c #A8C14B",
"CX c #AAC352",
"ZX c #AEC474",
"AX c #C3DC77",
"SX c #F4AC8B",
"DX c #B6CB8E",
"FX c #BCC3A2",
"GX c #C6DC8D",
"HX c #CCE19D",
"JX c #D1DDA9",
"KX c #E7F3BB",
"LX c #EEF6CF",
"PX c #F9FEF1",
"IX c #DAE0CD",
"UX c #B7B9AB",
/* pixels */
"qX| | $.$.} [ /._.E R.qXqX$.L I { { T.T.OXR.Y Y P.iXgXhXhXaXaXaXaXfXfXfXfXfXfXfXfX9X6X6X6X6X6X6X2X2X<X-X*X*X*X&X^.$XY.`.G.v.E #.",
"sX/.| [ [ [ | F._.`.eXE.E.{ H b H T F.T./.(.L.^.aXjXgXjXgXhXgXgXgXfXhXVXhXhXhXfXfXfX9X9X6X6X6XfXfX6XpX6X5X1X5X-X,X&X:X:X#X^._._.",
"OXE././.T./.T./.).#X:X:X;X!.Y P.-X-X&XaX;X,X7XhXCXCXCXjXgXgXhXhXhXgXgXfXgXgXgXgXgXhXfXfXfXfXiX6X6X6XpX6X5X<X5X-X1X1X*X,X*X#X$X$X",
"G._._.!.(.).).eXwXeX-X,X,XwX,X,X5X5X<X-XiX5XfXVXgXgXCXVXCXgXgXgXhXVXgXhXgXVXVXgXgXgXgXfXfX6X6X6X6X6XpXpX6X5X<X<X*X1X-X:X&X,X#X#X",
"P.).).^.;X^.;X;XwX,XpXhXaXaX7X8X5X5XpX9XVXiXaXhXfXfXfXgXgXVXVXgXgXfXfXfXfXgXgXgXgXgXfXfXiX6X6X6X6X6X<X<X6X<X<X6X<X1X:X:X:X*X&X&X",
"*XwX^.&XwXwXwXuXaXaXiXiXaXiX-XXX1XhXpX<X5X*XjXjXhXpX6X1X<X6XCXVXVXgXgXhXfXfXhXgXgXhXfXfXfXhXfXfX6X6X6X6X6X6X<X<XuXuX*XwXrX:X*X:X",
"#X&X&X*X-X,X,X,X,X,XrXwX,X-X&XP.;XuX,X;X-X5XiXiXiXaX-X,X1X,X-XaXCXgXgXgXfXhXgXVXfXpXpXaXpXhXfXiX6X5X6X6X6X5X5X5X1XuX1X1X,X&X*X:X",
";X;X;X,X,X-X-X-X-X,XyXyX,X,X3XuXyXY.3XuXaX;XaXE *XuXpXuX&X5X,XuXgXfXpXfXfXgXgXpXpXpXpXpXaXaXiXpX6X5X6X<X5X1X5X5X1X1XuX1XuXuX*X:X",
").;X&X*X&X*X,X,X,X5X,X,X,X,X!.W.OXZ.].wXsXsXuXaXuXuXuXaX5XaXuX5XuXiXpXiXiXiXpX6X6XpXpXpXuXiXuXiX6X6X6X6X5X1X-X5XuX,XwX1X&X1XuX,X",
"Y.).^.1X,X,X:X&XwX1X<X-XuXwXOXsXOXT.N.{ O.E.3XuXuXuXuX,X1XuXuXpXuX&XuXaXuX7X5X4X4X4X-XuXaXaXaXuXpXfX6X6X5X5X-XuXuX,X,X$X*X:X:X&X",
"T.$.G._.:XwXuXwX&X:XrXaXwXwX).(.).eXJ.D.Z.U.3X,XuXuXiXuXiXaXaXiXuXaXaXuX3X,X,X}.}.}.}.I.I.-XuX7XpXfX6X5X<X5X4X-X1X,X-X#X*X,X*X&X",
"' ) ) P eXeX#X_.OXkXkXT._.>X,XeX X@X X;X-X%X4X5X7X5X7X7X7X7XpXuX-XuXuXtX3X3X>X|.|.|.|.|.}.}.>XuXiX6X6X6X7X3X,X>X,X3X-X-XwX*X,X&X",
") ' O.} oXOXeX#.+X+XOXR.sX XwXyX Xv. XP.uXuXdXyXeX0XeXwXwXwXwX3X4XuXtXtX3X3X;X{.|.|.|.|.3XtXaXaXiXiX6X6XuX,X,X=X-X3X-X,X,X,X&XU.",
"o._ O.O.P { eX{ O.+.R.oXkXOX;XwX,XwXeXsXOX_ 2 : = : 1 1 1 2 A sXwX-X=X}.>X>X|.{.}.|.|.|.|.}.>XuXiXpX5X5X5X,X,X=X=X>X=X&X:X:X&XU.",
"` ` ` ` ] T././.[ +.R.+.:.$.).eX0XP n = = < $ 6 X @ # < < 8 1 + > eXdX}.'.'.{.'.'.'.{.{.|.|.>X&X>XuX5XuX,X3X,X-X=X&X&X,X;XY.;XY.",
"' } ' ..' } V.OXOX{ [ O.} #./.O.2 1 1 # # # 8 o 8 # $ 9 1 < 7 7 7 = oX0X>X|.'.'.'.'.{.|.'.~.{.}.}.}.3XtX,XuXuX5XtXwXwX-X:X;XP.Z.",
"' ' } o.o.O.} T (.eXOXR.OX^.sX2 1 @ 6 8 # < < 1 < # 6 @ t 7 7 8 8 0 2 c eX].|.}.}.{.{.{.{.{.Q.I.'.}.>X>XtX,X-X-X&X&X&X^.Y.A.Y F.",
"' o.o.' ' O.} } +.O.} +.] :.2 $ 5 w 0 8 $ 6 # 6 < 8 7 6 6 6 r 7 8 e r 8 : 0X].}.|.}.|.{.|.}.P.P.}.=X-X].-X-X,X-X].U.^.U.&XY.H.F.",
"O.$.O.' +.' ' O.O.} } +.+.n $ 6 6 7 6 6 5 6 6 # 8 6 7 7 8 w 7 w 7 r r t 1 A ;X}.}.|.{.{.|.}.'.I.;X>X3X,X=X,X=X;X=X&X;X,X=X].&XP.",
"` o.' o.O.O.o.o.} +.oX;.~ O < 5 6 6 8 6 6 5 6 8 7 5 6 0 7 8 8 7 r w r r w = R.}.}.}.{. X{.}.}.].=XtX>X,X^.!.).eX&X;X X^.^.Y.^.^.",
"_ ' ..' ' _ O.' O.R.+X;.; @ 6 6 7 6 7 8 6 w # 7 8 0 # w w q 0 7 0 e r w w 7 2  X.X}.}..X.X}.}.}.&X,X3XuX;XG.{ S.;XeXlXZXqXR./.P.",
"..............o.o.O...n ; $ @ 8 w 8 7 7 6 7 7 7 7 e 8 e e e q 0 q e r t r 7 1 OX).'.}.}.{.'.}.}.=X>X-XaX:X_.R.dXAXGXKXLXPXLXkX/.",
"..o....._ ....+...+.:.+ ; % @ 1 r 7 0 7 7 8 w 0 r w 8 &.&.r e q e e r t r w t ) eX}.[.}.}.}.|.}.;X3X7X7X,X_.ZXGX0XZXKXFXUXPXPXsX",
"O.O...........) } S.:.+ 6 . + # 7 7 6 @ 7 6 7 &.*.r 7 e r r e q e r r r w w 8 2 eX}.}.}.}.}.|.;X>X3X4XtX#XkXDX;XY.:XjXHXLXIXPXIX",
"' ..:.:.O...O.' R./.X.; 6 $ . $ 6 6 $ $ # 7 8 &.w =.*.r *.&.&.0 w r r e 0 r 7 : 0X|.}.}.}.}.=X=X>X3X3X4XeXGX).Y.Y.%X8XwXlXLXPXPX",
"oX$.' ' ....+...' ] ! < 6 ; . $ 4 # @ @ # < 6 e k ^ =.9 =.&.&.q 9 7 q 0 7 e 0 ; qX}..X.X}.=X=X=X;X>XeX4XyXZX$X&X).~.].-X;XZXLXLX",
"} ' ..:.o._ _  ._ ) V $ 4 6 . $ ; $ $ . @ $ 6 7 9 ^ 1 -.k w q k k 8 8 0 $ t 6 ; oX X.X.X}.}.}.=X=X=XyX4XyXlX;X).~.I.].Y.&XjXJXDX",
"' ` ' ' O..... ._ ! ! $ $ 4 $ # $ @ @ . @ $ $ 4 9 k * r.j < w k -.; 8 9 9 < < ; Q  X). X}.}.}.}.&X>X[.tX;XZXDXeX^.}.P.#XyXlXlX+X",
"O.) ' ) ..' X. ._ ! ~ = % 4 # $ @ . . . @ $ @ @ k j k u j -.1 h s.h * k -.& # ; M OX). X.X}.}.}.}.>X7X}.=X0XJXDXHXlXlXDXsXO.oX_ ",
"' _ _ _ X. . ._  ._ ' > % # $ + X X X . $ @ o . 3 ( l j f.f.3 j 7.u.j u t.( 8 < 2 oXE.Q..X}.}.}.}.|.>X[.%XU.kXLXKXkXIXJX+XR.[ O.",
") Q O.! ! !  .X.X.X...B O @ $ O       . $   O + j / ( l ( j r.( a.y.t.( s.4.3 1 3 t.%._.Q.~.~.}.}.;X%X-X&X}.).OX/.qXkXsX| [ T.R.",
"oX_ :.! X._ ! ! ! ! X.~ + % @ O       . @   h j r.9.s.r.( ( z 6.y.2.( j * u ^ * l 2.p $XQ.~.}.>X>X>X-X,XwX X{.L.b.D.T.B.B.I S.T.",
") ' _ X. . .! ! ! ! B X.O . . X     X @ X o ^ r.k.a.r./ 7.D y y.2.s s ( r.t.4.( y.6.s E.Q.~. X~.}.J.}.].~.~.I.c.K.K.Z.D.S.B.I B.",
"_ m ..Q .. . .~ ! B B X.O . .   X   . & o ^ y ( D u y s d D g 8.F d d 3 o 3 g 5.u.5.G E.Q.~. X~.^.J.J.I.=X}.~.(.!.D.x.N.C.B.] | ",
"..+.X. .X. . .X.B B n ~ O % %   X   * ^ * 7.a y d y.6./ / f 9.e.3./ l o & r.cXh.j.5.%.T.(.(.}.}.I.J. X}.}.L.~. X}.;X}.I.P.b.F.F.",
"' _ _ o..._  .B ! ! A ^ h o +   X + s ( / 3.2.t.t.j j d f 3.y.cX9.u.y.f.s.u.i.xXj.q.%./.(.!.~.}.~.(.W.W.J.}.P.J.P.P.P.I.U.I.J.J.",
"O.) o.' _ _ n M m x S d f l o . % 3 2.6.6.3.f * & * -.r.y.3.h.mXh.9.h.y.a.h.xXnXxXq.P T./.~.~. XW.T.[ T.W.K.P.}.}.I.}.P.P.}.^.P.",
".. .;.oX+.Q m Q c > ^ s 1.f a . @ 3 3.0.e.y.t.s.d.k.a.6.u.9.cXmXmXg.h.cXcXxXnXnXxXq.L (.(.~.~.).W.I L T.W.J.~. X}.}.I.}.I.Y.I.~.",
") +.X.;.;.O.! _ > n i s >.5.a 3 & 3 2.e.w.g.j.h.h.i.i.h.k.j.vXSXSXvXg.vXnXmXmXnXxXq.#.T.(.~.~.~.!.N.{ W.J.J.P.~.}.^.^.I.P.H.P.P.",
"!.R.oX..X.! ! _ m ) S D f >.f s p & / 8.8.g.xXvXvXk.vXMXk.j.vXmXSXSXh.j.nXNXNXxXg.q.{ W.W.!.~.I.}.~. X XI.I.~.~.}.}.U.&X}.U.P.J.",
"_.D.'  . .! ! B } T ] C 2.3.e.>.3.u d 3.e.l.g.xXnXnXmXmXMXg.g.vXSXSXbXh.h.vXvXxXw.W D.K.!.!.).~.~.~.}.}.U.}.}.U.>X;X X^.~.I.P.J.",
"P.!.} A _ Q ! Q } C.I C p 4.3.1.g p p / 0.w.g.xXnXnXNXmXh.g.i.h.SXSXmXmXcXvXg.g.q.W D.N.!.!.!.~.~.^.&XI.}.I.Y.L.;XL.~.I.P.L.H.K.",
"L.^.!.+.) Q Q Q [ C.C.H : ^ g e.5.p p f 3.8.w.xXBXnXmXvXh.g.mXbXa.cXy.9.cXh.9.e.G #.S.Z.!.W.J.~.~.^.}.}.^.^.I.P.P.}.Z.L.J.J.L.P.",
"Z.I.!.!.E.R.O.) O.D.Z.L c , p <.3.d u s F 5.w.g.j.xXMXbXbX6.y.u.2.3.a.s.a.y.6.5.G #.C.F.J.~.~.~.~.~.^.^.^.^.}.^.}.L.~.I.P.Z.J.J.",
"A.~.J.^.A._.P b $.T.Z.T T b > , d a & a g <.8.w.g.j.xXMXk.cXa.a.a.u.y.s.y.6./ 4.S B.F.P.!.~.).!.P.P.I.^.~.~. X}.~.^.J.A.~.~.A.Z.",
"Z.J. Xv.&X`./.[ | S.!.A.n.R b x = O O u s f <.8.0.w.g.h.h.h.p.u.p.u.k.6.7.z 7.G C | C.F.J.J.!.~.~.~.^.J.I.^.}.~.^.~.P.P.P.H.P.P.",
"J.!.J.A.P.!._.F.F.T F.b.b.R R b x - = : p g F <.1.8.9.5.6.6.6.s.7.f z y f.r./ S Z T N.Z.D.J.J.A.K.L.P.}.J.~.T (.F.J.x.(.(.F.W.F.",
"~.~.A.P.P.P.J.;Xv.b.C.b.Y.U Y Z v x x , , p D <.1.5.5.2.d d d y r.,.u.p.3.6.G C Z N.B.D.A.J.J.A.K.L.~.I.}.).W.F.A.~.C.!.(.C.T.D.",
").J.P.A.P.I.L.L.L.H.U v.L.A.E P b b x v A i p D F 3.5.2.2.f 7.d.k.k.y.,.9.4.G v H B.S.F.F.J.J.J.P.I.P.P.P.~.~.J.~.P.A.J.(.W.F.D.",
").P.~.;X^.c.U.I.L.I.b.b.A.A.v.U R P b H Z x , i d f F F 4.q.4.g f s g 6.9.4.C b L N.S.F.J.P.!.J.J.L.I.L.~.T P.~.}.P.J.A.!.(.(.D.",
"!.F.J.J.P.;XI.A.L.Z.b.^.U P.n.K R Y J R J b v > , p D F F F 4.<.2.5.6.e.e.%.C H T C.D.F.W.J.J.J.L.P.P.H.;XP.~.~.J.~.P.~.J.!.F.S.",
"W.F.J.~.~.H.L.b.Z.Z.A.U A.A.Z.L.A.J K J U H b c , : , p F 2.3.8.8.0.5.5.q.i v H { C.D.J.J.H.J.~.).J.}.J.H.P.P.~.P.H.~.A.D.!.W.D.",
"S.F.(.(.J.I.Y.L.v.v.v.b.H.b.n.L.n.n.n.n.K J J Z m v - , u / / 4.4.<.G S i , > c m I S.F.K.J.J.D.N.S.F.J.~.}.~.^.!.J.x.Z.Z.~.D.D.",
"T.I F.!.P.L.Z.x.J.c.].n.Y.m.L.c.n.N U v.x.x.R J b b v - > : , i , , + = > - c m ) L L | { T.W.(.F.S.J.J.K.J.~.}.!.J.Z.F.Z.N.S.S.",
"S.S./.(.P.J.Y F.v.U ].%Xz.L.H.U.v.H.R b.H.K U b.R R b v c - = O = + 2 = n c c Q ) ) R.} [ { | I T S.!.D.D.J.~.J.D.W.R F.C.N.N.D.",
"Y Y C.P.Z.J.F.S.W.K L.Y.z.n.L.L.v.n.R n.z.m.R b.R K K T H b v b > c x b b c ) A ` L } ) | T.T.D.N.F.J.Z.D.F.Z.J.F.D.Z.D.C.C.S.S.",
"F.J.Z.H.H.Z.{ D.Y v.Z.b.K b.m.Y.L.U.z.M.z.M.b.L.m.n.K K R J J T H H H J H @.L @.[ [ @.[ | W.D.D.F.D.C.x.Z.J.J.J.(.W.F.C.C.S.N.S.",
"H.C.T L A c c x A ` v.z.XXz.L.b.b.b.H.P.~.~.J.Z.b.n.z.K K K K H N U R J Y [ A L L [ S.S.D.C.C.C.C.C.N.C.Z.D.Z.Z.Y (.D.N.Y I N.N.",
"T H [ m - m m > m Q L ~.n.U v.D.b.m.n.v.F.W.F.v.n.m.m.Y.K U c.U J.J.^.N.{ T.} } +.{ S.C.J.D.C.F.N.W.C.Z.D.Z.Z.Z.S.(.D.N.{ S.N.I ",
"L ] ' Q n M m m n n L T.C.R Z.D.F.Y.Y.z.N.T v.Z.L.^.L.^.J U H.v.Y T { F.).F.L { T T Y S.!.Z.D.N.N.D.x.C.C.C.C.C.T.N.S.{ N.{ T H ",
"L ' A n m m M m m m L S.U n.n.U C.Y.m.K F.Y U ^.Z.b.~.0X{ A.c.x.H [ H Y C.Z.C.F.S.Y Z.F.J.K.F.J.J.D.C.D.b.Z.x.x.T S.C.{ N.S.| B.",
"n Q m Q - n n 2 n v T x.v.v.U m.b.n.Y U L.J b.b.K v.J.S.sXA.n.x.[ H H Y ~.J.Z.Z.P.~.J.F.D.Z.Z.Z.C.x.C.v.C.N.x.x.S.{ { S.S.| I I ",
"n Q n n m > M M m b Y F.P G.U U n.).P C.m.n.Z.A.b.Z.D.OXR.G.c.C.I B.S.C.A.Z.C.L.v.x.Z.C.Z.Z.Z.C.N.x.C.x.v.x.x.N.| { T H T L I [ ",
"c Q c n M n 2 M A P b.U v.O.T n.Y.#X!.`.#.P G.U E E Y H.Z.U U Y [ I Y A.n.m.b.Z.Z.Z.N.N.N.x.Y N.N.N.{ T S.B.{ { V.T Y I I H [ I "
};
