/* XPM */
static char *D1BBE728D44F3FE9CF6D7440C541273C0B9422501718380407[] = {
/* columns rows colors chars-per-pixel */
"64 64 224 2 ",
"   c #0C0605",
".  c #08070B",
"X  c #0C0A0D",
"o  c #0C0806",
"O  c #130A05",
"+  c #130E0D",
"@  c #1A0D0B",
"#  c #150707",
"$  c #15110E",
"%  c #1B110D",
"&  c #0E0D12",
"*  c #110F12",
"=  c #0F1219",
"-  c #131214",
";  c #1B1514",
":  c #15141B",
">  c #19171C",
",  c #16181D",
"<  c #1C191D",
"1  c #1D1916",
"2  c #26140D",
"3  c #221612",
"4  c #241914",
"5  c #2C1C14",
"6  c #231C1C",
"7  c #291D1A",
"8  c #2A1711",
"9  c #311E17",
"0  c #25201E",
"q  c #2B211D",
"w  c #35241B",
"e  c #151723",
"r  c #1A1723",
"t  c #161924",
"y  c #1A1A24",
"u  c #151B2B",
"i  c #1B1D2B",
"p  c #1B1E31",
"a  c #221D22",
"s  c #1D222D",
"d  c #1F2024",
"f  c #1D2333",
"g  c #1F2936",
"h  c #252224",
"j  c #2C2423",
"k  c #23242C",
"l  c #29272A",
"z  c #24282F",
"x  c #2C292B",
"c  c #332623",
"v  c #332A27",
"b  c #3B2C23",
"n  c #342C2C",
"m  c #3C2E2A",
"M  c #3A312D",
"N  c #222632",
"B  c #232A35",
"V  c #2A2C34",
"C  c #252D39",
"Z  c #292E3A",
"A  c #292631",
"S  c #352F33",
"D  c #25323A",
"F  c #2C323D",
"G  c #273136",
"H  c #343132",
"J  c #3C3432",
"K  c #32333D",
"L  c #3C3737",
"P  c #412A1F",
"I  c #432F26",
"U  c #44332C",
"Y  c #4C352B",
"T  c #4D372B",
"R  c #433733",
"E  c #443936",
"W  c #4A3B34",
"Q  c #443C3A",
"!  c #4B3E3B",
"~  c #483734",
"^  c #513D35",
"/  c #4C423D",
"(  c #45413E",
")  c #54433B",
"_  c #5C453C",
"`  c #58463C",
"'  c #2D3640",
"]  c #2E3841",
"[  c #333641",
"{  c #343944",
"}  c #3A3E4A",
"|  c #3A3B46",
" . c #413C43",
".. c #3D414D",
"X. c #3C4250",
"o. c #4D4342",
"O. c #4B4647",
"+. c #534643",
"@. c #5A4741",
"#. c #544945",
"$. c #5B4B45",
"%. c #544A4A",
"&. c #5B4D4A",
"*. c #534648",
"=. c #5E524C",
"-. c #5E5047",
";. c #544D52",
":. c #5C5253",
">. c #595259",
",. c #484952",
"<. c #644E49",
"1. c #63534C",
"2. c #6A554C",
"3. c #6A564A",
"4. c #725B4E",
"5. c #635553",
"6. c #695652",
"7. c #655A55",
"8. c #6B5B54",
"9. c #655B5A",
"0. c #6B5D5A",
"q. c #60575A",
"w. c #725C54",
"e. c #745E59",
"r. c #7A5F56",
"t. c #6D615C",
"y. c #74635C",
"u. c #7A655C",
"i. c #79655A",
"p. c #655C61",
"a. c #6D6362",
"s. c #736562",
"d. c #746965",
"f. c #7C6B64",
"g. c #7B6D69",
"h. c #776965",
"j. c #7E716D",
"k. c #7F7166",
"l. c #82695E",
"z. c #836D64",
"x. c #836E6A",
"c. c #886D63",
"v. c #857166",
"b. c #85736B",
"n. c #8B756B",
"m. c #8B796F",
"M. c #8A7367",
"N. c #92766C",
"B. c #927A6E",
"V. c #997C6D",
"C. c #837573",
"Z. c #8A7771",
"A. c #8D7B73",
"S. c #8B7B76",
"D. c #947C73",
"F. c #9A7E73",
"G. c #937E7B",
"H. c #957B75",
"J. c #968175",
"K. c #9C8275",
"L. c #94847A",
"P. c #9C847B",
"I. c #9C897D",
"U. c #A18376",
"Y. c #A2857A",
"T. c #A4897D",
"R. c #AA8C7E",
"E. c #A8877E",
"W. c #9D8B82",
"Q. c #998681",
"!. c #9E918B",
"~. c #A48C83",
"^. c #AA8D82",
"/. c #A98F89",
"(. c #A28C88",
"). c #A59184",
"_. c #AC9184",
"`. c #A6938B",
"'. c #AD958B",
"]. c #AD998D",
"[. c #B19485",
"{. c #B2968A",
"}. c #B39A8C",
"|. c #BA9D8E",
" X c #B6988B",
".X c #AE9691",
"XX c #AA9A93",
"oX c #B49C93",
"OX c #BB9E92",
"+X c #B69A95",
"@X c #BCA295",
"#X c #BDA49B",
"$X c #BAA699",
"%X c #BBA7A1",
"&X c #C1A495",
"*X c #C2A69A",
"=X c #C4A99D",
"-X c #C9AB9C",
";X c #C3A897",
":X c #C4ACA2",
">X c #CAAEA3",
",X c #C5B1A4",
"<X c #CCB2A5",
"1X c #CDB4AA",
"2X c #CDB9AC",
"3X c #C6B2AC",
"4X c #D1B6AB",
"5X c #D3B9AE",
"6X c #D1B5A5",
"7X c #CFB8B0",
"8X c #D4BCB3",
"9X c #D9BEB2",
"0X c #D6BAB4",
"qX c #DBC1B6",
"wX c #D7C2B9",
"eX c #DCC4BB",
"rX c #DAC4BA",
"tX c #E1C7BB",
"yX c #DEC9C1",
"uX c #DEC7C1",
"iX c #E3CBC3",
"pX c #E9CEC5",
"aX c #ECD1C9",
"sX c #F2D7CF",
/* pixels */
"t y t u t t t , , X L f.f.J.T.R.].oX$X,XqXwXtXyXyXyXyXyXeX1X1X0X:X%X%X,X,X,X-X;X[.^.Y.V.n.x.u.&.E 0 6 ; h , , , , t e e t y y t ",
"t u y t t t , , , : O.g.v.J.T._.].@X%X2XwXwXyXiXaXyXyXyX9X1X>X>X:X:X$X#X-X-X;X@X/.T.Y.F.n.M.f.1.R 0 0 1 h 1 , , t t e e y e t y ",
"r u t u t t e , - 0 :.g.m.J.R._.{.@X=X3XqXwXrXtXuX8XwX7X5X>X:X<X>X,X,X,X:X-X;XOX[.E.P.F.n.z.u.8.R 0 h 6 l d , , , , t u r t r t ",
"y y r t t e e , - H t.k.m.J.R.].}.$X=X>X%XqXwXrXuXwX7X2X8X5X4X8X3X1X<X,X<X>X=X;X X^.T.Y.N.z.u.8.R 0 h 6 x < > , t t t t t r t r ",
"y y i u r r r , *  .h.h.m.V._.[.&X*X-X>X3X2XwXuXyXwX7X8X8X7X1X2X2X2X6X1X>X>X-X&X|.[._.T.J.M.i.3.E 0 0 1 k a , , e t e t r t r t ",
"u r r r r e r : - ;.h.g.m.V.^. X&X*X-X>X>X2XwXeXwXwXwX7X2X3X:X,X2XqX5X1X<X-X;X|.}.[._.T.V.n.i.<.J 6 0 6 l < , , e t t t t r t r ",
"r r i i r e y r : :.s.x.D.K.R. XOX&X*X>X6X8XrXuXyXyXwXwX2X2X2X5XrXrXqX4X6X6X;XOX_._._.U.m.M.t.) v 1 0 h x < : , e e t e t r y t ",
"r r r r r r e r : q.a.b.D.U.E. XOX&X=X6X4X9XeXiXiXyXwX3X:X%X1XqXeXeX9X4X4X>X;X X[.{.[.I.m.n.w.~ 6 ; v x H d : , e e t t r r u r ",
"r i y y y y , , - :.g.h.H.Y.Y.{.|.;X;X-X5XqXeXiXpXiX9X1X>X>X0X0XqXtXeX6X5X,X@X@X@X[.'.J.M.u.$.U 0 O 0 H , = < , y t t t y y t u ",
"r a y u e y t , > ;.h.f.H.F.F.[.|.|.-X-X<X<XqXeXuXiXuX1X:X4X9X9XqXrXqX6X<X#X@X@X].K.J.u.y.4.) Y v $ < v < - < , t t t t y y y y ",
"i r i y y t t , > ;.s.h.N.U.E.^.R.|.;X;X-X<X5XrX8X0XqX0X5XqXtXqXeXqX2X,X<X=X@X}.J.m.z.i.i.<.~ / R ; ; h 1 : , : t d t t y u y y ",
"a i y t y t t , 6 ;.d.h.n.F.F.R.R.|.|.;X$X;X#X#X>X3X>X>X0XqX9X4X1X:X$X@X#X@X`.P.M.u.k.k.8.) U ) / 6 $ 1 , - , , y , u e r r y y ",
"u r u r t t t , , O.d.f.b.V.Y.^.R.R.&X;X#X@X@XoX$X#X:X=X4X0X4X-X+X+X+X.X~.H.M.y.3.1.-.-.` U ~ ` ( 0 o ; ; : , , y e u t y t y y ",
"r i r i t d t = = O.t.d.x.D.Y.R.U.U.R.U.P.J.B.V.D.~.+X*X>X>X-XOX'.(.Q.n.2.) W Y b b b R ( / #.E J 0 $ $ - , , ; e t r r y y y y ",
"i r u r t t t , = L 9.d.v.J.Y.Y.K.K.J.l.4.3.3.<.r.c.P.^. X*XOX[.F.e.<.~ c 9 w b / ) ` #.) =.:.n 0 1 - $ : , , : t t r t u y u r ",
"u u u u t t , , - J =.y.b.J.T.K.V.J.K.M.l.l.N.P.Y.F.N.N.^.&X>X&XQ.^ 8 9 b U $.1.J.L.L.k.) $.9.q 4 ; ; - ; > , , t y u t r y y r ",
"u u u u , d k a 1 3 $.h.u.A.J.J.M.T.M.i.}.,XT.J.c.F.E.F.+X4XqX6X).b w 4 m #.0.XX3X:X`.L.C.! &.l ; - - - : : : : e r y y r r r e ",
"p u u u t K ;.t.o.Q =.t.u.J.I.J.).3.4.[.I.y.e.4.w.l.H.~. X>XtXtXm.M w o v g.Q.XXu.I ^ ^ 1.! l 6 < 1 - - : > e r r y r u r r r r ",
"p u u u s H ,.>.a.a.0.0.f.m.L.J.n.i.J.l._ Y I <.l.c./.0X0X5X9X5X`.b 5 4 m =.C.%XQ.2.3.I 5 ! v a h > - - : : , r t r t r y r r r ",
"u u p u t k V l %.a.e.y.f.v.J.I.n.R.i.i.K.M.V././.F.OXqX9X0X9X6XM.q 8 q $.S.%XuX2XP.2.2.@.&.E @ 6 1 > 1 , : : e r t r t y r r r ",
"u u p e s K L L n &.5.e.b.b.P.~.}.Y.'.'.+X#X~.~.~.F.OX0X4X4X9X=XJ.b P ) b.%X3XXX}. XP./.A.S.p.v ; 6 h h < , , y e u r t y r y r ",
"p p p r y [ ,.;.E *.&.w.b.H.F.~.B.].$X=X@XoX$XD.N.~.>X0X5X9X9X*XJ.5 w t.W.+X%X#X+X{.E.F.W.+X8.3 o 0 J k , : , r e e e r y r i a ",
"p u p i y N  .;.:.*.&.6.x.H.N.F.R.I.R.T._.Y.l.M.|.:X5X1X>X9XtX5XK.T ` i.H.W.+XOX[.U. X}./.Z.c 7 % x ( l ; : , , e e e t i r r r ",
"p u p p r y | >.q. .&.6.f.D.N.~.I.{.'.{.'.^._.OX>X5X5X1X5XtX9X:XK.P T y.n.Z.Q.Y.^.^.[.E.D.6.2 @ 0 o.O.H : , y , t e r u y r r i ",
"p p p p a r p  .p. .<.<.e.H.H.Y.T.[.|.|.|.&X;X6XqX6X6X;X0XaX9X=XT.T 9 ) l.M.R.Y.U.R.F.c.l.3.+.0.d.a.%.x > : , d y t e t y u r r ",
"p p p p p r r A >.>. .&.e.b.H.~.T.R.[.}.|.&X-X6X6X6X<X<X9XpX0X*XR.` b T 4.J.B._./.R.V.F.^.Y.S.Q.j.9.L > - , , e u e e u u i i i ",
"p p p p p p i r  .s.<. .y.z.H.^.T.T.^.[.|.;X-X6X6X>X>X4XiXpX7X:X[.M.) 9 U b.H.T.^.Y.N.N.~.~.Z.g.a.O.6 + ; > > < e e t y r i i i ",
"A p p p p p p p A  .>.6.6.e.N.F.E.R.R._.|.;X-X6X4X@X-XqXpXpX7X:X$XI.T 2 2 ` W.T.E.R.V.l.r.e.&.R M 0 @ * 1 : > y e e u r p i i i ",
"p f p p p f p p p  .q.0.<.e.n.H.U.R.R.[.|.-X-X6X;X|.,XqXsXaX0X3X,XI.T 8 w w f.}.T.T.F.i.` U c v v 6 % ; < > : y e t u i i i p i ",
"p f g p f p p p r r >.0.6.u.x.N.V.U.R.[.|.-X6X6X|.|.6XeXsXsX0X:X$X).-.8 ) I I P.oX_.V.u.^ 2 @ v %.M ; ; < < > r t y i p p i p a ",
"f p p g g p p p A r R <.6.e.c.N.F.U.R.[.|.-X-X&XR.|.6XqXtXaXqX:X$XL.` % m U 8 $.'.}.).n.$.2 @ M :.Q 4 + ; < , r y u a N p p p p ",
"' p p p f f f g p a r  .a.0.x.n.F.U.R.R.|.-X&XR.U.}.,X-X5XeX7X#X].7.3 % O 3 5 5 u.).'.b.` 4 % J o.J 6 - > > , y y i p N p p a p ",
"g s s s f f f f z y l > ;.d.k.b.K.U.R.}.|.;X|.V.F.^.Y..X#X+X%XQ.t.v $ $ 1 $ 1 O b k.oXL.7.0 O 7 x H y ; , : e u s s f s s s s s ",
"s z z s f f f f i s k < L t.k.b.K.K.R.R.[.|.[.K.OX+Xc.l.E.(.H.l.J % o $ $ , 0 $ 5 ` I.I.t.q % @ 6 l , - e : t s s s s s s s s s ",
"z z g g g g g g f s d d j / d.k.B.K.R._.}.[.).R.@X0X{.c.x.6.<.~ 4 O o $ X o $ O % ( d.I.i.w ; o - < : & : : s f s s f f s g f s ",
"z z B B g g g g s N d h < n t.k.M.K.R.R.}.R.R.{.<X2X3X*X/.Z.e.9 % O O $ o o $ $ 0 U -.J.y.w % $ $ : - : : : s k s s f f z s s f ",
"G z g g g g g g N s z y 0 0 t.k.M.J.U.R._.R.).@X1X#X:X2X>X+XG.<.E M j 6 1 $ $ 0 M ` ` t.k.M $ % ; : : : : : z s f g N f N N N N ",
"z G g G D g g g B s V d z 0 =.d.c.V.P.T.~.~._.@X@X#X%X#X%X.XG.x.z.s.1./ ( H v v / -.) / k./ o o $ - - , = , B s f N N N N N B N ",
"G G D G g D D g D s V h x 0 ( d.v.N.K.T.Y.~.'.oX.X{.'./.+X.XG.x.Z.G.C.s.5./ L ( ( ` ` b y.O.o + - - & : : y G z B B B B N A N B ",
"g G D D D D D B B s V z d 0 ] d.f.b.J.I.H.P.'.`.F.n.~.~.G.+X+XH.Q..X!.C.5.m 0 q M ` t.q -.L $ $ - * & , = t Z s N B B B B B B B ",
"G G D D D D D D D B V k l h H 9.f.f.H.J.P.~.H.L.c.u.n.N.H.n.l.x.H.b.6.~ j 8 ; # 8 $.<.W R ( O + - : : = r i B A N C C C C A C A ",
"D D D D D D D ] V B Z z z h h O.s.M.A.D.L.~.J.z._ Y ^ _ <.<.<.e._ ^ ~ I c j 3 # 8 *.6.E / L $ + $ - * : r k C C C C C C C Z A C ",
"D D D D ] D ] D Z G Z V V l d L 7.b.b.A.I.L.J.4.Y w.N.H.E./.+XE./.Q.G.C.h.5.Q c m 1.f.1.t.( ; O & - - & < z Z A C C Z C Z C C C ",
"D D ] D ] ] ] D Z K K z V x d n =.f.z.A.L.I.D.w.n.+X.XF.H./.0X4XE.F.Z.x.s.<. .I @.y.A.m.L.#.; X $ - - - r V Z A Z C Z Z Z Z Z C ",
"F ] ..F ] D D F K K F V F H d H =.1.i.J.L.~.A.n.'.oX_.{.+X.X*XOX#X+X(.G.s.*.~ R @.y.b.L.`.:.; o - : X = a Z ' Z Z Z C ' Z Z Z Z ",
"..D D F ] ....] Z K K Z K G d x 7.-.y.M.J.I.B.I./.^.~.~.E./.{.+X/.G.Z.g.6. .E ~ ! y.f.A.!.5.0 ; $ - & : r A Z ' ' Z Z A [ Z Z [ ",
"D ] D ] { F F F K K K G H z , h 7.=.8.k.J.J.J.).^./..XE.U.E.E./.F.H.x.e.<.~ E ^ ) z.b.f.L.%.M 6 $ & - : r r p [ C Z ' ' Z ' [ Z ",
"] ....F ....F ..| K K V k , & z 7.7.=.d.m.J.I.I.^.H.P.E.E.E.F.E.E.N.c.e.<.^ ^ &.$.A.A.1.s.E n ; $ & - - = & r Z C ' ' Z ' [ Z [ ",
"..] ] ] } } | | [ Z k y y r < > =.t.t.t.m.J.I.I.).`.I.K.F.^.F.E.N.H.c.N.w.2.6.6.7.J.g.#./ ( 0 ; X X ; : = = : : K Z F F F [ [ F ",
"X...] ..} ..[ F A a y < < < , 1 #.t.t.y.J.L.I.I.I.).T.T.^.[.OXOX{./.F.H.r.w.e.y.j.j.t.#.#.L 6 $ X ; * - * * * : y V [ [ K F ' K ",
"{ { X.X...F N y y y r y r e r < / 6.7.u.j.L.J.I.).].R.).{.OX#X#XOX|.(./.A.b.Z.x.j.8.#.( L 0 $ $ + * - * = * & : * a [ | [ K [ [ ",
"{ ......V s t e t y y y r , < 6 o.5.1.t.d.J.C.I.`.).].|.+X+X+X/.~.(.~./.G.Z.S.C.k.%.( L j % $ ; * * - * * * & - & e s Z K { { { ",
"X.X.F f e e y s r y r e ; : : > / 5.1.8.y.m.m.I.I.I.`.XX`.'..X(.~.G.H.Z.g.s.g.s.d.Q v h , 1 ; X & + * X & & * & = = = d V F { { ",
"{ G s t t s u e r y > : & : < < R =.8.8.y.f.f.m.I.!.`.`.W.(.(.!.Q.G.C.x.h.5.5.*.%.H 6 ; & X & . & & & X X & & & * & = = e d G K ",
"s t t t s s e : e < r : : > y a 6 ` t.6.y.y.s.u.m.I.!.L.G.G.G.G.C.C.x.g.d.&.%.L Q x h : X X & = X + X X & X & & & & & = & = y k ",
"t u s t e e y d , e > : * > r 6 $ W 8.-.8.0.y.e.t.b.L.C.C.C.j.C.C.h.p.p.7. .o.n n 1 X . X X & . * X X X X & & & & & & = : : & = ",
"d u t i d d y y r : * : r > 6 > 3 c o.7.0.8.0.f.+.&.s.C.j.a.0.a.p.q.%. .W S v a * & . X & - & . X X X X X & & X & & & & & & : & ",
"u t i y t s y < , : * : > r r 6 6 % q &.s.8.6.s.&.<.&.=.&.O.%.:.o.Q m a 6 < > ; ; X X X X & & X X X X X & X X & & & & & & : & : ",
"s y y i s y y r = & * > > a 6 > 6 ; 6 v *.8.0.q.0.8.%.R j 6 1 ; a ; * X   + * * X X . X X & & X & X & . X & X X & & & & & & - & ",
"s y i i d y r r * * : r a a > > + h a 1 q %.0.5.0.5.o.c ; @ o       X X + + * * . X X . . . . & & X . . & X & X X X & & & : & - ",
"i i d y i y r > * : r a a a a r : > 1 < a c  .0.0.5.R ;   o $ X o X & * * + X X X X X X . X & & . & . . X X X X X X X X * - - - ",
"s y d s a y y r : : a A a a > a < > > h a a c ! q.5.! 7 % $ % O - $ & $ X * - - X X X X X X X & & . . & & . X X X X X * - - ; - ",
"i s t s r y r : : : a a a a a a r y a a a a 7 6 U  .*.! L L M n , ; X X $ - ; - X X . & X X . & . & . . X & X X X X X * - ; > > ",
"s s y y a r r r - : a a a a a a > r r r a 9 7 7 # j R o.( ( ( L a 1 - $ X $ X X + X . . . X . . & . . & X X X X * X & * ; < < > "
};
