/* XPM */
static char *_7752b4063f74907fec02fdd09783d3ezW58XgiSxORaFdkT[] = {
/* columns rows colors chars-per-pixel */
"64 64 237 2 ",
"   c #1B3B0D",
".  c #1B340B",
"X  c #1E3D13",
"o  c #1E3414",
"O  c #1C2C0C",
"+  c #21390E",
"@  c #20370E",
"#  c #292519",
"$  c #342C1F",
"%  c #243C12",
"&  c #293D15",
"*  c #253515",
"=  c #33371C",
"-  c #2E2B22",
";  c #362D25",
":  c #283823",
">  c #3B3323",
",  c #383727",
"<  c #363832",
"1  c #292C31",
"2  c #20291B",
"3  c #4C3B2B",
"4  c #433728",
"5  c #533D2D",
"6  c #593E2D",
"7  c #463C32",
"8  c #4D3A2B",
"9  c #1C410E",
"0  c #1D4313",
"q  c #1E4B13",
"w  c #1D481A",
"e  c #224314",
"r  c #23451A",
"t  c #25491C",
"y  c #2A4619",
"u  c #24521A",
"i  c #33481E",
"p  c #254B24",
"a  c #2A4B23",
"s  c #264524",
"d  c #334B23",
"f  c #384829",
"g  c #2B5527",
"h  c #35552A",
"j  c #364839",
"k  c #375838",
"l  c #2D5032",
"z  c #4B442C",
"x  c #4B4B2D",
"c  c #46452B",
"v  c #53432E",
"b  c #514C2E",
"n  c #59412E",
"m  c #48512E",
"M  c #4D4B32",
"N  c #484536",
"B  c #544433",
"V  c #5A4332",
"C  c #534B34",
"Z  c #5A4C35",
"A  c #56443A",
"S  c #5A463A",
"D  c #554C3B",
"F  c #5B4B3D",
"G  c #4A5536",
"H  c #545334",
"J  c #55533C",
"K  c #5B533C",
"L  c #5D5A3C",
"P  c #5A5736",
"I  c #50512F",
"U  c #634C3C",
"Y  c #664B36",
"T  c #61543C",
"R  c #66593D",
"E  c #70533D",
"W  c #58673D",
"Q  c #666E3A",
"!  c #2B365B",
"~  c #273A74",
"^  c #3C5C4A",
"/  c #374654",
"(  c #3D654D",
")  c #3B4376",
"_  c #4A4B4B",
"`  c #5B4B42",
"'  c #554B47",
"]  c #4B554A",
"[  c #565342",
"{  c #5C5442",
"}  c #5C5A43",
"|  c #5D5B4B",
" . c #56584C",
".. c #495454",
"X. c #52555B",
"o. c #555555",
"O. c #4E4E51",
"+. c #644E42",
"@. c #635444",
"#. c #6A5343",
"$. c #635A44",
"%. c #64544A",
"&. c #635C4B",
"*. c #6B5B4B",
"=. c #6B5748",
"-. c #735B4B",
";. c #685C51",
":. c #725D51",
">. c #714843",
",. c #5C644C",
"<. c #476859",
"1. c #4C6B54",
"2. c #676449",
"3. c #676753",
"4. c #756555",
"5. c #7D7A5E",
"6. c #797458",
"7. c #6F6C51",
"8. c #4D526B",
"9. c #5A6764",
"0. c #4B7768",
"q. c #577466",
"w. c #557876",
"e. c #487474",
"r. c #686768",
"t. c #6A796E",
"y. c #86765F",
"u. c #837E63",
"i. c #837660",
"p. c #55847E",
"a. c #548370",
"s. c #7F815F",
"d. c #858165",
"f. c #898466",
"g. c #8A8669",
"h. c #8D8B6B",
"j. c #868568",
"k. c #928D6D",
"l. c #928D72",
"z. c #9A9575",
"x. c #9B9776",
"c. c #8E8B71",
"v. c #A29D7C",
"b. c #A58D76",
"n. c #A7A17D",
"m. c #16249B",
"M. c #19269C",
"N. c #1A299E",
"B. c #17289E",
"V. c #1E318E",
"C. c #23329A",
"Z. c #273799",
"A. c #283493",
"S. c #1D2CA2",
"D. c #1F31A5",
"F. c #212EA3",
"G. c #2332A6",
"H. c #2535A9",
"J. c #2936AA",
"K. c #2C3AAD",
"L. c #2736A7",
"P. c #303CAE",
"I. c #2E3DB1",
"U. c #323EB1",
"Y. c #5B3E84",
"T. c #3A4596",
"R. c #2E40B2",
"E. c #3342B4",
"W. c #3847B8",
"Q. c #3546A8",
"!. c #555A98",
"~. c #444C87",
"^. c #74548C",
"/. c #577C85",
"(. c #5D619A",
"). c #656797",
"_. c #6C798D",
"`. c #5056A3",
"'. c #6E70A1",
"]. c #558785",
"[. c #5A8A97",
"{. c #558D8E",
"}. c #688385",
"|. c #76848A",
" X c #7A8595",
".X c #769196",
"XX c #688F97",
"oX c #5C97AA",
"OX c #5C8DA4",
"+X c #789BA6",
"@X c #6A98B1",
"#X c #68A3B6",
"$X c #72A4B8",
"%X c #6AA6C6",
"&X c #78A9C9",
"*X c #75B2D7",
"=X c #78B9E7",
"-X c #73BFF5",
";X c #6CB5E1",
":X c #679EC1",
">X c #6EC2FF",
",X c #74C1F4",
"<X c #72C3FF",
"1X c #7AC5FE",
"2X c #7FC8FF",
"3X c #7DC2F5",
"4X c #838896",
"5X c #ABA582",
"6X c #ABA784",
"7X c #B1AB87",
"8X c #92A19C",
"9X c #9FBEDD",
"0X c #86B4D3",
"qX c #A1BDDA",
"wX c #90BEE5",
"eX c #9DC1DF",
"rX c #98C2E8",
"tX c #82C7FD",
"yX c #84C9FE",
"uX c #8BCAFD",
"iX c #87C4F4",
"pX c #9DC6F1",
"aX c #9DC9F4",
"sX c #93CCFC",
"dX c #9DCDFC",
"fX c #94C7F4",
"gX c #9ED0FE",
"hX c #8CC3E9",
"jX c #A7C9E8",
"kX c #B1CEEC",
"lX c #A2CFFB",
"zX c #A5CCF4",
"xX c #ACD4FC",
"cX c #A6D1F9",
"vX c #BCD9F6",
"bX c #B6D6F7",
"nX c #A1C0DD",
/* pixels */
">X>X>X>X>X>X>X>X>X>X>X>X>X>X>X>X>X>X>X>X>X>X>X>X>X>X>X>X>X>X>X>X>X>X>X>X>X>X>X>X>X>X>X>X>X>X>X>X>X>X>X>X>X>X>X>X>X>X>X>X>X>X>X-X",
">X>X>X>X>X>X>X>X>X>X>X>X>X>X>X>X>X>X>X>X>X>X>X>X>X>X>X>X>X>X>X>X>X>X>X>X>X>X>X>X>X>X>X>X>X>X>X>X>X>X>X>X>X>X>X>X>X>X>X>X>X>X>X<X",
">X<X>X<X<X>X<X<X<X<X<X<X<X<X<X<X<X<X<X<X<X<X>X>X<X<X<X<X<X<X<X<X>X>X<X<X<X<X<X<X<X<X<X<X<X<X>X<X<X<X<X<X<X<X<X<X>X>X<X<X>X<X>X<X",
"<X<X>X<X>X>X>X>X>X>X>X>X>X>X>X>X>X>X>X>X>X>X>X>X>X>X>X>X>X>X>X>X>X>X>X>X>X>X>X>X>X>X>X>X>X>X>X>X>X>X>X>X>X>X>X>X>X>X>X>X>X<X<X<X",
"<X<X>X>X>X>X>X>X>X>X>X>X>X>X>X>X>X>X>X>X>X>X>X>X>X>X>X>X>X>X>X>X>X>X>X>X>X>X>X>X>X>X>X>X>X>X>X>X>X>X>X>X>X>X>X>X>X>X>X>X>X>X<X<X",
"<X<X>X<X<X<X<X<X<X<X<X<X<X<X<X<X<X<X>X<X<X<X<X<X<X<X<X<X<X<X>X<X<X<X<X<X<X<X>X>X<X<X>X<X<X<X<X<X<X<X<X<X<X<X>X<X<X<X<X<X<X<X<X<X",
"<X<X<X<X<X<X<X<X<X>X>X>X<X<X<X<X<X<X>X<X<X<X<X<X<X<X<X<X<X>X>X<X<X<X<X<X<X<X>X>X<X<X>X<X<X<X<X<X<X<X<X<X<X>X>X<X<X<X<X<X<X<X<X<X",
"<X<X>X>X>X>X>X>X>X>X>X>X>X>X>X>X>X>X>X>X>X>X>X>X>X>X>X>X>X>X>X>X>X>X>X>X>X>X>X>X>X>X>X>X>X>X>X>X>X>X>X>X>X>X>X>X>X>X>X>X<X<X<X<X",
"<X<X<X<X<X<X<X<X<X<X<X<X<X<X<X<X<X<X<X<X<X<X<X<X<X<X<X<X<X<X<X<X<X<X<X<X<X<X<X<X<X<X<X<X<X<X<X<X<X<X<X<X<X<X<X<X>X>X>X>X<X<X<X<X",
"<X<X<X<X<X<X<X<X<X<X<X<X<X<X<X<X<X<X<X<X<X<X<X<X<X<X<X<X<X<X<X<X<X<X<X<X<X<X<X<X<X<X<X<X<X<X<X<X<X<X<X<X<X<X<X<X<X<X<X2XsXcXbXbX",
"<X<X<X<X<X<X<X<X<X<X<X<X<X<X<X<X<X<X<X<X<X<X<X<X<X<X<X<X<X<X<X<X<X<X<X<X<X<X<X<X<X<X<X<X<X<X<X<X<X<X<X<X<X<X<X<X<X<X<XsXvXvXvXvX",
"<X<X<X<X<X<X<X<X<X<X<X<X<X<X<X<X<X<X<X<X<X<X<X<X<X<X<X<X<X<X<X<X<X<X<X<X<X<X<X<X<X<X<X<X<X<X<X<X<X<X<X<X<X<X<X<X<X<X<XuXvXvXvXvX",
"<X<X<X<X<X<X<X<X<X<X<X<X<X<X<X<X<X<X<X<X<X<X<X<X<X<X<X<X<X<X<X<X<X<X<X<X<X<X<X<X<X<X<X<X<X<X<X<X<X<X<X<X<X<X<X<X<X<X<XuXbXkXjXnX",
"<X<X<X<X<X<X<X<X<X<X<X<X<X<X<X<X<X<X<X<X<X<X<X<X<X<X<X<X<X<X<X<X<X<X<X<X<X<X<X<X<X<X<X<X<X<X<X<X<X<X<X<X<X<X1XuXsXlXxXbXqXqXqXqX",
"<X<X<X<X<X<X<X<X<X<X<X<X<X<X<X<X<X<X;X;X;X,X<X<X<X<X<X<X<X<X<X<X<X<X<X<X<X<X<X<X<X<X<X<X<X<X<X<X<X<X<X2XxXbXvXvXvXvXvXvXkX9X9XqX",
"<X<X<X<X<X<X<X<X<X<X<X<X<X<X<X<X=XoXl g g oX-X<X<X<X<X<X<X<X<X<X<X<X<X<X<X<X<X<X<X<X<X<X<X<X<X<X<X<X<XtXvXvXvXvXvXvXvXvXbXnX9XqX",
"<X<X<X<X<X<X<X<X<X<X<X<X<X<X<X,Xe.g p g t g ].<X<X<X<X<X<X<X<X<X<X<X<X<X<X<X<X<X<X<X<X<X<X<X<X<X<X<X<XtXvXbXbXkXjXjXjXqXqXqX9XqX",
"<X<X<X<X<X<X<X<X<X<X<X<X<X<X<X,X<.p t g t g p.,X<X,X<X<X<X<X<X<X<X<X<X<X<X<X<X<X<X<X<X<X<X<X<X<X<X<X<X<XrXqXqX9X9X9X9X9X9X9X9XqX",
"<X<X<X<X<X<X<X<X<X<X<X<X<X<X<X-X0.a t a a u k ^ <.oX<X<X<X<X<X<X<X<X<X<X<X<X<X<X<X1X<X<X<X<X<X<X<X<X<X<X1XrX9XeXrX9XrXhXiXiX3X3X",
"<X<X<X<X<X<X<X<X<X<X<X<X<X<X<X-Xw.l s : s k k l a p.,X-X;X:XoX/.$X,X<X<X<X,X#XoX].OX;X<X<X<X<X<X<X<X<X<X<X3XiX3X<X<X<X<X<X<X<X1X",
"1X<X<X<X<X<X<X<X<X<X<X<X<X<X<X<X,XOXj : l 1.l h t g {./.[ { { F { t.XX$X,X%X<.a g <.#XsXdXcXxXxXuX<X<X<X<X<X<X<X<X<X<X<X<X<X<X1X",
"1X1X<X<X<X<X<X<X<X<X<X<X<X<X1X1X-X-X%X< e.k l a t a k { { J *.K A =.2.*.}.[.h a t g ^ +XxXbXxXbXzXuX<X<X<X<X<X<X<X<X<X<X<X<X<X1X",
"1X<X<X<X<X<X<X<X<X<X<X<X<X1X,X%Xe.0.[.< ^ s s : : f } J { ` +.+.{ $.L $.h t r r r u g a.jXxXzXeXjXfX1X1X<X<X<X<X1X<X<X1X<X<X<X1X",
"1X1X1X1X1X1X1X1X1X1X1X1X<X1X{.k  .N < < < < j < N { { { J { { @.%.+.#.J a t r r r r k XXrXrX.X( w.*X1X1X1X1X1X1X1X1X2XyXuXsXsXdX",
"1X1X1X1X1X1X1X1X1X1X1X1X<X1X0.k D N 7 < < < N J } [ J J J $.{ &.$.$.@.J { , : - : s ^ 0XiX&X1.l p {.3XuXuXsXdXlXcXxXxXxXxXxXxXxX",
"1X1X1X1X1X1X1X1X1X1X1X1X1X1Xw.$.{ D N N N N D { F A F ` @.{ $.{ $.D $.@.*.D N ; %.,.*XuX@X( l p p p .XxXxXxXxXxXxXxXxXxXxXcXzXzX",
"2X1X1X1X1X1X1X1X1X1X1X1X1X1X@X{ $.{ { *.[ J S ` S F F S S A $.$.} $.} $.J $.A ; 2.3..XjX+X^ l p p p }.cXlXlXzXzXzXzXpXpXpXpXpXpX",
"uXtX1X1X1X1X1X1X1X1X1X1X1X=X3.@.` { { ` { F F A F S A A F S A @.Z $.{ @.$.{ J N %.3.3.|.8Xw.^ j <./.0XaXaXaXaXaXaXaXaXaXaXpXaXpX",
"lXlXdXsXyX2X2X2X2X1X1X2X2X_.=.=.` ` { [ ` S ` ` F ' ' ' S S S F @.J @.D $.K $.J { 3.&.| ,.0XwX8.@XfXaXaXaXaXaXaXaXaXaXaXaXaXaXaX",
"dXdXlXlXdX2X2X2X2X2X2X2X3Xr.#.{ { ` ` F A ` X.X.` O.X.O.' A A S U S #.F L L H $.F 2.3.| ,. . ./ @XsXdXdXdXdXdXdXdXdXdXdXdXdXdXaX",
"$XdXdXdXsXtXtX2X2XtXtX2X=X` =.+.%.` ` F ` o.X.X.X.X.X.X.O.' A S T P $.J F +.S +.F #.*.2. .3.3.[ _.dXgXgXgXgXdXdXdXdXdXdXdXdXdXdX",
"}.0XdXdXiX#X{.%X=XtXtXtX=XF =.` &.o.` ' ' X. .} X.X.X.X.X.X.S F S F P L Z @.J #.F -.:.:.{ :.| &.[ .XrXdXdXdXdXdXdXdXdXdXdXdXgXdX",
"}.+XyXtX*X].].].].#XtXtXXXF #.A F &.X.X.X.o.' F [ o.X.X.X.X.X.X.' V F U S F U #.S -.*.=.+.*.| *.| [ }.=XtXtXyXtXtXtXtXtXtXyXyXtX",
"|. X+XwX%X].p.p.].XXyX*X[ X.r.o.F F | X.X.D S F U o.X.X.8.) ...._ B A U S U +.L } :.-.*.=.=.%.$.$.[ &.t.*XyXyXyXyXyXyXyXyXiX*X%X",
"4X4X X0X[.].].p.p.{.#X9.A X.| G M M J D A S S S F | X.X.T.~ a r i h C Z P H R F %.4.-.*.%.%.%.{ $.%.[ 4.r.$X*XiXyXyXyXyXyX$X0.p ",
"q.|. X.XXX}.}./.p.].q.F F X.S f t t d C F S O. .A F ;.X.) ~ s % e h N A U V #.Z @.r.-.-.#.J G M H Z M z G G 1.OX*XuXuXuXuX[.s s ",
"g q.|. X X_.|./.].q.F ` ' X.M y y y i C F F J | ' F %.] / / r % % t k M U C U A =.r.:.-.P d y y f d i y e d J k #XuXuXiXw.p w w ",
"q u k q._. X4X}./.q.` D ..j r r % t r d m F F %.O.S { f e X X e e X r y x Z #.S #.r.;.:.$.& & & y i & & * % h ,.XXsXsXhXk w w r ",
"0 0 u g 1.}.|.|.&X XJ ' ] l r 0 e r X t d H P |  .A S S o 0 0 % e e e t N S T L *.r.9. .M i & y * y % * & % % m }.hXsX0Xk w 0 w ",
"e q u g h 0. X_.&X3.F ' _ f r e X r X t d c #.A { O.A %.! 2 o * * o & d D H K K &.| i * + % * @ + % + * % % + e G p./.<.r 0 q 0 ",
"  9 u q u g w.t.9.[ J J ] ] G f ; > - , z K L T K T A ~.Z.! - - - - ; 4 C Y B C F B z % + + + & % O @ * + % % % f ,.k k e e 0 X ",
"0 q q q q u h G R Q } J J J D N ; ; , c C L J R L L _ Q.~ 1 $ # $ , , N C K C C T A N * * * * o o O o * * & * & d J % % % ] f - ",
"o * X q q u m A { T K L J D A 7 ; ; 4 3 F { J $.J L ~.Z.! # ; > , , , H H H H P K H M K M x $ # C b H > # M L L f e 0       9 9 ",
"- ; ; , , M D D F A D $.A A 7 ; ; ; 4 3 A C F T A 8.Z.Z.Z.~ N z c x z L 2.T K K P D K T Z x $ # 3 z B , # C R $.d X   X e   9   ",
"f , m m m G G W W J $.D D N 7 7 c c C C C C A _ ) Z.G.C.G.V.v C C b v E R P H C P D K b B 5 $ $ $ > 4 4 # 3 5 Z i         % .   ",
"3 5 5 3 5 5 5 Y E P R J D M M x x M x C C C O.Q.A.G.V.L.C.! z B 3 Y z v B C v 5 Y n n T 4 > 4 > 4 > # # # > $ z z z = # # , x f ",
"x z I x I x H I H P R L F V V D K C H L L H  .9./ ..../ / J x b x P x x x z b b P L I L x m x I z M x f , $ , 3 C v c , , z F C ",
"B V 6 B n 5 6 5 5 Y E E U A B 5 B 3 6 Y Y 5 Y E n Y E 6 V Y 5 5 n Y 5 5 5 V Y 5 V Y 5 Y n V V n V n Y 5 5 $ 4 3 4 5 V 5 V 4 $ 3 ",
"5.5.d.u.d.d.d.7Xk.d.d.v.x.d.6Xk.j.5Xd.z.z.d.5X5Xu.l.n.f.u.z.u.z.5.5.u.z.5.5.u.l.u.f.v.u.h.u.d.6.x P H 5.H b 7.2.6.u.d.5.d.6.d.5.",
"c.d.d.d.u.d.d.7Xk.j.d.v.v.d.7Xk.j.5Xd.x.z.d.7X5Xd.l.7Xl.k.v.c.v.l.c.h.v.k.d.j.z.f.j.6Xf.h.d.j.6.Z Z b 4.R Z 6.7.6.5.g.5.h.s.h.d.",
"d.u.u.d.x.n.d.v.x.d.d.f.7Xd.k.n.d.x.x.d.n.k.f.7X5Xd.z.7.x 2.j.x.k.d.5Xf.z.g.h.z.f.x.d.l.$.z Z z Z z Z Z z R u.7.z z b z z z z z ",
"u.j.d.d.z.n.f.x.v.d.u.g.7Xd.k.v.d.z.z.j.v.i.>.y.b.h.x.7.v R j.v.z.l.7Xl.5Xx.5X5Xx.5Xd.g.2.z Z z Z C B H z K 7.2.c z x x z z z z ",
" X4X4X).).'.).).'.).(.).'.).).!.).(.!.!.(.!.Y.^.^.(.`.!.`.Z.`.(.!.`.T.`.(.(.T.Z.T.Q.C.C.C.C.C.C.C.G.G.G.H.G.G.G.G.C.C.C.C.C.C.A.",
"U.K.E.E.R.E.R.K.E.E.I.E.U.I.E.I.I.E.I.I.E.I.U.E.I.E.I.I.E.I.R.I.I.E.I.I.I.E.E.I.E.W.F.G.G.G.J.F.G.J.H.L.J.G.G.H.G.H.G.G.G.F.G.G.",
"W.E.W.E.W.E.E.I.E.E.E.E.E.K.E.E.U.E.I.K.E.I.U.E.E.E.E.E.E.K.K.K.I.I.E.E.K.K.E.E.P.K.K.K.J.J.J.H.G.H.K.U.U.U.U.U.P.P.P.P.J.J.J.L.",
"J.H.H.G.H.J.J.H.H.J.H.G.J.G.G.H.J.H.G.G.G.H.G.J.G.H.J.J.J.H.H.G.H.G.H.H.H.G.G.G.G.G.H.G.H.G.G.H.F.G.H.H.H.H.K.K.J.J.K.I.K.K.K.K.",
"J.J.G.G.J.J.J.H.G.J.G.G.H.H.G.H.J.J.H.H.H.G.G.H.H.H.H.J.K.J.J.H.H.H.H.J.J.H.H.H.G.H.K.H.G.H.H.J.F.G.G.G.H.G.F.G.H.H.F.F.G.H.J.G.",
"K.K.J.J.K.K.K.K.J.K.I.K.K.K.K.I.K.I.K.K.I.K.I.K.K.I.K.K.K.I.K.K.H.H.G.H.H.J.K.K.K.K.I.K.K.K.K.I.K.K.J.H.H.H.H.G.G.G.H.H.H.G.G.G.",
"G.G.J.H.G.G.F.S.S.F.H.G.S.S.G.F.S.S.F.S.S.S.S.S.G.F.G.G.F.S.S.S.S.S.S.S.S.S.S.S.S.S.S.S.G.H.G.G.J.K.K.K.H.J.H.J.K.K.I.J.K.K.K.R.",
"S.N.S.S.S.M.M.S.S.N.S.S.S.S.S.S.S.S.S.S.S.S.S.S.S.S.S.S.S.S.m.M.S.S.S.D.N.N.N.S.S.S.N.M.N.S.S.S.S.S.N.M.M.N.S.S.S.m.N.S.S.G.H.H.",
"S.N.N.S.S.N.M.M.S.S.N.S.S.S.D.S.S.S.S.S.F.S.S.G.S.N.N.S.S.N.N.M.N.N.S.F.S.G.G.S.N.M.M.N.S.G.S.S.N.M.N.N.S.N.N.m.m.M.N.S.S.G.S.M.",
"G.S.S.S.S.S.S.S.S.D.H.D.F.S.S.S.G.S.S.S.S.N.S.F.F.G.G.S.M.M.M.N.S.G.S.S.S.N.N.S.S.G.H.H.F.S.S.S.S.S.G.S.N.m.M.M.M.N.S.S.S.N.N.N.",
"N.N.N.B.S.S.N.M.m.m.B.S.S.S.m.m.m.m.m.M.m.N.S.S.m.m.m.m.m.m.S.m.m.m.m.m.m.M.N.S.H.S.m.M.S.S.S.G.H.G.G.F.S.N.S.S.S.G.G.S.M.M.N.N.",
"S.N.m.m.m.B.S.S.S.m.m.m.N.M.m.m.m.N.N.S.m.m.m.m.m.M.S.N.m.m.m.m.m.m.m.m.S.S.D.m.m.m.m.m.M.S.S.S.S.m.m.m.m.m.m.S.S.S.m.m.m.m.M.m."
};
