/* XPM */
static char *de547aa504f84209d708b3b387af141a1SIsiq0wDLums0wB[] = {
/* columns rows colors chars-per-pixel */
"64 64 255 2 ",
"   c #020202",
".  c #0A0303",
"X  c #0B0A03",
"o  c #060808",
"O  c #0A0A0A",
"+  c #130402",
"@  c #1A0705",
"#  c #0C110F",
"$  c #141502",
"%  c #1A1A07",
"&  c #1A1813",
"*  c #220502",
"=  c #280906",
"-  c #370806",
";  c #251707",
":  c #361209",
">  c #3E190C",
",  c #321615",
"<  c #1D2103",
"1  c #242302",
"2  c #2D2B01",
"3  c #282708",
"4  c #322D01",
"5  c #372B05",
"6  c #2D3303",
"7  c #353202",
"8  c #3B3502",
"9  c #3C3A02",
"0  c #383609",
"q  c #262314",
"w  c #363215",
"e  c #430202",
"r  c #490706",
"t  c #560603",
"y  c #5C0B02",
"u  c #451708",
"i  c #5A1407",
"p  c #520B17",
"a  c #491916",
"s  c #571717",
"d  c #670604",
"f  c #720F0E",
"g  c #681605",
"h  c #771903",
"j  c #671916",
"k  c #4A2903",
"l  c #43200E",
"z  c #4E240F",
"x  c #4D2C0E",
"c  c #433C01",
"v  c #453A06",
"b  c #56310A",
"n  c #4B2413",
"m  c #4C2C13",
"M  c #4C211B",
"N  c #4C3512",
"B  c #4A3B15",
"V  c #792507",
"C  c #772716",
"Z  c #732E10",
"A  c #5E1B29",
"S  c #6D1928",
"D  c #532A2A",
"F  c #5D2A34",
"G  c #6D2A30",
"H  c #762A36",
"J  c #3F4205",
"K  c #444203",
"L  c #4B4302",
"P  c #45420A",
"I  c #4B4708",
"U  c #534B03",
"Y  c #534A09",
"T  c #57510F",
"R  c #484413",
"E  c #6D5116",
"W  c #5F5722",
"Q  c #341767",
"!  c #583249",
"~  c #73344A",
"^  c #442C6A",
"/  c #744C52",
"(  c #615C59",
")  c #6D4A6C",
"_  c #850600",
"`  c #841804",
"'  c #951A05",
"]  c #A41B04",
"[  c #872703",
"{  c #972A04",
"}  c #853804",
"|  c #973304",
" . c #862916",
".. c #982F1B",
"X. c #873518",
"o. c #A92A05",
"O. c #A83703",
"+. c #B53706",
"@. c #AD3010",
"#. c #B73914",
"$. c #851E25",
"%. c #873524",
"&. c #8F312E",
"*. c #AD362A",
"=. c #C53D08",
"-. c #92480B",
";. c #A94405",
":. c #B74A05",
">. c #BA5604",
",. c #AB4819",
"<. c #B24618",
"1. c #B25612",
"2. c #B7650F",
"3. c #944D30",
"4. c #BB5725",
"5. c #B14E35",
"6. c #97682D",
"7. c #B16D33",
"8. c #C55B07",
"9. c #C94D15",
"0. c #C55916",
"q. c #C86807",
"w. c #C97509",
"e. c #D4740A",
"r. c #CA6719",
"t. c #D86818",
"y. c #CA7819",
"u. c #D87715",
"i. c #E17D1F",
"p. c #CE522D",
"a. c #CF712D",
"s. c #D47928",
"d. c #E5762D",
"f. c #8A3B49",
"g. c #A33E42",
"h. c #974649",
"j. c #884B55",
"k. c #9C5150",
"l. c #A9584A",
"z. c #AE5154",
"x. c #9B6A4E",
"c. c #B46C4F",
"v. c #90566C",
"b. c #AB5C6B",
"n. c #966673",
"m. c #B56F6D",
"M. c #CF744E",
"N. c #E7765F",
"B. c #C97969",
"V. c #B6851E",
"C. c #D28C10",
"Z. c #D78718",
"A. c #EB900E",
"S. c #E58917",
"D. c #E49816",
"F. c #D6A918",
"G. c #EDA71E",
"H. c #C9852F",
"J. c #D98927",
"K. c #DA9527",
"L. c #D88B38",
"P. c #DB9936",
"I. c #E58A28",
"U. c #E9992A",
"Y. c #E68838",
"T. c #E79737",
"R. c #F59631",
"E. c #DAAD29",
"W. c #EFAD32",
"Q. c #EAA73A",
"!. c #B39558",
"~. c #B98C75",
"^. c #D98848",
"/. c #DA9746",
"(. c #CE8A54",
"). c #E89945",
"_. c #ED9052",
"`. c #DDAA47",
"'. c #E7A647",
"]. c #F6A848",
"[. c #E8A758",
"{. c #F1B350",
"}. c #F7B959",
"|. c #D5936F",
" X c #EA906F",
".X c #E89A6A",
"XX c #DDA663",
"oX c #EAAB6D",
"OX c #F7A967",
"+X c #F9B966",
"@X c #F9A974",
"#X c #FCB877",
"$X c #F7C74B",
"%X c #FAC658",
"&X c #F1C76A",
"*X c #FCC877",
"=X c #362A90",
"-X c #543790",
";X c #574E9E",
":X c #7E75D8",
">X c #876B91",
",X c #C37E84",
"<X c #8C7DD1",
"1X c #9585B2",
"2X c #A68CAB",
"3X c #B79DA4",
"4X c #CA8E8E",
"5X c #DA9985",
"6X c #E89086",
"7X c #E79797",
"8X c #ED9C9D",
"9X c #CAA899",
"0X c #D6AE91",
"qX c #F8A986",
"wX c #F9B688",
"eX c #EBA59B",
"rX c #EFB090",
"tX c #C18DA4",
"yX c #D5B1AC",
"uX c #EEA4A3",
"iX c #EDA9A7",
"pX c #F0A7A5",
"aX c #F1AEAC",
"sX c #EBB7AA",
"dX c #F3B6AA",
"fX c #EFB5B6",
"gX c #FDC586",
"hX c #F8C696",
"jX c #F5CE93",
"kX c #DAC3B1",
"lX c #F3CBA8",
"zX c #EBC8B8",
"xX c #F7CBB6",
"cX c #EAD2B7",
"vX c #F9D6BA",
"bX c #FBE4BA",
"nX c #8C8BD3",
"mX c #A8A3DF",
"MX c #D3B8D4",
"NX c #BBC5F3",
"BX c #D5D1CD",
"VX c #F8DAC4",
"CX c #F1D1CA",
"ZX c #FAE4C9",
"AX c #EEE8D7",
"SX c #F9E8D5",
"DX c #F4EADD",
"FX c #FCF1DB",
"GX c #D4DDF5",
"HX c #E5D8EA",
"JX c #F2ECE4",
"KX c #F9EDE1",
"LX c #FCF5E6",
"PX c #E9EBF3",
"IX c #FCF9F9",
/* pixels */
"x x > > > > n n n n n n n n n n n n x x x x x x x x N N N N N N N N N N x x x x x x x x x x x x n n n n n n n n l l l l B B N N ",
"x                                                                   O               O                                     O O N ",
"x                                                                                                           O     o O         N ",
"x                                         @ D u * : .                               O                                         N ",
">                                     X r %.y V X.C u &   o                       #                           O O   O         l ",
">                                 O , %.` C s t i 3.3.C =       O             O ) SX  O                   O     O             l ",
">                               O , c.X. .5.l.C &.C C - - :         ! n.@ @   yXqX X XBX@ O                                   l ",
">                               + 9X..(.M.M.%.z.xXeX|.3.i - O     O kXbXZXZXVXZXrXLXSXLXhX6.# O O                             l ",
"n                             O u c.5.7.c.M.&.zXVXVX5Xc...- +       ZXZXLXLXvXvXZXqXcXcXvXZXbXZXSX=                           u ",
"n                           o . m.m.l.~.5.|.iXDXDXVXrXc.M.i =     + lXvXJXJXKXKXKXKXDXIXDXAXSXVXFX=                           u ",
"n                           o O x.3.l.l.B.f CXzXc.rXwXl.c.Z =     ( 0XcXJXJXKXKXKXKXKXKXLXAXDXXXLX.                           u ",
"n                             . 3.X.&.l.7.g zXM.h VX.X&...V = o   4X9XkXAXDXKXKXKXKXKXKXKXDXIXlX0X                            u ",
"n                             . Z h C M.e &.|.yXeXFXVX5.B.X.-   & yX0X5X6X8X8X8XuXeXeX8XiXiXIXkX1.o                           n ",
"n                             O - V d 3.y 5.vXvXVXsXzX5X5.X.: O & 9X9X7X6X8XeXeX8XpXpXaXaXaXLXvX-.                            n ",
"n                             O @ h g y i eXdXxXVXcX|.c...C ,   & yX7X6X6X8XeXuX8XpXpXaXaXaXIXVX,.                            n ",
"n                             O a y e  .i M.eXsXxX` 5... .V a r j 9X7XuXuXpXuXuXuXuXuXiXdXdXLXbX-.                            n ",
"m                             . j t j u u 5.M.5X|. Xp.l.%.u : s S 9X    IX8X8X8XiXpXpXIX    yXbX+                             x ",
"m                             . y - s * = r 3.l.c.M.8Xl.C = = M p yX    IX8X8X8XiXpXpXIX    0XFX*                             x ",
"m                         O O * u u - - - t pXd C j C a * = * s A ZX7XuXuXfXCXCXCXCXCXaXuXuX~.bX                              x ",
"m                           + = a - - A s G j e $. .j r , = = p p ZXuXuXuXh.k.uXpXk.k.aXaXaX0XV .                             x ",
"x                           ; M M u j.fXv.tXS - s r j , = A * - IXVXiXpXeXh.k.uXpXk.k.aXaXaX0XV .                             z ",
"x                           @ : - n.j.BX1XIX2XS e - j - : s * - CXvX9X8X7X,X4X4X9X4X4XfXaXaXvX|                               z ",
"x                           + + F f.1XIXGXnX;XF H * a s * j @ > VXVX9XpX8XuXiXiXaXiXiXaXaXaXsXC .                             z ",
"x                           O @ j.b.mX2XNXnX-X! $.: = a = u @ = VXVXyXfXaXpXpXiXaXiXiXaXaXaXxXk                               z ",
"N                             D H b.MX) IXGXnXnXS F * - = M = , SXVXBXJXLXLXLXSXlXVXVXVX7XBXkX:                               z ",
"N                           o F j ~ GX>XNX=X-X^ F s : * : a + O ZXVXJXDXSX(.IXVX^.SXCXzX4XAXvX+                               z ",
"N                         O   j.z.b.PX>XNX:X<X<X2Xz.- = D a   O ZXZXLXSXvXFXCX_.JXDXDXAXAX0XZX                                z ",
"N                           @ ! G yXIX~ <X;XnX2X) &.= : a ,   @ ZXZXvXFXSXvXwX@XDXDXBXDXAX-.ZX.                               z ",
"N                           = f.e MXIX) nX<XPX2X1XS A , a : . ! VXSXSXvXVXrX X_.JXLXyXDXDX1.5X.                               N ",
"N                         O F f.j GX3Xf.mX:XQ -XmXG H = : ; . cXSXZXSXrXsXhXwX^.DXDXyXSXFX7.c..                               N ",
"N                           F H z.yX>Xv./ mX) ! H f.* s @ = j.|.vXFXdXqXqXwX.XkXyXkXyXSXkXrX6.o                               N ",
"N                           A p H H d G / j.) n./ e H = f.S m.t dXdX@X.X_.VXFX~.~.|.rX|.0XlXr                                 N ",
"x                       o . H H h.g.z.r ~ ~ v.m.&.b.@ h.h.&.&.&.dXM.r.ZXVXvX9X~.~.!.9XcXVXVX;                                 N ",
"x                         o A b.g.d g.3.G ~ v.f.n.B.e 5.&.f.N.z.5.qX@ O   + CX9X0X~.ZXVXZXlX.                                 N ",
"x                           a f.z.h.d $.j e j.n.yXb.S b.i &.$.h.,.o X + u / x.qX|..X[.|.LXVX                                  N ",
"x                           F l.5.V M.L.H.(.G F h. X6XB.f *.$.z...S.Z.7.4.4.|..X.XxXzX|.@ # o X & .   .   . X   X X X X X X X N ",
"x                           Z 3.{.`.[.C.+X).,.G G z.j e *...t y *X^.;.0.1.0..X.XVXvXvX0Xc.U K P T R 0 0 R 0 R 0 0 2 8 1 R 4 9 x ",
"x                     O O 6./.Q.W.}.K.&XS.Q.Y.0.e a t z...t i %.;.<.O.:.M.(..XVXVXVXsXoXa.c L E L R 9 v 7 0 0 4 v 8 R 4 P 7 7 x ",
"x                     q (.+X].G.}./.}.Z.T.w.;.O.;.[ C y y C y y | h { :.s..XVXSXSXcXcX|.7.Y L 8 T 7 4 % 0 7 0 0 9 0 4 2 2 7 2 x ",
"x                 o # H.*X{.%XE.C.%XE.U.:.2.{ I.u.r.;.4.| [ | [ [ [ +.a.L.M.SXvXZXkX|.|.M.L T K P L c 8 0 7 4 1 7 8 2 8 v 8 8 x ",
"x                 O x.^.'.{.%XC.jXC./.>.P.L.Z.G.q.T.O.e.1.O.| g h h :.L./.wXhXlXhX0X0XM.{ Y T L v v 9 4 7 4 1 7 7 P 4 2 7 9 8 x ",
"x               o D a.}.OX%X#XbX&X'.y.J.P.y.A.W.e.C.O.'.>.| O.[ h [ r.).OX.X^.SXlXsXc..X5.E I v P 2 4 8 4 R 0 v I 7 7 2 9 7 K x ",
"x             # 1 .X[.#X].A.*XQ.Z.>.>./.`.).T.W.e.Z.:.{.r.{ ;.[ g V 2.P.y.M.VXzX5X~.7.{ ' h c v 8 2 8 4 9 c 7 4 I 7 8 P P 7 7 x ",
"x         o $ < R T.].].T.U.Q.C.8.{ s.}.&X{.W.{.S.W.D.}.:.:.O.h g V 7.K.` 5XxX5X(.(.' ..' <.U 8 P 7 2 B 9 7 7 1 1 8 2 7 4 v 8 x ",
"N       o % 6 0 7.U.R.S.Z.Q.Z.S.;.:.s.oX`.K.{.E.G.W.D.K.0.;.q.[ g [ r.P.iXkXdX.X1.<._ ` _ @.,.2 9 7 2 6 1 1 2 7 7 7 2 9 9 P L x ",
"N     $ 1 1 4 9 '.U.C.*XR.S.S.:.>.0.>.).gXE.G.&X$Xu.+Xw.1.;.w.[ g | 2.a.,.HXIX~.<.$.#.d .._ @.I 2 7 8 8 8 4 3 7 7 7 P 8 8 9 9 x ",
"N # < 3 1 0 6 7.I.Q.D.A.I.i.>.1.y.1.>._.[.[.F.%XG.U.{.K.4.;.q.[ y { 8.,.O.M.<.m.9 b d *.d _ p.E P 9 9 7 0 8 8 9 P 8 6 v K K 7 x ",
"N % 1 0 2 2 8 J.u.T.J.I.e.[.H.L.q.:.0.O.T.Q.$X%XD.K.I.S.;.s.>.h g O.:.d 4.M.{ 4Xg b @.f ' #.o.{ 2 7 8 9 v v c 4 8 2 2 7 9 8 v x ",
"m 3 2 9 9 6 7.u.).{.&X+XP.2.J.w.q.8.:.+.| w.D.K.e.U.u.e.;.H.;.g h { ;.` a.r.,.Z B v V f ' ' #.#.-.4 8 J 8 4 9 U 8 R 8 9 9 K Y z ",
"m 1 P K U V.'.gX*XT.I.Z.q.T.`.&X&XE.Q.].e.q.q.>.8.s.R.0./.2.| r h h o.=.M.<.X.-.v c R ..O.] a._.{ v c 8 9 Y P c K 9 9 I L T L z ",
"m 9 !.}.*XjXoXK.I.8.8.}.u.Z.J.J.`.Q.&XgXW.}.{.G.W.].e.r.s.;.V - ` ' p.*.o.3.-.-.v c k X.@.#.+.:.r.^.P P 8 c L K U K 8 c K K 8 z ",
"m 4 0XE.J.q.q.r.r.w.+XA.Z.%XbXOXT.d.>.K.{.$X+X}.D.y.:.8.| V - V o.+.@.d.5.} } | 9 c c E p.d.qXvXd.@X;.6.8 c K K 8 8 8 T W 2 7 z ",
"m !.q.q.y.d.r.>.8.C.+XjXjX$X}.%X[.}.K.;.:.s.d.;.4.O.V g y e - #.+.9.@.#.} } } -.c L K T h qX).hXqX_._.t.OX5 4 6 6 1 < % % $ % n ",
"m !.).+.O.>.r.r.G.P.L.OXOX}.S.A.R.A.U.U.).:.V Z i g _.N.@.] y #.p.M.o...V } } -.v v 4 v 4.gX_.OX.XH.wX#XjX[.R.t 5 % $ $ $ $ % n ",
"m wXT.0.y.[.].L.D.+Xd.A.W.Q.'.].D.W.u.&XC.).e j i X.{ { { [ { @.9._ p.*.V V } 2 % 3 5 5 4.].#XOX8.a.@X:.qX#X).@X#X^.w & % $ q n ",
"m gXT.e.d.K.R.I.G.*XI.}.T.K.'.U.S.Q.jXU.U.e y r y t d  .f t o.9.+.t.o.p.p.; % & q q q w h OXwXwX@Xd.gX}.#.] +.] _ e X % $ q $ n ",
"n xXOXq.t./.).#XQ.T.{.C.Z.Y.D.W.W.&XQ.y.| y y [ [ { { { o.{ @.o.p.+.9.N. X+._.- & % % ; 5.^.R.gX{ ..t y s i u b . X $ $ 3 4 8 m ",
"n [.Q.8.t.>.C.wXK.e.J.Q.J.a.[.#X[.gXC.t.i t h | [ [ { O.O...] _ p.0._.:.wXqXbX_. Xm.% ; C ` h [ 3.% 3 2 2 ; 2 0 7 7 7 7 8 4 9 m ",
"n q.e.>.9.8.rX+XH.Y.Y.OX).>..XQ.#XK.u.t j [ : h [ | { O.o.` _ p.#.t.LX] oXwXqX4.6.k.= ; 7 9 L c 2 w I U I L c K L c c 7 4 9 9 m ",
"n :.:.Z.bXK._.L.r.s.I.y.R.Y.lXK.}.+Xt.d g u ; % V [ | +.+.Z ; < - i f  . X X5XZ u E L L U U U Y K K c 9 c L Y I c c 9 L 8 K c m ",
"x ^.s.Y.].Y.s.a.9.P.s.+.t.q.d.&X%X).g % q & & ; q % u o.{ i q & 1 8 6 4 2 x k v I T U I K 9 2 c P K I c U U U K c U 8 c 7 L c m ",
"x -.r.XXT.t.d.).y.2.8.U.S.I.C.E.U.J.q & & $ % 1 3 W b [ | c.K 2 8 9 P K J 9 9 I I K 8 8 P 9 8 L c L U L L T v L c c I c L c c m ",
"x 7 2 6.H.r.).2.;.Y.Z.{.`.[.P.'.s.d $ $ ; < 5 ; 8 7 8 4 L 8 I I 9 K 8 8 6 7 8 K K K 9 c U U K Y L c c c L U L L 8 c L c L U c m ",
"x x > > > > n n n n n n n n n n n n x x x x x x x x N N N N N N N N N N x x x x x x x x x x x x n n n n n n n n l l l l B B N N "
};
