/* XPM */
static char *fetchimage1718380408[] = {
/* columns rows colors chars-per-pixel */
"64 64 214 2 ",
"   c #000000",
".  c #0B0302",
"X  c #0B0905",
"o  c #0B0B0A",
"O  c #090708",
"+  c #120505",
"@  c #130A07",
"#  c #140C0A",
"$  c #1B0D0C",
"%  c #1A0902",
"&  c #14120E",
"*  c #1B110E",
"=  c #1C180F",
"-  c #151413",
";  c #1B1411",
":  c #1C1915",
">  c #1E1D1B",
",  c #20120F",
"<  c #241513",
"1  c #291411",
"2  c #251915",
"3  c #2A1B16",
"4  c #231D1A",
"5  c #2B1D1A",
"6  c #331D1A",
"7  c #1F201B",
"8  c #24221D",
"9  c #2C221D",
"0  c #34251E",
"q  c #262522",
"w  c #2C2421",
"e  c #2D2A25",
"r  c #282828",
"t  c #322522",
"y  c #382720",
"u  c #342C25",
"i  c #3B2D25",
"p  c #352D2A",
"a  c #3B2E29",
"s  c #34312C",
"d  c #3B332C",
"f  c #3D3631",
"g  c #3D3933",
"h  c gray20",
"j  c #412C26",
"k  c #422F28",
"l  c #44332B",
"z  c #46382E",
"x  c #46362B",
"c  c #433B34",
"v  c #4D3C33",
"b  c #4B3F39",
"n  c #503F38",
"m  c #43413C",
"M  c #4C433B",
"N  c #534036",
"B  c #54433C",
"V  c #59453D",
"C  c #56493F",
"Z  c #59493F",
"A  c #454543",
"S  c #4D4C4A",
"D  c #4C4943",
"F  c #554A43",
"G  c #5C4B43",
"H  c #564A45",
"J  c #5E5047",
"K  c #5E534B",
"L  c #53524D",
"P  c #5C5A55",
"I  c #5D5D5A",
"U  c #604E45",
"Y  c #625046",
"T  c #64544B",
"R  c #69574D",
"E  c #6B594E",
"W  c #6A5750",
"Q  c #6C5C53",
"!  c #675C58",
"~  c #715E55",
"^  c #725F58",
"/  c #63615C",
"(  c #6D6158",
")  c #726056",
"_  c #75645A",
"`  c #78665D",
"'  c #74695F",
"]  c #7A685E",
"[  c #646461",
"{  c #6D6A65",
"}  c #6C6865",
"|  c #756A64",
" . c #7D6C63",
".. c #726F6A",
"X. c #786867",
"o. c #73716C",
"O. c #746E70",
"+. c #7D7C79",
"@. c #7D7C77",
"#. c #806F64",
"$. c #826F6A",
"%. c #837166",
"&. c #85746A",
"*. c #89766D",
"=. c #8A796E",
"-. c #87796E",
";. c #8D7C72",
":. c #867B79",
">. c #917E75",
",. c #937F78",
"<. c #86827E",
"1. c #8F817B",
"2. c #8F8174",
"3. c #928176",
"4. c #95837A",
"5. c #99877D",
"6. c #9B897E",
"7. c #8C8785",
"8. c #998780",
"9. c #9E8C83",
"0. c #9D8B89",
"q. c #938783",
"w. c #95938F",
"e. c #9E918B",
"r. c #989692",
"t. c #9C9B96",
"y. c #979692",
"u. c #A18E85",
"i. c #A29186",
"p. c #A5938A",
"a. c #A9968C",
"s. c #AB998E",
"d. c #A49390",
"f. c #A89791",
"g. c #A79991",
"h. c #AD9B92",
"j. c #A19E9B",
"k. c #B19F95",
"l. c #A4A39E",
"z. c #B3A196",
"x. c #B5A39A",
"c. c #B9A69D",
"v. c #BAA99E",
"b. c #B7A99E",
"n. c #A8A6A1",
"m. c #AEADA8",
"M. c #BAA7A1",
"N. c #BDABA2",
"B. c #B2ADAB",
"V. c #B7A8A7",
"C. c #B2B1AC",
"Z. c #BFB1A6",
"A. c #B7B6B1",
"S. c #BDBAB5",
"D. c #BAB7B2",
"F. c #C1AFA5",
"G. c #C1AFAA",
"H. c #C3B1A6",
"J. c #C5B3AA",
"K. c #C9B5AD",
"L. c #C7B9AF",
"P. c #CAB9AF",
"I. c #C1BBB7",
"U. c #CCBCB3",
"Y. c #C3BFBB",
"T. c #C8B7B0",
"R. c #D1BFB5",
"E. c #D1BFB8",
"W. c #CEC0B7",
"Q. c #C4C2BD",
"!. c #CFC1B8",
"~. c #D2C1B6",
"^. c #D4C3BB",
"/. c #D8C7BE",
"(. c #D9C9BF",
"). c #D6C8BD",
"_. c #CAC6C1",
"`. c #CDCBC5",
"'. c #C6C5C0",
"]. c #D2CDC5",
"[. c #DBCCC4",
"{. c #D1CEC9",
"}. c #DCCFC8",
"|. c #DAC7C0",
" X c #D5D2CC",
".X c #D9D5CE",
"XX c #DBD8CF",
"oX c #DDD0C7",
"OX c #D6D5D0",
"+X c #D9D6D1",
"@X c #DCD9D2",
"#X c #DFDED9",
"$X c #E1CEC7",
"%X c #E2D4CC",
"&X c #E8DACF",
"*X c #E8D5CE",
"=X c #E6DAD3",
"-X c #E9DCD5",
";X c #E1DED9",
":X c #EBDFDA",
">X c #E9D6D0",
",X c #E5E2DD",
"<X c #EBE2DC",
"1X c #F2E5DE",
"2X c #F6E8DF",
"3X c #E6E5E0",
"4X c #EAE5E1",
"5X c #EBEAE4",
"6X c #F1E5E1",
"7X c #F4E9E5",
"8X c #F5EDE9",
"9X c #F8EDEA",
"0X c #FDF9F4",
"qX c #F5F2ED",
/* pixels */
"'._.`.`.`.].].].{. X X{.{.{. X{. X]..X.X X X X]..X XXXXX+X+X+X+X+X+X+X+X+X+X+X@X@X+X+X+X+X@X.X@X.XXXOX@X.X@X@X@X@X XXXOXXX@X.XXX",
"Q._.).`.`.`.].].].].].{. X X X X]. X X]. X.X X.XXX XOX X+X@X;X4X3X,X;X@X+X@X@X@X+X+X@X+X@X.X@X.X@X.X.XXXXX@XXX.X@X@X@XXX@X.X@XOX",
"Q.`.`.`.`.].].`. X{. X X X X X X X.X.X X X XXXXXOX X#X,X5X#X_.I.S.Y.{.,X5X;X@X@X+X@X@X+XXX@X+X.X X@X@X@XXX@X@X@X@XXX@X@X@X.X@X@X",
").Q.`.`.].`. X X{. X{. X{.{.{. X X X X X X X.X X#X3X Xl.! a ; @ # * 5 A <.Y.4X4X@X+X+X@X@XXX@X@X@X@XXX@X@X@XXXXX@X@X@X@X@X@X@XXX",
"'.`.`.`.].]. X].{. X{. X X{. X X X X X X X.X@X4X`.@.a . . + @ $ $ $ + .   $ H C.3X,X+X@X@X@XXX@X@X@XXX@X@XXX@X@X@X@X@X@X@XXX@X@X",
"_.`.].`.{.{.]. X X{. X X X X XXX.X X.X.XOX;X;X7.q . + $ , < , < < 1 < , $ .   @ P D.;X;X@X@X@X@X@X@X@X@X@X@X@X@X@X@X@X@X@X@X@XXX",
"`.`.`.`.{.{. X{.).OX X X X X X X X+X X@X;XB.g     @ , < < < 3 5 5 < 5 5 $ + @ . . 4 o. X3X@X@XOX@X@X@X@XXX@X@X@X@X@X@X@X@X@X@X+X",
"_.`.`.].{.{.{.{. X XOX). X X XXX X+X,X`.{ #   + + $ 5 3 3 3 3 5 5 < 1 1 , $ + + X . @ c n.3X,X#X@X@X@X@X@X@X@X@X;X@X@X@X@X@X@X.X",
"'.`.`.`. X{.{. X{.{. X X{.{. XOX#X Xt.c     . + * 2 3 6 y y 0 y 0 6 3 2 , , $ @ + . . + 5 { Q.,X@X;X@X@X@X@X@XXXXX@X@X@X@X@X;XXX",
"`.`.{.{.{.{.{.{. X XOX{. XOX X#XQ./ 8 X X X . % < 9 0 l k n v B G v k 0 3 1 , , $ + . . @ = r y.5X@X@X@X@X@X@X@X@X@XXXXX@X@X@XXX",
"`.`.{.{.{.{.{. X{. X X XOXOXXXA.g = @     . @ 2 0 i x V Y ^  .&.*.^ U v j 0 3 3 1 , + +   # - X l.3X@X@XXX@X@XXX@X@X@XXX@X@X@X@X",
"`.`.`.{.{.{.{. X X{. X X XOXOXm & &     + # 2 i z B R ` $.>.5.i.u.;.^ W U V l j i < , + .   X X > OX;X@X@X@X@X#X@X@X@X;X@X@X@XXX",
"`.`.`. X{. X{.{.{. X X X X3X<.X & . X & 1 9 x v G E #.=.>.5.6.p.f.u.,.=.#.R U V v k 3 $ + .   o   ..5X@X@X@X@X@X@X@X@X@X@XXXXXXX",
"'.{.`.{.{.{.{. X X XOX XOX`.7 X X X * 9 k V R #.&.=.3.3.6.9.k.k.h.h.p.u.u.*.~ ~ R U x 1 * # X     -  X;X@X@X@X@X;X@X@X@X@X;XXX@X",
"`.`.`. X{.{.{.{.{. X X{.#Xw.X X X 5 0 z E #.=.6.i.6.6.p.z.c.v.F.k.M.k.p.u.u.>.=.%.~ R v 0 2 X   O   7.5X@XXX@X@XXXXX@X@X@X@X@X@X",
"'.`.`.{.{.{. X X{. X XOX,XP X X = 9 N E #.2.6.a.6.s.z.N.H.v.H.H.K.K.J.F.k.v.x.k.a.3.#.R v i ; X X   A 5X@X@X@X@X@X@X@X@X@X@X@XXX",
"`.`.{.{.`.{. X X{.OX{.OX;XS X - 5 v R ` =.s.H.F.M.R.^.~.P.^././.~.(.~.[.$XP.F.c.k.s.>.` Y x 5 & o   r #X;X@X@X@X@X@X@X@X@X@X@X@X",
"`.`.`.{.{.{. X{.{. X XOX@Xm # q i F ] 6.h.z.z.s.L.oX&X%X^./.[./.[.$XoX[.(.(.R.F.k.i.3.%.~ Z t 2 - . - `.;X@X@X@X@X@X@X@X@XXX@X@X",
"`.`.{.{.{.{.{. X{. X XOX@XA 4 5 c T &.5.5.a.s.v.U.U.P.U.^./.^.P.P.N.H.v.v.k.p.p.6.k.p.6.&.W z t < = q Q.;X@X@X@X@X@X@X@X@X@X@X@X",
"`.`.{.{.{.{. X{. X X XOX+XP M c v ` u.6.i.i.4.=.;.*.%.%.4.5.z.N.v.s.s.c.z.s.a.6.3.5.4.6.5._ G d 9 8 7 A.3X+X@X@X@X@X@X@XXXOX@XXX",
"`.`.`.{. X{. X X X X XOX@X/ M Z Y ) ;.5.6.6.3.4.6.u.s.s.h.z.H.R.K.z.5.9.6.i.6.6.p.a.6.6.#.W Z d p e o m.,X+X#X@X@X@X.X@X@X@X@XXX",
"`.`.{.{.{.{. X{. X X X+X3XL u M F z z ~ 3.i.5.6.p.i.k.z.h.h.z.z.h.s.s.z.v.k.a.i.6.6.s.6.` V d a w w > S.5X@X@X+X@X@X@X@X@X.X@X@X",
"`.`.{.{.{.{.{.OX X XOX XI 8 p m u 9 5 i N &.s.H.P.H.J.^.U.N.z.v.K.~.).~.~.R.~.H.c.k.5.Y G v 9 d M & > C.'.#X@X#X@X@X@X@XXX@X.X@X",
"`.`.`.{.{.{.{.{. X X@XQ.4 & 8 s 4 9 & % % 9 Y &.v.).%X>X|.|.%X%X[./.$X%X$XH.v.i.=.#.v 0 u 5 * e 2 : : ; w _.#X+X@X@X@XOX@X@X@X.X",
"`.`.{.{.{.{.OX{.{.OXOX{.Q - q s D C F c f b W | 8.U.-X1X-X1X<X:X<X1X-X>X&XH.*.~ | B k v c p e 8 9 ; # v =.Y.,X@X@X@X@X@XXXXX+XXX",
"`.`.`.{.{.{.`.OXOX{.OX{.R s w g Q ( '  .,.*.*.d.k.G.[.-X:X7X9X7X9X9X<X}.^.v.4. .X.T Y | &.Q M s p > a a ! {.#X@X+X@X@X.X.X+X@X+X",
"`.`.{.{.OX`.{.{.{. XOX@XL : - F ;._ h.^.E.^._.E.E.=X6X2X1X>X:X$XU.-X6X1X<X}.^.^.}.|.U.J.0. .| K 4 q D y W +X#X+X@X+X+X+X@X+X.X.X",
"`.`.{.`.`.OX{.{.OX X{.3X/   o ( !.J.N.:.D.r.:.:.Y.V.G.%Xs._ >.>.U N 4.[.+X|.Y.j.B._.+XE.^.M.^.| > & u l X.,X@X+X@X@X+X@X.X+X+X+X",
"`.`.`.{.{.OX{.{.{.{.{.3X7.  & Z z.e.T T ' X.! <.e.G U k.U j V E Y k % ^ n X.V.O.[ 7.X.n ;.c.^.! : & F T q.5X.X+X@XXX@X.X+X.X.X+X",
"`.`.`.{.{.`.{.OX{. X{.,Xw.  8 B ( Z ' Z.H.b.D.U.G.T.}.h.j n U =.X.n , T F.h.d.V.d.h.9.,.W _ =.H e 8 # l Q.;X+X+X@X@X X@X@X.X+X+X",
"`.`.`.`.{.{.`.{.{.{. X#XD.  : M J x  .W.}.=X:X:X-X6X].U N E ~ 4.#.n k a Z.*X-X<XoX=X).x. .E U F g 4   f #X@X@X@X X@X X@X.X.X+X.X",
"`.`.{.{.{.{.{.{.{.OX{.@XQ.w & z Z T  .s.R.%X&X-X7X%Xd.^ ) #.;.p.4.V v v ,.|.4X6X%XoX|.z.`  .) b p : 5 t.3XOX@X@XXX X@X.X+X+X.X.X",
"`.`.`.{.{.{.{.{.{. X X X,X/ X a J 5.z.x.H.U.).^.b.N.p.~ x v #.a.>.k 0 l ` a.s.[.%X(.P.c.u.=.E M 9 9 K XX=X+X+X+XOX+X.X+X+X+X+XOX",
"`.`.{.{.{.{.{.{. X X X X X8 . 9 T z.P.W.E.N.b.i.6.u.;. .0 3 U k.a.n 0 6 R 5.=.%.P.oX^.H.H.h.] m 7 . { 5XOX+X+XOX+XOX.X+X+X+XOX+X",
"`.{.{.{.{.{.{.{.{. X X X#X{ @ 8 T z.U.^.|.|.N.6.s.v.U.G 3 k _ u.s.*.j .  .E.a.%.=.~.(.P.F.c.] s :   <.,X.XOXOX+X.X.XOX+X+XOX+XOX",
"`.`.{.{.{.{.{.{. X{. X X X,XI # T p.Z.N.N.N.i.z.N.<X:Xk N =.8.a.k.x.#.6 $.0X$Xv.&.5.v.c.z.c. .9 8 q.OX@X+XOX@X.XOX.XOXOXOXOX%X+X",
"`.`.{.{.{.{.{.{.{. X{.OX{.;Xl.# T 9.c.c.s.p.a.J.&X0X-Xu.0.M.U.U.U.R.h.*.N.7X9X%Xa.] >.3.i.h. .= o.qX+X+X+XOXOX.XOX+XOX+XOX%XOX X",
"`.{.`.{.{.{.{.OX{. X X{. X+X Xp M 3.a.9.5.4.z.|.7X:Xc.x.E.^.>X8X7X%XU.v.z.F.6X<X~.5.) &.4.a.( = B.,X X+XOX+X XOX%XOX+XOXOXOX XOX",
"`.`.`.{.{.{.{.{.{. X{. X X{.3X} d -.9.9.;.4.L.:X:Xa.=.Y _ k.}.6X:X[.>.R #.*.k.9X%Xv.] ( ;.p.F m @X@X X@X+X+XOX.X XOXOXOXOXOX+X X",
"`.`.`.{.{.{.{.{.{.{.{.{.{.{.#Xn.d ' 5.3.%.a.^.1Xu.#.#.^ $.8.G.E.^.a.`  .#.&.E N.2X~.4.R | 4.u ..5X XOX X X X.XOX}.OX{..X}.OXOX X",
"`.`.`.{.`.`.{.{.{.{.{.{.{. XOX Xm T 2.-.4.b.&XZ.^ ,.=.,.d.f.T.T.}.N.9.p.,.,.X.T -X-Xx._ Q Q f _.#X XOX X XOX X XOX X X.X X.X X X",
"`.`.`.{.{.{.{.{.{.{.{.{.{.{.{.,X..M 5.2.i.b.^.` =.u.u.k.F.P.$Xd.k.K.d.k.f.8.5.R p.$XU.=.T M s l.,X<X;X X.X X X X X X X X X X X X",
"`.`.`.`.{.`.`.{.{.{.{. X X{.{.#XQ.K 3.6.6.b.h.3.c.G.P.|.|.*X7XE.J.*X$X$X$XE.T.p.;.J.N.8.Y d     S w.C.#X X XOXOX X X X X X X X X",
"'.`.`.`.`.{.`.{.{.{.{.{.{.OX;X5Xl.c  .4.;.M.M.U.$X|.E.K.M.d.8.0.0.X.X.,.d.k.E.|.M.F.8.i.G :           ..,X;X X{.{. X X.X X X X X",
"_.`.`.`.{.`.{.{.`.`.{.@X,XOXt.A   O ' -.2.H.^.^.G.,.E V j 6 6 3 1 1 1 6 j n *.G.E.E. .` p         O     A C.#X3X#XOX{. X]. X X X",
"`._.`.`.`.`.`.{.XX,X#XS.+.r         p &.;.U.!.J.k.f.K.K.F.M.k.k.x.M.h.f.a.f.5.>.!.^.%.z =                   s o.n.`.,X;X.X].]. X",
"'.`.'.{.OX#X#X{.m.+.A o       O       M -.N.V.z.u.k.R.E.|.$X%X%X$X}.}.E.K.K.a.>.p.J.&.3                 O         - S y.{.,X@X X",
"`.OX#XOXC.<.S r                       X F %.5.5.a.c.T.$X*X-X%X%X%X}.*X|.E.K.k.u.;.=.J X                                 > [ C.@X",
"'.j.I r O         O O                   & c ) &.;.3.u.h.0.6.9.a.s.c.V.T.P.0.;.*.%.N &                                         h ",
"> O                                       # Z _ '  .&.&.Q | *.6.u.;.&.;.9.&.J G d o                                       O     ",
"O                                           O p Y `  .*.p.z.z.x.x.h.0.4.%. .B -                                                 ",
"o                                               - F  .;.e.h.M.M.h.0.4.;.;.W :                                                   ",
"o                                                 O c ( -.8.0.g.g.9.;.%.H -                                                     ",
"o                                                       4 s g M M c e -                                                         ",
"o                                                                                                                               ",
"o                                                                                                                               ",
"o                                                                                                                               ",
"o                                                                                                                               ",
"o                                                                                                                               ",
"o                                                                                                                               ",
"o                                                                                                                               ",
"o                                                                                                                               ",
"o                                                                                                                               ",
"o                                                                                                                               "
};
