/* XPM */
static char *Saul_20091718380408[] = {
/* columns rows colors chars-per-pixel */
"64 64 250 2 ",
"   c #1C0E0A",
".  c #160F09",
"X  c #16110D",
"o  c #1A140E",
"O  c #1D180E",
"+  c #171007",
"@  c #1C1511",
"#  c #1E1913",
"$  c #181915",
"%  c #23160E",
"&  c #23180E",
"*  c #28180C",
"=  c #221612",
"-  c #241B14",
";  c #2A1D15",
":  c #261D19",
">  c #291F19",
",  c #291415",
"<  c #331C15",
"1  c #331E18",
"2  c #381C16",
"3  c #2C1311",
"4  c #252015",
"5  c #2B2116",
"6  c #262118",
"7  c #2C221A",
"8  c #2F281E",
"9  c #342416",
"0  c #33241C",
"q  c #3B251C",
"w  c #34291D",
"e  c #3B2A1D",
"r  c #392417",
"t  c #2D200F",
"y  c #322621",
"u  c #3A2622",
"i  c #352A22",
"p  c #3C2C22",
"a  c #3B2D2A",
"s  c #3E3225",
"d  c #3D332A",
"f  c #343025",
"g  c #2B2520",
"h  c #41251B",
"j  c #432C1D",
"k  c #49281B",
"l  c #56281B",
"z  c #45321E",
"x  c #432E23",
"c  c #4C2D23",
"v  c #492C29",
"b  c #572D24",
"n  c #443224",
"m  c #4B3224",
"M  c #443529",
"N  c #4B352A",
"B  c #4C3A2C",
"V  c #483828",
"C  c #533325",
"Z  c #5B3425",
"A  c #5C3A25",
"S  c #52362A",
"D  c #5B342A",
"F  c #533B2C",
"G  c #5B3C2C",
"H  c #533926",
"J  c #4E3D32",
"K  c #4A3632",
"L  c #523E31",
"P  c #5B3D31",
"I  c #593735",
"U  c #633C2C",
"Y  c #6A3C2C",
"T  c #653728",
"R  c #6C3D33",
"E  c #673B33",
"W  c #773E32",
"Q  c #753C2E",
"!  c #67401F",
"~  c #5E432D",
"^  c #53402D",
"/  c #544232",
"(  c #5B4433",
")  c #5E4935",
"_  c #5A483B",
"`  c #4E4130",
"'  c #64412E",
"]  c #6B412D",
"[  c #634127",
"{  c #75442D",
"}  c #644333",
"|  c #6B4533",
" . c #634A36",
".. c #6C4A35",
"X. c #644D39",
"o. c #6A4D3A",
"O. c #604438",
"+. c #734533",
"@. c #7A4433",
"#. c #734A35",
"$. c #7B4C36",
"%. c #734C39",
"&. c #7B4E3A",
"*. c #764338",
"=. c #6D523C",
"-. c #66503D",
";. c #73533C",
":. c #7D523C",
">. c #79563A",
",. c #6C5442",
"<. c #635145",
"1. c #735642",
"2. c #755A43",
"3. c #7A5D45",
"4. c #765947",
"5. c #6C4F41",
"6. c #7D6046",
"7. c #7D614A",
"8. c #74624E",
"9. c #7C6653",
"0. c #844B3A",
"q. c #864837",
"w. c #83543C",
"e. c #8B533D",
"r. c #8B5A3E",
"t. c #835639",
"y. c #91583D",
"u. c #8E4E36",
"i. c #A45A3D",
"p. c #8E603F",
"a. c #845541",
"s. c #8B5542",
"d. c #855A44",
"f. c #8C5B43",
"g. c #8C5E48",
"h. c #935D44",
"j. c #925E49",
"k. c #985846",
"l. c #864C40",
"z. c #A35E48",
"x. c #8C6244",
"c. c #83654A",
"v. c #8D634B",
"b. c #85694C",
"n. c #8C6A4D",
"m. c #836245",
"M. c #946245",
"N. c #996446",
"B. c #95644A",
"V. c #9A664A",
"C. c #946A4D",
"Z. c #9C6A4C",
"A. c #9A6946",
"S. c #846A54",
"D. c #8C6D52",
"F. c #826650",
"G. c #936C52",
"H. c #9C6C51",
"J. c #976650",
"K. c #8E7155",
"L. c #8E755D",
"P. c #917255",
"I. c #95755A",
"U. c #9A755A",
"Y. c #96795B",
"T. c #9B7B5D",
"R. c #977655",
"E. c #96704C",
"W. c #A26C4D",
"Q. c #A6644E",
"!. c #A3724D",
"~. c #A36E51",
"^. c #A76952",
"/. c #A47354",
"(. c #AA7555",
"). c #AC7954",
"_. c #A4755B",
"`. c #AB7659",
"'. c #AC7B5B",
"]. c #A57A58",
"[. c #B27D5C",
"{. c #B47358",
"}. c #9C7E62",
"|. c #957B65",
" X c #877463",
".X c #A87B61",
"XX c #B07C63",
"oX c #A6815E",
"OX c #B5835B",
"+X c #9D8266",
"@X c #9C8573",
"#X c #A28464",
"$X c #A68866",
"%X c #A3856A",
"&X c #A6896A",
"*X c #AA8D6B",
"=X c #AD8564",
"-X c #B38463",
";X c #B98665",
":X c #B98965",
">X c #B48B69",
",X c #BA8B69",
"<X c #B78866",
"1X c #AD906E",
"2X c #A78D72",
"3X c #AE9171",
"4X c #A7937B",
"5X c #B29574",
"6X c #B59976",
"7X c #B69A7B",
"8X c #B99C7D",
"9X c #B79779",
"0X c #BE9070",
"qX c #BAA07E",
"wX c #C69373",
"eX c #C6A579",
"rX c #B99D80",
"tX c #B89D88",
"yX c #BDA383",
"uX c #BBA488",
"iX c #B4A592",
"pX c #C4AB8B",
"aX c #C4A785",
"sX c #CBB28D",
"dX c #C8AF91",
"fX c #C5AB94",
"gX c #CBB393",
"hX c #CFB899",
"jX c #CBB69A",
"kX c #D3BB9C",
"lX c #D7BA98",
"zX c #D8B484",
"xX c #CAB6A0",
"cX c #D5BEA4",
"vX c #D9C3A7",
"bX c #D8CAB7",
"nX c #E9D5B7",
"mX c #E1CAB0",
"MX c #D2C29E",
"NX c #EDDDC4",
"BX c #E9D9C6",
"VX c #F2DDCA",
"CX c #FAE5CB",
"ZX c #F6EBDA",
"AX c #FEF2DB",
"SX c #EDE2CD",
"DX c #FFFEED",
"FX c #FCF6E6",
"GX c #FEFCF4",
"HX c #FEFEF9",
/* pixels */
"# # = # # - # - # = - - - - - - - 4 - 5 - 4 - 6 ; ; ; 4 - 4 5 8 7 0 0 0 0 0 w 0 8 s w e s s s d M V M B ^ ^ ) )  .-.=.=.6.m.n.Y.",
"= # # = - # = - # - - - = - - - - - = - 6 : - , 4 - - O - = = - ; 5 9 i i p e s e e s d p M V B N B B L / ) )  .-.=.;.3.c.b.K.T.",
"# # - # # - - = 4 - - # - - - - - 4 ; - ; > > > > - - - - - ; - - - ; 7 9 w V / =.V n w s M V M V B / / ) ) -.=.;.2.6.c.n.P.T.+X",
"- # - - - = - - - = - - - - - - - - - 5 5 ; > g ; ; > 5 - - , - - - - > > 5 e n  .4.2.X.j n B M B ` ( (  .-.=.;.6.6.b.K.R.Y.+X#X",
"# - # - - - - = & - - - - - - - , - 4 - - & - ; - - - ; - - 4 5 - 5 7 8 > 5 9 w m  .;.T.%X .p J F / ) )  .=.;.7.m.b.K.R.T.#X*X1X",
"# - - - - - - - - - - - - - - & ; ; # $ - n G A m j j j j x e e x p e 9 0 w p M N z U p.aXvX8.B / ( ) o.=.>.6.c.n.E.R.R.#X$X1X6X",
"- : - - - - - - - - - - - - - - - &   ; G d.M.x.v.g.w.:.;.%.| U F F N v x p e s M ( >.x.5XCXvX .( )  .=.;.6.6.n.K.Y.+X+X$X1X6XqX",
"# - - - = - - - - - - - - & - 5 : o t #.h.k.y.M.N.y.h.h.s.$.+.Y U A S S n p p s M F 3.8XaXhXvX%X . .-.2.7.c.n.K.Y.T.oX$X1X5XqXyX",
"- - - - - - - - - - 5 & & 7 ; ; $ % R r.h.h.h.h.h.r.f.y.r.e.$.+.} } U A F x p a n _ v.gXSXeXsXoX^ ..-.2.6.9.E.K.T.oX$X*X1X6XqXpX",
"- - - - - - ; - - - - - ; 7 ; ; # q 0.f.r.h.h.M.h.r.h.h.M.f.w.$.#.#.} ' F m m p j / P.6XFXsX*XnX$X~ 2.2.6.n.n.K.oX#X*X1X6XqXaXsX",
"- - - - - - - - - : = - 5 7 ; % % U V.h.p.N.V.N.V.h.M.B.M.B.f.w.:.&.#.| } P N n n M >.rXFXhXv.lXNX9.-.6.n.E.E.+X+X$X1X1XqXqXuXsX",
"- - - : - ; - - ; ; - 5 7 7 & & q &.V.A.W.W.^.W.~.M.Z.A.N.V.v.r.w.&.:.#.| U S N n d F 2XDXvXm.P.CXbX2.6.n.p.9.oXoX$X1X1X6XyXpXgX",
"- = - - - - - - - - - ; 7 7 ; 5 m e.W.W.(.`.(.(.(.N.A.Z.N.N.M.v.e.w.:.&...} G S n V n 9.FXBXn.t.sXFX4X2.n.oX+X+X$X*X1X3XqXyXsXgX",
"- = - - - - - : 5 ; 5 ; ; 9 ; e Z f.^.!.(.'.'.`.(.V.V.Z.V.M.M.B.e.w.:.&.| } G F B n n ,.NXZX#Xn.6XAXNX6.p.n.K.+X$X1X3X5XqXaXgXhX",
"- : 4 ; : > 4 ; ; 5 7 7 1 ; < x U f.(.(.].[.[.).].Z.A.A.V.M.f.M.d.w.:.&...' G F N m V B vXFXuXoXqXnXDX+X6.+X+XoX$X*X5XqXyXpXgXMX",
"5 : 5 4 5 - - - - 7 > g 9 ; q N ' r.^.[.oXXX`.).(.A.N.V.Z.A.M.M.x.w.$.&.+.P P F B S V n +XGXMX1XeXNXDXuXp.L.E.oX$X1X6XqXyXdXhXkX",
": : ; : 6 > - - 5 9 5 ; 7 ; F | +.a.Z.'.'.'._..X(.Z.W.N.M.Z.B.N.M.r.s.&...( F B m N ` s |.FXmXpXpXNXDXxXc.K.T.+X*X1X6XyXpXdXhXkX",
"- - : 6 - - : 5 - 0 0 5 5 5 U a.e.M.W.).{.[.).OX'.(.Z.B.g.V.Z.Z.C.x.d.:.| U A S J V V n +XGXnXaXvXCXDXfXb.R.T.oX*X1X7XqXpXdXhXMX",
"- - - ; : - - 5 = 7 5 5 5 9 ..j.N.p.(.).XX=X;X;X:X[.(.H.B.N.B.Z./.j.f.a.| | S B B F n } uXGXSX*XnXAXDXiXn.Y.T.+X*X1X6XyXpXdXkXkX",
"- - - - - - - - = ; 4 - ; q | j.M.M.!.oX>XOX<XOX-XoXXX'.Z.!.N.].(.N.g.3.*.o. .( F N B =.cXHXZX>XnXFXZX&XC.Y.T.#X$X1X6XqXpXsXhXvX",
"4 - - - - - - > - - - - ; q ..r.h.B.f.#.d.B.G..X-X-X-X].A.].M./.'.B.n.3...} P F B B ^ c.cXHXFXaXSXFXbXT.Y.Y.Y.+X$X2X6XrXuXgXhXvX",
"- - : ; : - : 5 # - - = = j #.t.m...A A m k c N Y 1.J.B.p.'.g.d.[.M.;.' B x j n m n B  .uXZXHXdXnXAXjXb.Y.U.T.oX$X3X6XrXaXdXkXkX",
"- - - - 6 ; 6 5 : = 4 = & x ;.$.+.a._.`.Z.U.n.#.A U Y { p.=Xx.U ;.( m x N L 5.4.1.) B ( 7.vXHXjXMXNXfXv.E.R.|.+X$X2X6X8XuXgXhXcX",
"- - - - : : : : 5 - & = , N ;.{ &.H.oX].G.b.o.' U | 3.C.oX:XC.T e e 0 e M /  .( E ~ I  .o.n.GXcXeXkX8Xc.K.I.T.oX$X*X6X8XyXpXhXkX",
"- # - - : - : 5 0 5 # : % F &.e.C.g.' H P x 0 M D | M.(.-X;XZ.G w 0 y p N O.P C S L J K L 4.ZXbX0XaX9XF.D.I.U.}.$X2X3X7XuXpXgXkX",
"- - - : : 5 5 7 > = # # , P &.M.M.h.M.V.U.n.&.#.*.:.Z.~.].OXB.' w 9 y x ( 1.3.1.o.B N L B ( nXBX8XlX2XF.P.G.Y.+X#X&X3X9XrXpXgXhX",
"- : - : - 5 7 7 # X # # * D $.N.A./.[.-X<XOX).W.x.r.W.'.OX(.s.*.u 0 u p S | %.1.} P B P (  .cXSXaXvX7X3.b.P.Y.Y.+X%X*X5X8XuXpXgX",
"- : ; - 6 ; 7 8 # @ # # ; N $.N./._.'.>X,X0X:X].V.(.OX[.(.'.B.| p w y e x H U | .. .G (  .,.bXBX$XwXaX7.D.D.D.Y.T.%X&X2X9XrXuXfX",
": - - 5 : 5 7 7 # @ - @ , m #.h.!.`.'.-X,X-X`.~.<X;X[.OX'.{.V.| 0 y i i p S G } | o.X.O.S } BXxX#XD.%XG.6.D.K.P.I.}.%X&X3X7XtXpX",
": : : : > > 7 7 # # @ @ - x ..f.W.`.OX:X;X-X-X-X0XOX).'.].).V.U p y i y p n F I E O.P P S 5.BXiX9X%XI.D.6.6.D.D.K.Y.}.$X2X5X7XyX",
"- : : 6 > > 7 7 = # # # - p ' e.W.!.[.OX,X;X-X-X-X-X[.'.(.`.V.| u y y y i m N L G ( L L P L bXZXxXF.rX3.2.8.c.b.D.K.U.}.$X2X5X6X",
": : : 5 > > 5 7 4 & - = - p U w.h.Z.(.-X,X,X;X;X0X,X(.(.'.;X^.$.N e y y i e n F L B B N N ( bXDXbXo.}...6.4.4.c.c.D.P.Y.+X$X2X5X",
": : : g > g > > 5 = ; q u x S :.M.N.W.[.>X;X,X;X[.`.'.(.[.wX~.h.D e y 0 u p s N L N M B F ( bXDXvX,.4.o.=.;.6.2.6.b.D.K.Y.}.$X&X",
": : : : > > 7 1 y 7 7 y p M A &.f.A.Z.).-X,X;X]./.'.).y.~._._.g.S i y y p p m N N M x _ L ) bXFXxX_ =.X.o.-.=.2.2.6.c.D.D.Y.}.#X",
", : : > > > > g 7 8 8 9 y x A +.f.A.Z./.XX,X-X(.[.[.'.Z.H.V.g.%.m ; 7 i a x S P S N s <./ -.xXAXtX^ ) X. .-.-.=.,.;.6.6.b.D.I.Y.",
": : > > > 1 7 g 7 7 8 8 w w S | t.N.V.~.'.-X(.].[.^.Z./.H.J.' d.( q i x x p n S S n n _ ( 3.2XnX X/ ( ) )  . .-.-.;.2.2.6.c.D.I.",
": : : : 7 7 7 1 0 y g 0 0 w N | w.M.Z.~././.Z./.H.Z.H.A.].g.Y _.d.A N N N n p x N n s J ) S.S.9X_ / / / / ) ) ) X.X.=.=.2.3.c.n.",
": : : : > 7 7 g 7 7 8 0 8 8 n G &.v.A.W./.W.C.N.Z.H.]._._.f.$.N.g.| G N x p i 7 9 p M ` / d.1.3.J ` B / / ` / )  .X.X.-.;.2.6.6.",
"- : : > > 7 7 7 g 7 7 y 8 0 e F +.d.B.W.W.B.M.f.J.V.V.H.B.g.a.+.U c N x q e i p q V M _ F =. .^ B N B J ` ` ^ / ( ( ) X.X.=.,.2.",
": : : > > > 7 7 > > 7 0 7 8 0 v ' :.M./.(.x.v.f.j.h.f.a.a.a.*.Y S x x u p w 0 w L N p / F X./ V B V B B B B / B / / ( (  .X.=.=.",
": - : - : 5 7 > 7 7 > > > y y i H %.e.x._.M.M.A.W.~.Q.H.H.j.a.w.+.} S x w 7 7 0 F m i V A 3.J B N V B V B B V B B / / / _ _ ) X.",
": - : : > : : 6 > > 7 7 > 7 7 y c ' $.t.M.M.M.M.M.A.B.h.0.Y ] ] Y U C p w 0 9 y n x f ^ P G.B n s d K V M V F V V B B / / / ( ) ",
"= : : : 5 > : 5 > > > > > 7 7 7 m D +.:.s.B.V.W.C.N.f.g.d.d.t.$.#.} A N n p q u 0 r 0 B ( D._ u d d d d s M n V B B V K B ^ / / ",
": - - : : - : : > > > > > 7 7 7 i S U ;.w.h.M.H.Z.Z.Z.Z.(.H.H.B.d.&.' S N n i 0 7 ; 0 L p Y.8.N s M M d s d s M s M M V B B B ` ",
": # - : : - : - - - : 5 5 > - - ; N C | ;.w.w.M.V./.Z.Z.(.H.B.h.e.#.A m n u 0 - 6 & M n ; }.@Xn / 9 s s M s f d s M M M M M B B ",
"# # : # # : - : : : : : : - & o & N Z U | #.$.:.r.V.M.V.H.v.:.%.....A c p 0 5 ; 4 w K 0 1 }.fX> 7.X.j r i e i d p s s s M M M M ",
"# - : - : : : # - - = # # # @ o % v T A ' | #.#.:.d.r.d.1.*.U G ~ ( F m e 1 ; 7 7 n 7 9 > P.tX- H @X-./ B M M e e w i s s M M n ",
"X # # - # # - # $ @ X @ o @ @ @ ; C E U ' | +.#.&.#.#.| U G P P j m m p w > > > w ; & 5 5 v.U., h S.9.z F F B / _ ` s w w i s M ",
". X $ # $ X X X X $ $ @ o X = @ - b Y @.{ +.@.>.&.#.....' } G S v e e 0 1 0 ; 5 7 , 9 - 0 _ / & & -.D.~ n a i w N ( =.=. .M 8 y ",
". X @ X X X o X X X X @ o o @ @ , c Q @.0.&.0.0.d.w.+.#.' ~ G Z V q p e q r < > ; ; ; ; < u w & & r ;. .n y i s 8 7 p L ,.L.D.-.",
"X X . X X X X X X @ $ @ @ o = # @ v Q W 0.s.s.k.e.d.d.:.#.' %.%.| G S V p 0 ; < 0 1 < ; 7 ; - - 5 & V -.m i 0 1 i w 8 7 5 e X.L.",
"X X X X X X $ X @ X o X o o @ @ o u W q.0.k.j.z.Q.V.t.t.:.:.w.d.a.#.U V y u x h 0 1 ; ; ; > = - # 7 ; p ` M p y 9 e i 8 y 8 8 9 ",
". X X X X X X X X @ X X X o O o $ , R q.q.u.k.z.Q.^.^.k.e.$.e.:.:.' k c R R b h 2 1 9 - - - - = 6 - 7 ; 0 s M i 0 8 i f 7 5 w w ",
"X X X X X X X X X X X @ o X o O -   c 1.q.s.l.z.Q.{.^.{.V.q.#.U P A @.s.@.l c v x < 5 , , ; - , - 6 : 5 & 4 9 w y 8 7 5 5 8 0 0 ",
"X X X X X X X X X X o X o o o o     , E q.l.u.z.Q.^.(.{.{.XXl j | h.z.q.T c N h r ; = ; ; ; ; ; 7 = - - 8 O 8 ; 7 7 - - 8 7 6 g ",
"X . X X X X X X X @ X o o o o @ @ $ . k q.q.k.k.Q.^.{.{.XXT G |.!.t.Y U D c h h < - - ; ; ; ; u u - - 4 - 6 - - - - : 7 ; 5 7 5 ",
"X X X X X X X X X X X X @ o o @ @ % X > E q.u.k.z.^.{.{.[ >.OX)./.A r x C k h 1 ; ; * < < 7 & D x # : - - , - - w p 5 - 4 - 5 > ",
"X X X X X X @ X X X X X X o o o o   o & D q.u.k.z.i.{.I * z >.~ U A r ; 2 C 2 > , 7 ; < 2 - r U k $ # = # : - 5 0 i 4 & 4 - : > ",
". X X X X X X X X @ X @ o o O o @ @ . , b Q u.u.i.^.T   q V H r r r - ;   < K 2 , - 1 2 u - 2 @.C # # # # : - : ; 7 - - 4 - - - ",
"X X X X X X X X X X X $ o o o o $ o   @ h W u.k.z.K % < T m =.>.- % & % , % c Z < 9 1 q - % Z q.C # - # # # # - - 5 = - - - - - ",
"X X X X X X X @ X o X o o X o o $ =   . x W l.k.C , v b k.t.eXE.o - %   = w k +.Y 2 q < & 0 R q.D # - O # = # = - - - # : # - - ",
". X X X X X X X X X X X o o o O o @ @ X   W k.l * c l T k.t.eX$.. % + = , q Z @.0.U 2 < - S *.0.D = = O # @ # = = # - - - - - - ",
". X . X X X X X X X X o o o o o = . X   , b l h T T Q T q.C.zX:.o   %   1 h l 0.W R S 3 k Y @.q.U # - o $ o o # # - - - # - # # ",
"X X X X X X X X X @ X X X o o o @ #   ,   9 v W T Q Q 2 s.OX!.!   - o @ ; h R l.R l h v T W @.q.D o # O X O O O # $ # - # # - = "
};
