/* XPM */
static char *_d3d8e8fa61b46d0d695871b229a04723tUG4TsCILzWrpv0[] = {
/* columns rows colors chars-per-pixel */
"64 64 246 2 ",
"   c #040601",
".  c #060903",
"X  c #0B0B04",
"o  c #0C0E09",
"O  c #140D04",
"+  c #0E1109",
"@  c #121106",
"#  c #13130B",
"$  c #1A1508",
"%  c #1A160C",
"&  c #1D1A0E",
"*  c #171713",
"=  c #1B1B12",
"-  c #310D04",
";  c #271809",
":  c #351705",
">  c #3E1A0C",
",  c #241E15",
"<  c #37240C",
"1  c #272316",
"2  c #362819",
"3  c #2D2426",
"4  c #382626",
"5  c #34252A",
"6  c #35292B",
"7  c #3B2B2C",
"8  c #3A382B",
"9  c #3C2D31",
"0  c #3E3133",
"q  c #3B3738",
"w  c #431D0A",
"e  c #591001",
"r  c #6E1C02",
"t  c #43210E",
"y  c #4E240F",
"u  c #41290F",
"i  c #4D2C0E",
"p  c #4B2413",
"a  c #4C2C13",
"s  c #472C1A",
"d  c #542C10",
"f  c #4C3512",
"g  c #4C361A",
"h  c #58351A",
"j  c #6C300D",
"k  c #462A25",
"l  c #432B2D",
"z  c #493628",
"x  c #583928",
"c  c #442E32",
"v  c #4A2D31",
"b  c #443234",
"n  c #4C3134",
"m  c #433439",
"M  c #4C353A",
"N  c #4A3A3A",
"B  c #533436",
"V  c #53353A",
"C  c #573938",
"Z  c #67392B",
"A  c #653C34",
"S  c #7B4519",
"D  c #544639",
"F  c #684438",
"G  c #764637",
"H  c #714E31",
"J  c #493A41",
"K  c #4D3D43",
"L  c #523D43",
"P  c #593D41",
"I  c #4D4447",
"U  c #54444B",
"Y  c #5A4548",
"T  c #4A4958",
"R  c #5C4C53",
"E  c #594D58",
"W  c #575558",
"Q  c #5C525A",
"!  c #644949",
"~  c #774C44",
"^  c #6A544A",
"/  c #77554B",
"(  c #634E54",
")  c #695555",
"_  c #62545C",
"`  c #775C57",
"'  c #78615A",
"]  c #7B625C",
"[  c #54576B",
"{  c #655C65",
"}  c #5F6375",
"|  c #6A636C",
" . c #786765",
".. c #7C6C6B",
"X. c #6F6B72",
"o. c #766C74",
"O. c #7C7272",
"+. c #747877",
"@. c #7B747D",
"#. c #7A7E7D",
"$. c #872905",
"%. c #962D02",
"&. c #89370B",
"*. c #9A3704",
"=. c #A62C01",
"-. c #B72D01",
";. c #A73604",
":. c #AC3B03",
">. c #B73902",
",. c #B33D02",
"<. c #C43F06",
"1. c #BC4203",
"2. c #BA4608",
"3. c #AF4B11",
"4. c #B64815",
"5. c #8A5136",
"6. c #A15523",
"7. c #AA5929",
"8. c #C64908",
"9. c #D34D0D",
"0. c #C75407",
"q. c #D55809",
"w. c #C44E13",
"e. c #CA5717",
"r. c #D45A17",
"t. c #D2680F",
"y. c #D8661B",
"u. c #E2661E",
"i. c #D15B24",
"p. c #DA6926",
"a. c #DA742B",
"s. c #D06B35",
"d. c #E56F2D",
"f. c #E57936",
"g. c #834E41",
"h. c #85584A",
"j. c #815C52",
"k. c #8D694E",
"l. c #83655A",
"z. c #A86951",
"x. c #836B66",
"c. c #867777",
"v. c #8A7673",
"b. c #AF7F6B",
"n. c #D75F49",
"m. c #D47947",
"M. c #EC7350",
"N. c #FE7357",
"B. c #F47764",
"V. c #7C817F",
"C. c #E6843C",
"Z. c #F38536",
"A. c #92817C",
"S. c #B48D76",
"D. c #D78852",
"F. c #E78549",
"G. c #EF8E4F",
"H. c #F38A47",
"J. c #E88956",
"K. c #EC975A",
"L. c #F3975A",
"P. c #F5A15D",
"I. c #D59570",
"U. c #E99A67",
"Y. c #F59C64",
"T. c #EB8E71",
"R. c #ECA569",
"E. c #F5A76A",
"W. c #F3A56C",
"Q. c #EAAA78",
"!. c #F4AA75",
"~. c #F6B17C",
"^. c #7B7782",
"/. c #857D84",
"(. c #927D82",
"). c #7E8280",
"_. c #888686",
"`. c #93858B",
"'. c #938B8C",
"]. c #8F918C",
"[. c #93948E",
"{. c #9F958B",
"}. c #8F8891",
"|. c #968B92",
" X c #949691",
".X c #959A94",
"XX c #9A9B95",
"oX c #9A9698",
"OX c #9E9D9B",
"+X c #B1978F",
"@X c #A69997",
"#X c #A49D9B",
"$X c #9DA099",
"%X c #A5A397",
"&X c #A4A29D",
"*X c #AAA19E",
"=X c #BAA39D",
"-X c #9F9DA0",
";X c #A29EA1",
":X c #A4A2A2",
">X c #AAA4A2",
",X c #A9A7A7",
"<X c #ACABA5",
"1X c #ADADAC",
"2X c #B3ACA8",
"3X c #AFB0AB",
"4X c #B5B3AD",
"5X c #B4B4B4",
"6X c #BAB9B5",
"7X c #BCBDBC",
"8X c #BFBFBE",
"9X c #C4A994",
"0X c #EFAF84",
"qX c #CCB4A6",
"wX c #C7B5AC",
"eX c #C4BBB3",
"rX c #C0BFBC",
"tX c #C3C2BE",
"yX c #CCC6BD",
"uX c #D7C3B6",
"iX c #EAC7B6",
"pX c #C5C4C1",
"aX c #C9C6C2",
"sX c #CBCBC7",
"dX c #CCC9C5",
"fX c #D4CCC6",
"gX c #D6D3CD",
"hX c #DCD5CD",
"jX c #DDD9CE",
"kX c #DAD6D2",
"lX c #DBDAD5",
"zX c #DDDAD4",
"xX c #E2D8CE",
"cX c #F6D9C9",
"vX c #E2DCD4",
"bX c #EADDD3",
"nX c #E1DDD9",
"mX c #E5E1D5",
"MX c #E5E3DB",
"NX c #E9E2D8",
"BX c #EAE5DC",
"VX c #ECE9DE",
"CX c #E9E6E1",
"ZX c #ECEAE2",
"AX c #F1EDE5",
"SX c #F3F2E9",
/* pixels */
"i i > > > > p p p p p p p p p p p p i i i i i i i i f f f f f f f f f f i i i i i i i i i i i i p p p p a a a a t t t t f f f f ",
"i `  . ...o.......O.O.c.x.O.x.x.x.(  .x. . ._ E R _ _  .x. .( ....O.....x. .s Y ` ] ' ] ' ' ' ' ] x 1 = = # o 1 & g g.g.; g.~ f ",
"i ! ` '  .O.O.O.O. .....O.O.c...O._ ..x.` { { _ _ _ E _ x. .! c.@.x... ...x.' z ) x. .] l.] ] l.l.` < # o # % = x / / 2 ~ / h.f ",
"i ) ` `  . ... . . . .O.c.....O...R  .` R Q _ E E { | _ _ ) (  .O...O.x.x.l.l.D ^ l.l.] ' l.] j.l.` / = * + % , 2 h.Z ^ ; / ~ f ",
"> ` ` ' ) ) ` `  ....... ... ... .Y Y ( R R _ { _ Q Q _ _ ) (  .O...'  .x.] z 2 D / j.j.j.` / G x C 1 1 # . + , F G F u ~ / h.t ",
"> ` ^ ) ) ) ! ) ` ) ) ) ) ` ` ' ..Y R K { R Q _ _ ( ( R ( ( ( `  . .] l.l.l.^ 8 D j.l.` ` ^ x x z O % = @ . # % , 1 2 p s h.g.t ",
"> ! ! Y Y Y ! Y Y ( ) ) ) ) ) ) ) I L U U R R ( R ( R R R ( Y `  .] ` ` / l.F z D h.h.j.h.j.z ~ < , , o % % # 1 $ # = % % g.G t ",
"> ! ! P ! P Y P P Y Y Y Y Y ( Y ( K I L U U U U U U U U Y I Y F ` ` ` / / / s z F z / / ` / a 2 z 2 , # = #   o # + X * F G G t ",
"p C P V C V B V V L L K L I L L Y U U K L Y U U U U U I U V L ! C ! ! ~ F F g z 2 Z F ~ ~ ~ Z a % 2 % % . X X # # X # = F Z G w ",
"p C C B V M n M J n L V Y V L M V M L L Y U L K K K K M V V M M B B C C C z C 1 4 z C F A A Z , $ + o D & z # % 1 o + # O A x w ",
"p C V n v n M n M M M n L L B P L K L N L K K M b N M M M m M b n n b c b b & c 2 2 k A C A x C $ o % % # . o + . * # @ F F ; w ",
"p n B B V B V B B V V V C V P V L N K J M M m m N m m b m c v v v v v n 0 9 4 @ 2 z n z / C A A 4 .   . . # o o . o * 2 Z Z & w ",
"p l v v n n n n n V v V B v B n V m b m b m m m b 9 m 0 9 c c v c v n n c 9 7 o o o , 2 , x x B 2 k o 1 .   . o # o X G 5.2 & p ",
"p k l l n n n v v n l v C k B V n b b c b c b b m b c b 9 7 9 l 7 b v v b 1 * # * = n * 1 Z - z 2 1 , h % X   = # O 1 ~ F z 5.p ",
"p k v v l k l l n l v n n v l M M 9 c c v l c 7 0 9 7 7 7 7 7 7 7 7 7 l 6 4 = # = o # o k , % x s % & @ X X * X . x x.~ J.U.R.p ",
"p k 7 7 4 7 4 4 7 7 5 l v v 7 7 7 9 0 b 7 9 7 7 7 7 9 7 9 6 5 6 5 6 , 7 , * % W + # X 3 z k # + % o # O X o X o @ z.L.W.!.U.R.p ",
"a k 4 5 7 3 5 3 4 4 = 7 6 6 6 6 6 6 7 c c l l 9 9 l 7 7 7 7 6 7 6 7 1 7 3 o   #   . # # $ x = . .   X O o 6 # & K.E.W.R.R.R.R.a ",
"a 4 5 7 4 5 5 5 3 3 , 6 7 9 6 9 9 9 9 m b b 7 7 7 7 7 7 7 7 7 7 7 7 0 % 8 = o = X + o % 2 % % , #   . o o X K.E.!.W.R.U.!.K.C.a ",
"a k 7 c 5 5 3 3 3 3 , , 7 7 9 m 0 7 0 7 0 m l 4 4 4 7 l 7 7 9 7 6 9 m # , % X % .   = $ 2 2 $ & # + . . H !.E.E.W.E.W.G.L.f.p.i ",
"a 4 3 3 3 3 5 3 3 & = , 7 7 b N 0 b 7 4 7 4 4 4 l 4 7 7 4 b I U U Q { I * & g E.!.!.~.~.Q.R.U.Q.I.0X~.Q.R.!.W.E.K.f.a.f.e.i.8.i ",
"i 4 3 5 3 3 3 4 0 4 * % & 3 K I I I I U I U U U Y E W Q { { | X.o...! / H P.E.G.L.Y.W.W.!.~.W.R.W.W.~.W.Q.W.Y.y.y.0.8.1.w.w.w.y ",
"i C M b m q q J b , # # = D T T W W W W W { | { | | o.@.@.+.@.0 @._.U.G.E.G.!.!.!.~.~.0X~.~.~.!.!.R.E.P.F.C.a.8.w.>.2.4.2.4.:.y ",
"i E T T T T Q 1 W = o o + 1 W W | | X.| X.X.o.@.o.^.@.^.@.@.^.c.` !.!.K.!.0XQ.Y.Y.!.!.!.E.E.P.E.Y.G.C.a.p.p.e.8.>.4.2.3.3.,.2.y ",
"i T T [ [ } D & @ o o . # s +X2 $ ; X.o.@.@.@.c./.@.^.^./.^./.A.L.J.U.U.E.!.!.L.Y.L.H.L.L.G.L.H.C.f.p.p.e.e.0.9.w.2.w.1.8.e.i.y ",
"f } [ [ [ Q 8 # # o o o < h : ; $ ; ; X.o.{ c././.^./._._._.`.S.K.K.J.U.L.L.F.J.Z.H.Z.H.F.f.f.d.f.y.y.0.0.2.r.r.0.8.8.w.i.e.e.y ",
"f { } } } q 2 @ 3 o + N < ; : : h.: w ; o.) c._./.}.`.`.|.|.'.Y.J.8.U.F.f.p.u.d.F.L.H.d.f.f.a.q.t.0.0.1.,.2.w.0.9.8.8.>.;.;.;.y ",
"f { { X.@.8 W = o X X s ; $ F h u ; : ` S.g ` c.`.`.}.}.oX|.W.F.p.8.W.F.p.r.9.y.f.f.y.a.q.0.r.8.w.1.,.1.,.2.4.>.8.8.,.,.:.;.;.y ",
"f 2X@X{.`.8 1 & o O & a : ; h i u i 2 u x d (.`.`.'.}.|.@XY.K.M.p.W.K.m.8.>.i.>.e.0.r.8.8.1.2.,.2.=.:.;.:.:.,.>.8.2.3.3.3.3.3.p ",
"f hXjXnXvXhXvXfXuX< ; - h H y h : F h < s : i `.`.|.@X@XS.L.L.p.0XW.F.2.:.:.4.,.8.,.;.=.=.;.;.;.=.%.%.=.:.1.2.w.>.,.:.;.*.6.5.f ",
"f hX6X@XhXvXjXvXbXvXNXbXuXk.H x s c.A.k.< a > d +X+X=X+XR.G.d.0.U.F.i.:.:.%.- - 2.r.e.w.2.4.:.2.2.2.2.2.4.:.:.,.,.,.a . o +   f ",
"f vXNXmXvXhXk.hXbXxXbXxXmXNXMXfX2X=XwXuXwXwXqXk.j b.=XU.J.F.r.f.F.s.,.;.e - - - : r r 3.s.m.m.s.7.3.*.;.;.;.*.:.7.+ o .   . o f ",
"f vXvXvXMXmXBXvXkXgXtXaXkXvXyXyXNXmXeXwXeXeXwXqXuX9XD.K.F.r.9.U.F.8.;.%.e : : : $.%.$.=.4.;.r $.%.%.*.*.*.*.6.$ X X z + X @ . f ",
"i fXvXMXvXMXBXAXZXZXBXBXMXyXW + o jXBXBXxXfXyXeXqXuXU.J.d.9.=.Q.F.1.*.e %.%.$.$.:.>.%.i.;.;.r %.;.*.3.*.3.S X o . .   O @ + # f ",
"i BXvXBXBXBXBXVXBXMXZXZXCX6Xm . M.iXVXZXBXBXNXxXfXQ.K.H.9.-.Q.D.m.:.*.;.:.2.1.1.8.>.>.:.;.$.;.%.;.3.6.&.* @ X ; O o o $ ; o ; f ",
"i BXMXvXMXBXBXVXMXvXBXBXMX6XX z.B.n.NXBXBXBXBXmXbXL.J.p.8.>.U.s.2.:.:.0.0.8.r.f.9.>.>.2.4.=.>.7.7.t : O ; ; a d ; < < < > ; $ f ",
"i vXkXzXvXMXvXMXvXvXMXkXmXmXN.N.B.yXVXVXVXCXVXBX0XJ.d.9.,.bXbXbXxXs.r.y.F.C.f.a.J.8.q.9.-.>.z.c.x.` Y x.v.v.c. .A.A.v.c./.c.c.f ",
"i mXmXkXjXMXkXMXMXMXMXBXZXVXN.N.nXMXVXZXVXZXZXZXY.m.r.>.mXVXZXVXBXBXbXcXt.0.8.0.q.d.d.9.<.,.+X@X'.`.`._./.c.c.c.`.`.c.|.'.`.c.i ",
"i mXMXkXMXzXlXCXVXMXBXBXVXX BXM.M.SXMXmXNXVXNXI.T.r.1.0XVXBXVXBXVXvX6X1X>XF.F.F.0.8.q.y.q.q.@X>X#X#X@X@X'.`._._.c.O.v.@._.'./.i ",
"i MXvXMXlXkXlXlXBXkXZXMXMXMXv.AXBXiXN.bXNXN.N.m.p.2.a.NXmXBXZXZXNX6X>X:X:X:X:X>Xf.d.a.f.D.@X>X>X>X>X&X*X*X#X@X'.'.|.'.`.`.}.c.i ",
"i MXkXkXMXMXvXvXMXVXCXvXyXzXAXM.N.N.N.NXAXfXiXVXqXbXVXBXVXVXNX>X>X>X,X:X:X:X>X:X>X+XS.*X&X>X#X#X:X>X#X#X#X*X*X&X#X#X@X@X@X|.'.i ",
"i vXCXMXBXMXBXZXCXVXMXCXZX6XBXVX: SXBXZXAXVXVXVXAXVXAXBX4X>X&X:X,X1X:X:X;X;X:X>X:X<X*X*X>X,X:X1X>X>XOX:X;X:X#X#X*X*X#X*X#X#X#Xi ",
"i zXMXCXZXMXCXCXMXCXMXCXCXfXaXZXBXVXxXBXZXBXAXAXVXMX:X:X&X&X&X$X$X:XOX:X:X:X&XOX:X&X:X:X:X;X:X#X#X&X:X&X:X:X#XOX#X2X#X>X>X&X<Xi ",
"i MXCXMXCXCXMXCXMXMXCXZXZXzX8 # . X BXZXZXZXBXBX*X>X:X,X#X@X&X*X&X:X&X:X:X:X>X#X-X#X>X>X:X*X>X:XOX-X:X&X:X;X#X&X&X:X>X*X>XxXCXi ",
"i CXBXCXCXCXCXCXZXCXCXZXZXCXMXMXZXZXZXCXZX2X>X>X:X>XOXOX:XOX&X:XXX#X&X*X>X>X>X#X>X#X#X#X>X2X<X:X:X:X:X;X>X>X>X:X*X2XbXBXVXZXZXi ",
"f <X1X1X2X1X1X4X3X4X1X4XCXZXZXCXMX2 MXZXnX.X.X.X X.X.X X.X X.XXX.X.X.X.XXX.XXXXXOXXXXXOXOX.XXXXX.XXX.X$X&X%X2XyXdXdXsXfXdXsXsXi ",
"f <X<X<X2X1X1X1X1X1X3X4XZXCXCX$ q rXZXZXAX.X.X X.X X.X X.X X[..X.XXX$X3X4X6XtXaXtXtXtXaXeX&X$X&X<XyXfXdXfXsXsXfXsXaXsXsXpXaXaXi ",
"f 1X1X1X.X].[.<X1X1X2XMXZXnX'.[.[.[.{.ZXZXxX.X.X.X X.X.X.XtX6X6XrXtXpXpXpXpXpXpXpXaXaXsXdXsXsXsXsXfXfXsXdXdXdXsXsXsXaXsXaXaXaXi ",
"f 1X1X1X3X[.&X'.].].MXMXMX6X4XXXeX7XrXeXAXAXtXtXtX<XtXtX<X<X6XtXtXpXtXpXpXpXpXaXaXpXaXaXaXaXsXsXsXaXaXaXsXdXdXaXaXaXaXaXsXaXaXi ",
"a 1X1X1X1X1X3X1X]._.CXMXCXXXpXpXpXpXrX7XfXBX9XtXpXpXpXtXtXtXtXtXtXtXtXpXrXpXpXpXtXpXtXpXpXaXaXaXaXaXaXaXdXsXtXaXaXaXpXaXaXpXaXy ",
"a 1X1X1X1X1X1X1X&Xb.. lX6X6X6X3XOXOX1XtXeXCXT.T.wXtXpXpXpXpXpXpXrXtXrXtXtXtXpXpXpXpXpXpXtXpXpXpXpXaXdXaXtXaXaXaXpXpXaXpXaXpXaXy ",
"a 1X1X1X1X1X1X1X3XN.B.5X6X7X7X7X7X6X7X7X4X9XN.F.+XpXtXpXpXtXpXtXtXrXpXpXpXpXtXpXtXpXpXtXpXpXtXrXpXpXaXaXaXaX2XXX[. X.X2XtXaXpXy ",
"a 5X1X1X5X5X5X5X5X5X5X5X5X6X6X7X7X7X7X7X7X7X7XtXpXtXtXtX7XpXtXtXtXtXtXtXpXpXpXtXpXpXpXpXpXpXpX7XpXpXpXpXpXtXtX&X.X X[. X X X.Xy ",
"a 5X6X6X5X5X5X6X5X5X6X6X6X6X6X6X6X6X7X7X7X7X7X7X7XrX7X7X7X7XtX7XpXpX7XtXtXtXtXtXpXpXpXpXpXpXpXpXpXpXpXpXtXaX%X X X.X X[..X[.[.p ",
"a tXrXtX6X7XtXtXtXtXaXaXtXtXtXtXtXpXaXpXpXpXpXpXtXpXtXtXpXaXtXaXtXpXtXtXtXpXpXtXpXpXaXpXpXpXpXaXsXdXdXpXaXpXpXeX[.].]. X].].].p ",
"a kXlXkXlXkXlXlXkXkXkXvXnXnXkXlXlXlXlXzXzXlXlXlXnXlXnXvXkXvXvXkXvXkXkXkXkXvXvXMXvXnXnXnXvXvXvXlXlXlXlXkXlXlXlXkXkX_.)._.V.#.+.p ",
"a lXkXkXkXkXkXlXlXlXlXkXvXnXnXnXnXnXzXnXnXnXlXzXvXvXjXvXkXvXnXnXnXvXnXvXvXvXxXnXnXnXvXvXvXlXnXlXnXnXzXlXkXnXlXkXfX_._.V.).V.+.p ",
"p kXlXlXkXkXkXlXlXkXjXvXkXkXlXlXlXkXlXlXnXvXvXnXjXvXkXnXlXzXzXvXlXvXvXvXvXxXzXzXvXvXbXvXvXnXnXzXlXvXvXlXnXlXlXkX X_.#.#.V.+.+.a ",
"p gXlXlXvXkXkXlXlXlXlXjXlXnXlXnXnXlXnXzXnXnXnXvXvXkXvXlXlXlXzXvXmXvXvXvXzXvXvXnXnXnXnXvXvXvXnXzXvXbXvXkXlXkXkXkX]._.#.#.#.#.#.a ",
"p kXkXkXkXkXlXlXkXnXnXnXlXzXkXlXkXlXlXjXkXnXlXlXvXvXkXkXjXjXkXxXvXkXkXnXnXnXnXnXlXlXnXnXlXlXMXnXnXvXnXlXnXlXlXlX_.V.).#.#.+.+.f ",
"p kXkXlXnXlXlXlXlXlXkXkXkXlXlXnXlXlXkXkXvXkXlXkXzXzXjXvXbXvXvXlXkXvXlXkXvXkXlXlXlXvXkXkXzXvXvXlXkXnXnXlXlXkXlXXX_._.#.+.+.+.+.f ",
"i kXkXgXkXkXlXkXkXlXkXkXvXkXlXkXlXkXkXlXlXvXzXkXzXjXvXvXkXkXzXzXlXxXjXkXkXnXkXlXkXjXvXkXnXnXvXvXnXvXnXzXlXkXlX[.).).#.+.+.X.+.i ",
"i zXkXkXnXlXlXkXgXlXkXkXkXjXjXkXkXkXkXkXkXkXjXkXkXkXkXkXzXlXvXvXlXjXvXvXlXlXxXjXxXkXjXvXlXvXnXlXvXkXlXlXlXlXkX[._._.+.+.+.+.+.i ",
"i gXkXgXgXlXkXkXnXkXjXkXzXkXkXvXkXlXkXkXzXkXkXkXhXjXkXkXkXkXlXvXvXvXxXkXjXjXxXxXjXxXbXvXvXlXnXnXvXkXvXvXvXlXlXoX_._.#.+.+.#.+.i ",
"i i > > > > p p p p p p p p p p p p i i i i i i i i f f f f f f f f f f i i i i i i i i i i i i p p p p a a a a t t t t f f i i "
};
