/* XPM */
static char *frame_13_delay_0_04s1718382243[] = {
/* columns rows colors chars-per-pixel */
"64 64 16 1 ",
"  c #372A17",
". c #3B2E1B",
"X c #3D301D",
"o c #423522",
"O c #55452E",
"+ c #6D5736",
"@ c #957546",
"# c #9F7F50",
"$ c red",
"% c #FF6A00",
"& c #FF8F00",
"* c #FFD800",
"= c #FFF5C6",
"- c #FFFF97",
"; c white",
": c 0",
/* pixels */
"::::::::::::::::::::::::::::::::::::::::::::::::::::::::::::::::",
"::::::::::::::::::::::::::::::::::::::::::::::::::::::::::::::::",
"::::::::::::::::::::::::::::::::::::::::::::::::::::::::::::::::",
"::::::::::::::::::::::::::::::::::::::::::::::::::::::::::::::::",
"::::::::::::::::::::::::::::::::::::::::::::::::::::::::::::::::",
"::::::::::::::::::::::::::::::::::::::::::::::::::::::::::::::::",
":::::::::::::::::::::::::::::::$$:::::::::::::::::::::::::::::::",
":::::::::::::::::::::::::::::::$$:::::::::::::::::::::::::::::::",
":::::::::::::::::::::::::::::::%$$::::::::::::::::::::::::::::::",
":::::::::::::::::::::::::::::::&$%::::::::::::::::::::::::::::::",
":::::::::::::::::::::::::::::::*%%::::::::::::::::::::::::::::::",
":::::::::::::::::::::::::::::::*&%::::::::::::::::::::::::::::::",
"::::::::::::::::::::::::::::::%&**::::::::::::::::::::::::::::::",
"::::::::::::::::::::::::::::::***&%:::::::::::::::::::::::::::::",
"::::::::::::::::::::::::::::::**=*&:::::::::::::::::::::::::::::",
"::::::::::::::::::::::::::::::***&*:::::::::::::::::::::::::::::",
"::::::::::::::::::::::::::::::&***&:::::::::::::::::::::::::::::",
"::::::::::::::::::::::::::::::%***%:::::::::::::::::::::::::::::",
"::::::::::::::::::::::::::::**::::::::::::::::::::::::::::::::::",
"::::::::::::::::::::::::::******::::::::::::::::::::::::::::::::",
"::::::::::::::::::::::::-********&::::::::::::::::::::::::::::::",
"::::::::::::::::::::::-----****&&&&&::::::::::::::::::::::::::::",
":::::::::::::::::::::-------=*&&&&&&&:::::::::::::::::::::::::::",
":::::::::::::::::::::**---=;;;;*&&&&&&::::::::::::::::::::::::::",
":::::::::::::::::::::****=;;;;;;=&&&&&::::::::::::::::::::::::::",
"::::::::::::::::::::::***&&=;;=**&&&&&::::::::::::::::::::::::::",
"::::::::::::::::::::::****&&&*****&&&&&:::::::::::::::::::::::::",
"::::::::::::::::::::::--**&&&*****&&=;;:::::::::::::::::::::::::",
":::::::::::::::::::::::---*&&&*****;;;;;::::::::::::::::::::::::",
":::::::::::::::::::::::---=;=&***--;;;;;::::::::::::::::::::::::",
"::::::::::::::::::::::::---;;;-----;;;;;::::::::::::::::::::::::",
"::::::::::::::::::::::::#*-=;;;----=;;=@+:::::::::::::::::::::::",
"::::::::::::::::::::::::###=;;;-----=++++:::::::::::::::::::::::",
":::::::::::::::::::::::::####=;=--*#+++++:::::::::::::::::::::::",
":::::::::::::::::::::::::###@+@#*###@+++++::::::::::::::::::::::",
":::::::::::::::::::::::::@@##+++@####+++OO::::::::::::::::::::::",
"::::::::::::::::::::::::::@@@+++@####@OOOO::::::::::::::::::::::",
"::::::::::::::::::::::::::@@@@O++###@@OOOOO:::::::::::::::::::::",
"::::::::::::::::::::::::::@@@@OOO@@@@@OOOOO:::::::::::::::::::::",
":::::::::::::::::::::::::::#@@+OO+@@@@+OOOO:::::::::::::::::::::",
":::::::::::::::::::::::::::###@OOO@@@@@OOooo::::::::::::::::::::",
"::::::::::::::::::::::::::::###OOO+@@@@+oooo::::::::::::::::::::",
"::::::::::::::::::::::::::::###+oo+@@##+ooooo:::::::::::::::::::",
"::::::::::::::::::::::::::::###@ooo@###@ooooO:::::::::::::::::::",
":::::::::::::::::::::::::::::###Ooo+####OoOOO:::::::::::::::::::",
":::::::::::::::::::::::::::::###+ooO####@OOOOO::::::::::::::::::",
":::::::::::::::::::::::::::::###@OOo@####OOOOO::::::::::::::::::",
"::::::::::::::::::::::::::::::###+OO+####+OOOO::::::::::::::::::",
"::::::::::::::::::::::::::::::@@#@OOO####@OOOOO:::::::::::::::::",
"::::::::::::::::::::::::::::::@@@@OOO@###@OOOOO:::::::::::::::::",
":::::::::::::::::::::::::::::::@@@+OO+##@@+OOOO:::::::::::::::::",
":::::::::::::::::::::::::::::::@@@@OOO@@@@@OOOOO::::::::::::::::",
"::::::::::::::::::::::::::::::::+@@OOO+@@@@OOOoX::::::::::::::::",
"::::::::::::::::::::::::::::::::++++OO+@@@@+oXXXX:::::::::::::::",
"::::::::::::::::::::::::::::::::++++oOO@@@++XXXXX:::::::::::::::",
":::::::::::::::::::::::::::::::::+++oXo+++++OXXXX:::::::::::::::",
":::::::::::::::::::::::::::::::::@++OXXo++++OXXX..::::::::::::::",
":::::::::::::::::::::::::::::::::##@+oXX+++++o....::::::::::::::",
"::::::::::::::::::::::::::::::::::###OXXO+++@+....::::::::::::::",
"::::::::::::::::::::::::::::::::::###@..X+@##@.....:::::::::::::",
"::::::::::::::::::::::::::::::::::+@##...@####o... :::::::::::::",
":::::::::::::::::::::::::::::::::::++@+..+####+.    ::::::::::::",
":::::::::::::::::::::::::::::::::::+++O..O###@+     ::::::::::::",
"::::::::::::::::::::::::::::::::::::+++X .+@+++o    ::::::::::::"
};
