/* XPM */
static char *frame_00_delay_0_04s1718382242[] = {
/* columns rows colors chars-per-pixel */
"64 64 17 1 ",
"  c 0",
". c #372A17",
"X c #3B2E1B",
"o c #3D301D",
"O c #423522",
"+ c #55452E",
"@ c #6D5736",
"# c gray40",
"$ c red",
"% c #FF6A00",
"& c #957546",
"* c #9F7F50",
"= c #FF8F00",
"- c #FFD800",
"; c #FFFF97",
": c #FFF5C6",
"> c white",
/* pixels */
"                           %%%%%$$$$$                           ",
"                           %%%%%$$$$$                           ",
"                           %%%%%$$$$$                           ",
"                           ======%%%%                           ",
"                           -----=%%%%                           ",
"                           -----=%%%%                           ",
"                           -----=%%%%                           ",
"                           -----=%%%%                           ",
"                           -----=%%%%                           ",
"                           -----=%%%%                           ",
"                           -----=%%%%                           ",
"                           -----=%%%%                           ",
"                       %%%%=---------                           ",
"                       %%%%=---------                           ",
"                       %%%%=---------                           ",
"                       %%%%=---------%%                         ",
"                       =====---------%%%%                       ",
"                       -----::::;----%%%%%                      ",
"                       -----::::;----%%%%%                      ",
"                       -----::::;----%%%%%                      ",
"                       -----::::;----%%%%%                      ",
"                      ;-----:::::;;;------                      ",
"                     ;;-----::::::::;-----                      ",
"                     ------;::::::::;-----                      ",
"                     ----:>>>>>>:-::;-----                      ",
"                      --===:>>:--;;;-=====                      ",
"                      -=%%===--------%%%%%                      ",
"                      ;-%%%==--------%%%%%                      ",
"                       -%%%===-------%%%%%                      ",
"                       %%%%=-=-------%%%%%                      ",
"                        ---:::;;;;;:::::=                       ",
"                        *-;:>>>;;;;:>>:&@                       ",
"                        ***:>>>;;;;;:#@@@                       ",
"                         ****:>:;;-*@@@@@                       ",
"                         ***&@&*-***&@@@@@                      ",
"                         &&**@@@&****@@@++                      ",
"                          &&&@@@&****&++++                      ",
"                          &&&&+@@***&&+++++                     ",
"                          &&&&+++&&&&&+++++                     ",
"                           *&&@++@&&&&@++++                     ",
"                           ***&+++&&&&&++OOO                    ",
"                            ***+++@&&&&@OOOO                    ",
"                            ***@OO@&&**@OOOOO                   ",
"                            ***&OOO&***&OOOO+                   ",
"                             ***+OO@****+O+++                   ",
"                             ***@OO+****&+++++                  ",
"                             ***&++O&****+++++                  ",
"                              ***@++@****@++++                  ",
"                              &&*&+++****&+++++                 ",
"                              &&&&+++&***&+++++                 ",
"                               &&&@++@**&&@++++                 ",
"                               &&&&+++&&&&&+++++                ",
"                                @&&+++@&&&&+++Oo                ",
"                                @@@@++@&&&&@Ooooo               ",
"                                @@@@O++&&&@@ooooo               ",
"                                 @@@OoO@@@@@+oooo               ",
"                                 &@@+ooO@@@@+oooXX              ",
"                                 **&@Ooo@@@@@OXXXX              ",
"                                  ***+oo+@@@&@XXXX              ",
"                                  ***&XXo@&**&XXXXX             ",
"                                  @&**XXX&****OXXX.             ",
"                                   @@&@XX@****@X....            ",
"                                   @@@+XX+***&@.....            ",
"                                    @@@o.X@&@@@O....            "
};
